<?xml version="1.0" encoding="UTF-8" standalone="no"?>
<svg
   xmlns:svg="http://www.w3.org/2000/svg"
   xmlns="http://www.w3.org/2000/svg"
   version="1.1"
   width="602.867"
   height="107.90051"
   id="svg5456">
  <defs
     id="defs5458" />
  <g
     transform="translate(-49.137935,-443.8405)"
     id="layer1">
    <path
       d="m 246.76825,443.8405 c -19.95323,0 -34.83402,10.78075 -34.83402,32.36741 0,32.36638 50.20922,27.08778 50.20922,45.90636 0,4.97163 -3.70757,13.45675 -15.3478,13.45675 -8.29437,0 -17.80009,-3.97399 -25.54314,-10.6339 l -10.14047,15.01899 c 11.41986,8.47635 23.19823,11.75747 33.49105,11.75747 19.95654,0 37.71174,-11.13699 37.71174,-32.7237 0,-35.21772 -50.92175,-26.0408 -50.92175,-47.63296 0,-4.96499 3.56066,-11.40121 13.21001,-11.40121 8.29438,0 17.77275,3.97507 25.51568,10.63385 l 10.16797,-15.01899 C 268.86469,447.09535 257.06545,443.8405 246.76825,443.8405 z m 97.01995,0 c -27.55586,0 -51.16839,17.97014 -51.16839,53.93653 0,35.97195 23.61253,53.96398 51.16839,53.96398 10.29622,0 24.01936,-3.28225 35.43699,-11.7575 l -10.16791,-15.01896 c -7.74293,6.65881 -16.9747,10.35982 -25.26908,10.35982 -17.73655,0 -30.09258,-15.54078 -30.09258,-37.54734 0,-22.00542 12.35603,-37.51989 30.09258,-37.51989 8.27905,0 17.52615,3.67366 25.26908,10.33242 L 379.22519,455.598 c -11.41763,-8.47522 -25.14077,-11.7575 -35.43699,-11.7575 z m -294.650265,2.52145 0,16.2522 27.214928,0 0,86.57804 20.582507,0 0,-86.57804 27.18753,0 0,-16.2522 -74.984965,0 z m 104.967985,0 -42.69976,102.83024 20.3358,0 8.05762,-20.44547 38.72575,0 8.05764,20.44547 22.50095,0 -42.72716,-102.83024 -12.25084,0 z m 236.10939,0 0,102.83024 20.5825,0 0,-43.27531 41.79538,0 0,43.27531 20.58245,0 0,-102.83024 -20.58245,0 0,43.30271 -41.79538,0 0,-43.30271 -20.5825,0 z m 102.83026,0 0,102.83024 63.20003,0 0,-16.25223 -42.59015,0 0,-27.02308 33.62813,0 0,-16.25222 -33.62813,0 0,-27.05051 42.59015,0 0,-16.2522 -63.20003,0 z m 79.47963,0 0,102.83024 18.55442,0 0,-62.2956 49.08556,62.2956 11.83974,0 0,-102.83024 -18.14336,0 0,61.3912 -48.83885,-61.3912 -12.49751,0 z m -413.37644,33.16223 12.99082,32.97035 -25.95423,0 12.96341,-32.97035 z"
       id="path70"
       style="fill:#000000;fill-opacity:1;fill-rule:nonzero;stroke:none" />
  </g>
</svg>
