<?xml version="1.0" encoding="utf-8"?>
<!-- Generator: Adobe Illustrator 16.0.0, SVG Export Plug-In . SVG Version: 6.00 Build 0)  -->
<!DOCTYPE svg PUBLIC "-//W3C//DTD SVG 1.1//EN" "http://www.w3.org/Graphics/SVG/1.1/DTD/svg11.dtd">
<svg version="1.1"
	 id="svg8" xmlns:dc="http://purl.org/dc/elements/1.1/" xmlns:cc="http://creativecommons.org/ns#" xmlns:rdf="http://www.w3.org/1999/02/22-rdf-syntax-ns#" xmlns:svg="http://www.w3.org/2000/svg" xmlns:sodipodi="http://sodipodi.sourceforge.net/DTD/sodipodi-0.dtd" xmlns:inkscape="http://www.inkscape.org/namespaces/inkscape" sodipodi:docname="vodafone.svg" inkscape:version="0.92.3 (2405546, 2018-03-11)"
	 xmlns="http://www.w3.org/2000/svg" xmlns:xlink="http://www.w3.org/1999/xlink" x="0px" y="0px" width="194.701px" height="48px"
	 viewBox="-65.169 0 194.701 48" enable-background="new -65.169 0 194.701 48" xml:space="preserve">
<path d="M-30.974,2.269c-4.311,1.017-7.739,5.059-7.739,9.59c0,0.141,0.035,0.352,0.035,0.352
	c7.298,1.824,10.631,6.245,10.666,12.351c0,6.105-4.807,12.771-12.947,12.771c-6.597,0.07-13.474-5.613-13.509-14.597
	c0-6.034,3.228-11.789,7.333-15.157c4.035-3.368,9.544-5.474,14.526-5.474c0.5,0,1.037,0.003,1.434,0.073
	C-34.218,0.783-37.601,0-41.17,0c-13.263,0-23.999,10.736-23.999,24c0,13.193,10.736,24,23.999,24c13.264,0,24-10.807,24-24
	C-17.17,14.384-22.816,6.1-30.974,2.269z"/>
<path id="path2339-2" inkscape:connector-curvature="0" d="M-1.661,33.965l-7.333-17.544h4.807L0.374,28.07L4.83,16.421h4.562
	L2.269,33.965H-1.661z"/>
<path id="path2341-0" inkscape:connector-curvature="0" d="M22.164,25.123c0-0.772-0.07-1.474-0.246-2.105
	c-0.176-0.702-0.421-1.264-0.771-1.685c-0.316-0.491-0.737-0.842-1.229-1.122c-0.491-0.281-1.053-0.422-1.719-0.422
	c-0.632,0-1.229,0.141-1.685,0.422c-0.491,0.28-0.912,0.631-1.228,1.122c-0.352,0.421-0.597,0.982-0.772,1.685
	c-0.176,0.632-0.245,1.333-0.245,2.105c0,0.701,0.069,1.403,0.245,2.035c0.176,0.631,0.421,1.192,0.737,1.754
	c0.315,0.421,0.736,0.842,1.228,1.123c0.491,0.28,1.088,0.421,1.72,0.421c0.666,0,1.228-0.141,1.719-0.421
	c0.491-0.281,0.912-0.702,1.229-1.123c0.351-0.562,0.596-1.123,0.771-1.754C22.094,26.526,22.164,25.824,22.164,25.123
	 M26.62,25.123c0,1.123-0.176,2.245-0.526,3.368c-0.352,1.053-0.877,2.035-1.579,2.947c-0.702,0.842-1.544,1.544-2.632,2.105
	c-1.053,0.562-2.28,0.771-3.684,0.771c-1.404,0-2.632-0.21-3.685-0.771s-1.93-1.264-2.597-2.105
	c-0.701-0.912-1.228-1.895-1.579-2.947c-0.351-1.123-0.526-2.245-0.526-3.368s0.176-2.246,0.526-3.369
	c0.352-1.122,0.878-2.104,1.579-2.947c0.667-0.842,1.544-1.544,2.597-2.035S16.795,16,18.199,16c1.403,0,2.631,0.28,3.684,0.771
	s1.93,1.193,2.632,2.035c0.702,0.843,1.228,1.825,1.579,2.947C26.444,22.877,26.62,24,26.62,25.123"/>
<path id="path2343-6" inkscape:connector-curvature="0" d="M40.129,20.28c-0.842-0.351-1.649-0.491-2.421-0.491
	c-0.772,0-1.438,0.141-1.966,0.422c-0.561,0.28-1.018,0.701-1.368,1.122c-0.386,0.562-0.632,1.123-0.842,1.685
	c-0.176,0.702-0.245,1.263-0.245,1.965s0.069,1.403,0.21,2.105c0.176,0.632,0.421,1.263,0.737,1.684
	c0.315,0.562,0.736,0.982,1.228,1.264c0.491,0.28,1.088,0.421,1.755,0.421c0.561,0,1.122-0.141,1.684-0.421
	c0.597-0.281,1.018-0.702,1.229-1.123V20.28z M40.514,33.965l-0.176-1.403c-0.421,0.491-0.982,0.842-1.648,1.263
	c-0.667,0.281-1.474,0.491-2.386,0.491c-1.193,0-2.281-0.21-3.193-0.771c-0.912-0.491-1.685-1.123-2.316-2.035
	c-0.631-0.842-1.087-1.824-1.438-2.947c-0.315-1.053-0.491-2.246-0.491-3.438c0-1.123,0.176-2.246,0.526-3.369
	c0.316-1.122,0.843-2.104,1.544-2.947c0.667-0.842,1.544-1.544,2.562-2.035C34.55,16.28,35.777,16,37.181,16
	c0.912,0,1.895,0.141,2.947,0.491V9.684h4.526v24.28H40.514z"/>
<path id="path2345-7" inkscape:connector-curvature="0" d="M57.322,25.684c-0.492,0.069-0.983,0.14-1.475,0.14
	c-0.525,0.07-1.018,0.141-1.474,0.281c-0.982,0.141-1.649,0.491-2.035,0.982c-0.386,0.421-0.562,0.982-0.562,1.544
	s0.211,1.053,0.632,1.403s1.018,0.491,1.825,0.491c0.561,0,1.157-0.07,1.684-0.351c0.562-0.281,1.018-0.562,1.404-0.913V25.684z
	 M57.708,33.894l-0.176-1.333c-0.491,0.562-1.123,0.982-1.859,1.263c-0.772,0.352-1.579,0.491-2.491,0.491
	c-0.772,0-1.474-0.14-2.176-0.351c-0.701-0.28-1.298-0.632-1.824-1.123c-0.562-0.421-0.982-1.053-1.299-1.754
	c-0.351-0.632-0.491-1.474-0.491-2.316c0-0.842,0.141-1.684,0.491-2.315c0.352-0.632,0.808-1.193,1.404-1.685
	c0.561-0.491,1.228-0.842,2-1.122c0.736-0.281,1.543-0.491,2.351-0.632c0.597-0.141,1.228-0.281,1.93-0.281
	c0.702-0.069,1.263-0.14,1.72-0.14v-0.281c0-0.982-0.246-1.684-0.737-2.104c-0.491-0.422-1.193-0.562-2.07-0.562
	c-0.491,0-0.982,0-1.438,0.14c-0.491,0.141-0.877,0.281-1.264,0.422c-0.351,0.21-0.666,0.421-0.982,0.561
	c-0.245,0.211-0.49,0.352-0.666,0.491l-1.474-3.157c0.175-0.141,0.491-0.352,0.877-0.562c0.421-0.281,0.877-0.562,1.474-0.772
	c0.562-0.21,1.193-0.421,1.895-0.561C53.637,16,54.409,16,55.217,16c0.982,0,1.859,0.141,2.666,0.351
	c0.808,0.211,1.474,0.632,2.07,1.193s1.018,1.263,1.369,2.105c0.315,0.842,0.49,1.824,0.49,3.018v11.228H57.708z"/>
<path id="path2347-3" inkscape:connector-curvature="0" d="M75.708,13.684c-0.141-0.07-0.421-0.211-0.843-0.352
	c-0.421-0.14-0.982-0.14-1.684-0.14c-0.632,0-1.158,0.14-1.579,0.561c-0.421,0.352-0.632,0.982-0.632,1.825v0.842h3.754v3.649
	h-3.719v13.895h-4.526V20.07h-2.315v-3.649h2.315v-0.982c0-1.123,0.176-2.105,0.456-2.877c0.281-0.772,0.702-1.403,1.229-1.895
	c0.491-0.562,1.123-0.843,1.824-1.123c0.702-0.211,1.474-0.281,2.281-0.281c1.087,0,2.035,0.07,2.736,0.281
	c0.702,0.141,1.123,0.28,1.264,0.421L75.708,13.684z"/>
<path id="path2349-9" inkscape:connector-curvature="0" d="M88.058,25.123c0-0.772-0.141-1.474-0.281-2.105
	c-0.14-0.702-0.421-1.264-0.771-1.685c-0.351-0.491-0.771-0.842-1.264-1.122c-0.49-0.281-1.052-0.422-1.684-0.422
	s-1.193,0.141-1.754,0.422c-0.422,0.28-0.843,0.631-1.193,1.122c-0.352,0.421-0.632,0.982-0.772,1.685
	c-0.14,0.632-0.28,1.333-0.28,2.105c0,0.701,0.141,1.403,0.28,2.035c0.141,0.631,0.421,1.192,0.702,1.754
	c0.421,0.421,0.771,0.842,1.264,1.123c0.561,0.28,1.122,0.421,1.754,0.421s1.193-0.141,1.684-0.421
	c0.492-0.281,0.913-0.702,1.264-1.123c0.351-0.562,0.632-1.123,0.771-1.754C87.918,26.526,88.058,25.824,88.058,25.123
	 M92.409,25.123c0,1.123-0.14,2.245-0.491,3.368c-0.351,1.053-0.912,2.035-1.613,2.947c-0.632,0.842-1.545,1.544-2.527,2.105
	c-1.122,0.562-2.315,0.771-3.719,0.771s-2.597-0.21-3.72-0.771c-0.982-0.562-1.895-1.264-2.597-2.105
	c-0.701-0.912-1.192-1.895-1.543-2.947c-0.352-1.123-0.491-2.245-0.491-3.368s0.14-2.246,0.491-3.369
	c0.351-1.122,0.842-2.104,1.543-2.947c0.702-0.842,1.614-1.544,2.597-2.035C81.462,16.28,82.655,16,84.058,16
	s2.597,0.28,3.649,0.771c1.052,0.491,1.895,1.193,2.597,2.035c0.701,0.843,1.263,1.825,1.613,2.947
	C92.269,22.877,92.409,24,92.409,25.123"/>
<path id="path2351-6" inkscape:connector-curvature="0" d="M106.444,33.965V23.929c0-1.333-0.28-2.315-0.842-3.088
	c-0.562-0.771-1.333-1.053-2.315-1.053c-0.702,0-1.334,0.141-1.965,0.491c-0.632,0.352-1.123,0.772-1.545,1.193v12.491h-4.49V16.421
	h4.14l0.141,1.403c0.702-0.631,1.544-1.053,2.386-1.403c0.912-0.28,1.824-0.421,2.667-0.421c0.982,0,1.824,0.141,2.526,0.421
	c0.842,0.281,1.474,0.702,2.035,1.264c0.561,0.631,0.982,1.403,1.333,2.386c0.28,0.982,0.421,2.105,0.421,3.509v10.386H106.444z"/>
<path id="path2353-4" inkscape:connector-curvature="0" d="M124.97,23.017c-0.07-0.562-0.141-1.123-0.421-1.544
	c-0.141-0.421-0.421-0.842-0.702-1.123c-0.351-0.28-0.701-0.421-0.982-0.562c-0.421-0.14-0.771-0.21-1.123-0.21
	c-0.771,0-1.543,0.28-2.245,0.912c-0.702,0.562-1.123,1.403-1.263,2.526H124.97z M118.164,26.246
	c0.07,1.543,0.561,2.596,1.333,3.228c0.842,0.702,1.965,0.982,3.228,0.982c0.632,0,1.264,0,1.755-0.141
	c0.491-0.14,1.053-0.28,1.403-0.421c0.422-0.141,0.772-0.351,1.053-0.491c0.281-0.21,0.562-0.351,0.702-0.491l1.122,3.649
	c-0.14,0.141-0.421,0.28-0.771,0.491c-0.351,0.21-0.842,0.421-1.403,0.632c-0.562,0.14-1.193,0.28-1.965,0.421
	c-0.772,0.141-1.614,0.21-2.456,0.21c-1.123,0-2.246-0.21-3.229-0.491c-1.053-0.421-1.965-0.982-2.736-1.754
	c-0.772-0.772-1.404-1.685-1.895-2.877c-0.422-1.123-0.632-2.457-0.632-4.07c0-1.403,0.21-2.737,0.632-3.93
	c0.42-1.123,0.982-2.035,1.684-2.808c0.771-0.771,1.685-1.403,2.667-1.824S120.62,16,121.742,16c1.123,0,2.176,0.141,3.088,0.562
	c0.982,0.28,1.825,0.842,2.457,1.685c0.701,0.701,1.263,1.684,1.613,2.947c0.422,1.192,0.632,2.666,0.632,4.28v0.772H118.164z"/>
</svg>
