<?xml version="1.0" encoding="utf-8"?>
<!-- Generator: Adobe Illustrator 15.0.0, SVG Export Plug-In . SVG Version: 6.00 Build 0)  -->
<!DOCTYPE svg PUBLIC "-//W3C//DTD SVG 1.1//EN" "http://www.w3.org/Graphics/SVG/1.1/DTD/svg11.dtd">
<svg version="1.1" id="Layer_1" xmlns="http://www.w3.org/2000/svg" xmlns:xlink="http://www.w3.org/1999/xlink" x="0px" y="0px"
	 width="327.447px" height="120px" viewBox="0 0 327.447 120" enable-background="new 0 0 327.447 120" xml:space="preserve">
<g>
	<defs>
		<path id="SVGID_1_" d="M15.33,53.821c-1.469,0-3.286,1.258-4.059,2.811L0.344,82.727C0.118,83.181,0.007,83.61,0,83.991v0.079
			c0.017,0.874,0.6,1.467,1.609,1.467h3.814c1.469,0,3.286-1.259,4.059-2.811l8.583-17.302l2.481,17.302
			c0.206,1.43,1.388,2.596,2.723,2.774l5.596-11.283l-1.162-17.586c-0.223-1.553-1.598-2.811-3.068-2.811H15.33z M100.346,53.821
			c-1.261,0-2.581,0.892-3.466,2.34c0,0-6.395,10.435-6.499,11.033l-0.067,0.371c-0.32,1.811,0.89,3.279,2.701,3.279h4.914
			L97.682,83.48c-0.07,1.151,0.74,2.049,1.929,2.049c1.19,0,2.318-0.897,2.654-2.051l4.149-12.634h5.147
			c1.811,0,3.539-1.469,3.858-3.279l0.065-0.371c0.106-0.599-2.609-11.033-2.609-11.033c-0.375-1.448-1.38-2.34-2.641-2.34H100.346z
			 M111.742,31.254l-2.531,3.11c-0.302,0.373-0.811,0.373-0.981,0l-1.433-3.11h-1.779c-1.287,0-2.615,0.801-3.487,2.101l-4.47,5.949
			c-0.873,1.3-1.155,2.901-0.74,4.202l2.37,5.948c0.414,1.302,1.461,2.102,2.746,2.102h8.504c1.285,0,2.615-0.8,3.487-2.102
			l4.47-5.948c0.872-1.301,1.155-2.902,0.741-4.202l-2.372-5.949c-0.413-1.3-1.46-2.101-2.746-2.101H111.742z M26.668,31.161
			l-2.507,3.125c-0.298,0.372-0.8,0.372-0.967,0l-1.405-3.125h-2.206c-1.405,0-2.844,0.805-3.776,2.111l-3.795,5.975
			c-0.931,1.306-1.216,2.916-0.744,4.221l1.687,5.977c0.47,1.305,1.627,2.111,3.032,2.111h9.29c1.405,0,2.846-0.806,3.778-2.111
			l3.792-5.977c0.934-1.305,1.217-2.915,0.745-4.221l-1.683-5.975c-0.474-1.306-1.63-2.111-3.035-2.111H26.668z M104.065,22.232
			c-0.659,3.736,1.85,6.764,5.602,6.764c3.754,0,7.329-3.028,7.987-6.764c0.659-3.734-1.849-6.764-5.601-6.764
			C108.301,15.468,104.723,18.498,104.065,22.232 M18.92,22.098c-0.663,3.753,1.843,6.795,5.596,6.795
			c3.752,0,7.331-3.042,7.993-6.795c0.662-3.753-1.844-6.796-5.596-6.796C23.159,15.302,19.58,18.345,18.92,22.098 M51.908,46.207
			c0.524-0.945,0.486-1.815,0.486-1.815l0.351-10.495l2.212-2.736h3.237c1.418,0,2.588,0.805,3.068,2.111l1.711,5.975
			c0.48,1.306,0.196,2.916-0.744,4.221L57.4,49.445c-0.939,1.305-2.393,2.111-3.81,2.111h-9.385c-1.418,0-2.588-0.806-3.067-2.111
			l-2.721-5.977c-0.479-1.305-0.196-2.915,0.744-4.221l3.821-5.975c0.938-1.306,2.391-2.111,3.811-2.111h3.238l1.269,2.786
			l-3.335,10.445c0,0-0.343,0.87-0.152,1.815c0.191,0.946,1.44,3.446,1.44,3.446S51.383,47.153,51.908,46.207 M81.855,31.667
			l0.091-0.506h3.434c1.42,0,2.589,0.805,3.068,2.111l1.711,5.975c0.48,1.306,0.196,2.916-0.743,4.221l-4.829,5.977
			c-0.939,1.305-2.392,2.111-3.812,2.111h-9.383c-1.419,0-2.588-0.806-3.067-2.111l-2.721-5.977
			c-0.479-1.305-0.196-2.915,0.745-4.221l3.82-5.975c0.939-1.306,2.392-2.111,3.811-2.111h3.418l-0.089,0.506
			c-0.22,1.255,0.617,2.274,1.874,2.274C80.437,33.941,81.635,32.922,81.855,31.667 M47.297,22.098
			c0.661-3.753,4.24-6.796,7.992-6.796c3.753,0,6.258,3.043,5.597,6.796c-0.662,3.753-4.24,6.795-7.992,6.795
			C49.14,28.893,46.634,25.851,47.297,22.098 M74.483,22.098c0.662-3.753,4.241-6.796,7.994-6.796c3.752,0,6.258,3.043,5.596,6.796
			c-0.662,3.753-4.241,6.795-7.993,6.795C76.327,28.893,73.822,25.851,74.483,22.098 M57.786,0C49.839,0,42.262,6.442,40.86,14.39
			l-2.561,14.53l-7.213,40.904l6.544-13.192c0.772-1.553,2.59-2.811,4.061-2.811h13.615c1.47,0,2.843,1.258,3.067,2.811
			l1.446,10.075l4.998-10.075c0.771-1.553,2.589-2.811,4.058-2.811h0.731l2.192,15.293l-6.753,13.612
			c-0.772,1.552-2.588,2.811-4.058,2.811h-8.975c-1.471,0-2.845-1.259-3.069-2.811l-2.486-17.335l-8.598,17.335
			c-0.772,1.552-2.589,2.811-4.06,2.811h-5.483l-5.365,30.427c-0.394,2.23,1.094,4.036,3.324,4.036h10.352h18.886h8.922
			c7.947,0,15.524-6.442,16.926-14.388l3.54-20.075h-5.703c-1.469,0-2.844-1.259-3.068-2.811l-0.253-1.768h-6.3
			c-0.64,0-0.92-0.521-0.623-1.163l1.074-2.325c0.298-0.64,1.058-1.162,1.699-1.162h3.483l-3.226-22.488h10.508
			c1.471,0,2.844,1.258,3.068,2.811l1.99,13.873l9.896-56.115l1.825-10.352C99.662,1.807,98.175,0,95.946,0H57.786z"/>
	</defs>
	<clipPath id="SVGID_2_">
		<use xlink:href="#SVGID_1_"  overflow="visible"/>
	</clipPath>
	
		<linearGradient id="SVGID_3_" gradientUnits="userSpaceOnUse" x1="0" y1="119.998" x2="1" y2="119.998" gradientTransform="matrix(109.1609 19.248 -19.248 109.1609 2315.5742 -13048.6768)">
		<stop  offset="0" style="stop-color:#000000"/>
		<stop  offset="0.3919" style="stop-color:#000000"/>
		<stop  offset="0.5034" style="stop-color:#000000"/>
		<stop  offset="0.7448" style="stop-color:#000000"/>
		<stop  offset="1" style="stop-color:#000000"/>
	</linearGradient>
	<polygon clip-path="url(#SVGID_2_)" fill="url(#SVGID_3_)" points="-20.521,116.382 115.463,140.359 139.574,3.619 3.59,-20.359 	
		"/>
</g>
<g>
	<defs>
		<rect id="SVGID_4_" width="327.447" height="120"/>
	</defs>
	<clipPath id="SVGID_5_">
		<use xlink:href="#SVGID_4_"  overflow="visible"/>
	</clipPath>
	<path clip-path="url(#SVGID_5_)" fill="#000000" d="M142.996,36.443V8.255c0.275-0.055,0.652-0.11,1.133-0.165
		s0.962-0.083,1.443-0.083c0.906,0,1.61,0.155,2.112,0.464c0.501,0.309,0.951,0.786,1.35,1.432l10.879,17.762V8.214l0.677-0.083
		l0.595-0.083c0.192-0.027,0.384-0.041,0.576-0.041c0.396,0,0.814,0.041,1.252,0.124s0.831,0.237,1.18,0.464
		c0.349,0.226,0.643,0.556,0.883,0.989c0.239,0.432,0.358,0.999,0.358,1.7v25.159h-4.885l-12.032-18.565v18.565H142.996z"/>
	<path clip-path="url(#SVGID_5_)" fill="#000000" d="M169.718,11.9c-0.517-0.578-0.773-1.33-0.773-2.254
		c0-0.924,0.257-1.682,0.773-2.274c0.516-0.593,1.15-0.89,1.906-0.89c0.832,0,1.552,0.297,2.158,0.89
		c0.607,0.592,0.911,1.35,0.911,2.274c0,0.924-0.3,1.676-0.9,2.254c-0.6,0.578-1.323,0.867-2.169,0.867
		C170.868,12.768,170.233,12.479,169.718,11.9 M168.944,33.353V16.477c0-0.027,0.211-0.061,0.634-0.103
		c0.423-0.041,0.856-0.062,1.299-0.062c0.443,0,0.891,0.041,1.341,0.124c0.449,0.083,0.854,0.244,1.217,0.484
		c0.361,0.241,0.654,0.58,0.88,1.02c0.225,0.44,0.338,1.01,0.338,1.71V36.69c-0.11,0.055-0.362,0.096-0.757,0.124
		c-0.396,0.027-0.819,0.041-1.27,0.041c-0.559,0-1.06-0.048-1.504-0.144c-0.442-0.097-0.824-0.278-1.145-0.546
		c-0.321-0.268-0.573-0.629-0.757-1.082C169.036,34.629,168.944,34.054,168.944,33.353"/>
	<path clip-path="url(#SVGID_5_)" fill="#000000" d="M178.077,26.408c0-2.143,0.35-3.891,1.047-5.244
		c0.696-1.353,1.558-2.421,2.579-3.203c1.022-0.783,2.116-1.323,3.281-1.618s2.214-0.443,3.148-0.443
		c1.153,0,2.222,0.123,3.204,0.367c0.981,0.245,1.796,0.578,2.441,1c0.536,0.341,0.91,0.664,1.123,0.97
		c0.213,0.306,0.32,0.67,0.32,1.092c0,0.399-0.127,0.884-0.382,1.455c-0.254,0.572-0.58,1.098-0.979,1.58
		c-0.454-0.484-1.117-0.965-1.988-1.442c-0.872-0.477-1.838-0.716-2.896-0.716c-1.854,0-3.176,0.571-3.966,1.712
		c-0.79,1.14-1.186,2.602-1.186,4.386c0,0.913,0.082,1.767,0.247,2.562s0.453,1.49,0.865,2.084c0.412,0.595,0.941,1.062,1.587,1.4
		c0.646,0.339,1.449,0.508,2.411,0.508c0.618,0,1.178-0.072,1.679-0.218c0.502-0.145,0.951-0.321,1.351-0.528
		c0.397-0.208,0.737-0.432,1.02-0.674c0.281-0.242,0.491-0.446,0.628-0.612c0.316,0.344,0.636,0.835,0.959,1.475
		c0.322,0.639,0.484,1.186,0.484,1.639c0,0.273-0.059,0.545-0.175,0.817c-0.117,0.272-0.361,0.544-0.732,0.816
		c-0.536,0.395-1.295,0.759-2.276,1.092c-0.982,0.333-2.229,0.5-3.74,0.5c-1.017,0-2.114-0.141-3.291-0.423
		c-1.178-0.281-2.269-0.817-3.271-1.607s-1.835-1.878-2.499-3.266C178.409,30.48,178.077,28.661,178.077,26.408"/>
	<path clip-path="url(#SVGID_5_)" fill="#000000" d="M197.309,36.443V6.566c0-0.028,0.213-0.062,0.639-0.103
		c0.425-0.042,0.861-0.063,1.308-0.063c0.447,0,0.897,0.042,1.351,0.125s0.861,0.245,1.226,0.486
		c0.364,0.242,0.659,0.584,0.886,1.026c0.228,0.442,0.34,1.014,0.34,1.719v8.429c0.221-0.24,0.498-0.497,0.834-0.772
		c0.338-0.274,0.746-0.528,1.228-0.762c0.479-0.233,1.037-0.417,1.669-0.551c0.631-0.134,1.353-0.2,2.163-0.2
		c1.992,0,3.468,0.391,4.43,1.174c0.962,0.783,1.58,1.827,1.855,3.132c0.137,0.646,0.229,1.346,0.277,2.102
		c0.049,0.755,0.072,1.497,0.072,2.225v11.91h-5.749V24.711c0-0.623-0.021-1.205-0.062-1.745c-0.041-0.539-0.151-1-0.329-1.38
		c-0.18-0.381-0.475-0.679-0.887-0.893c-0.412-0.215-0.982-0.322-1.71-0.322c-1.045,0-1.937,0.218-2.679,0.654
		s-1.113,0.98-1.113,1.63v13.788H197.309z"/>
	<path clip-path="url(#SVGID_5_)" fill="#000000" d="M218.6,26.532c0-1.434,0.213-2.796,0.639-4.085
		c0.425-1.29,1.05-2.42,1.875-3.393c0.824-0.972,1.871-1.741,3.142-2.306c1.271-0.566,2.751-0.848,4.441-0.848
		c1.764,0,3.269,0.283,4.513,0.85c1.245,0.567,2.254,1.331,3.027,2.292c0.772,0.962,1.334,2.078,1.683,3.35
		c0.349,1.273,0.523,2.609,0.523,4.007c0,1.399-0.175,2.742-0.523,4.028c-0.348,1.288-0.922,2.424-1.721,3.41
		c-0.799,0.986-1.83,1.773-3.094,2.362c-1.264,0.588-2.795,0.883-4.595,0.883s-3.324-0.288-4.573-0.862
		c-1.251-0.575-2.271-1.348-3.061-2.319c-0.79-0.972-1.367-2.094-1.73-3.367C218.781,29.262,218.6,27.928,218.6,26.532
		 M224.555,24.26c-0.139,0.723-0.206,1.464-0.206,2.221c0,0.757,0.061,1.515,0.185,2.272c0.124,0.757,0.34,1.437,0.649,2.037
		c0.309,0.6,0.738,1.081,1.287,1.443c0.55,0.361,1.23,0.542,2.04,0.542c0.839,0,1.535-0.181,2.092-0.542
		c0.557-0.362,0.989-0.843,1.299-1.443c0.309-0.6,0.518-1.28,0.628-2.037c0.11-0.757,0.165-1.525,0.165-2.303
		c0-0.75-0.055-1.497-0.165-2.241c-0.11-0.744-0.319-1.395-0.628-1.955c-0.31-0.559-0.732-1.013-1.268-1.361
		c-0.537-0.348-1.213-0.522-2.029-0.522c-0.818,0-1.501,0.181-2.051,0.542c-0.55,0.362-0.985,0.829-1.309,1.403
		C224.921,22.888,224.691,23.537,224.555,24.26"/>
	<path clip-path="url(#SVGID_5_)" fill="#000000" d="M241.497,33.353V6.688c0-0.027,0.213-0.061,0.639-0.103
		c0.425-0.041,0.861-0.061,1.309-0.061c0.446,0,0.896,0.041,1.35,0.123c0.453,0.083,0.862,0.245,1.226,0.484
		c0.364,0.241,0.659,0.581,0.887,1.02c0.227,0.44,0.34,1.01,0.34,1.711V36.69c-0.138,0.055-0.405,0.096-0.804,0.124
		c-0.398,0.027-0.839,0.041-1.319,0.041s-0.938-0.048-1.37-0.144c-0.432-0.097-0.817-0.278-1.153-0.546
		c-0.337-0.268-0.604-0.629-0.804-1.082C241.597,34.629,241.497,34.054,241.497,33.353"/>
	<path clip-path="url(#SVGID_5_)" fill="#000000" d="M249.807,30.862c0-1.412,0.346-2.567,1.039-3.464
		c0.691-0.896,1.562-1.602,2.607-2.119c1.046-0.516,2.182-0.87,3.407-1.06c1.227-0.19,2.346-0.312,3.356-0.367
		c0.346-0.027,0.679-0.047,0.997-0.061h0.935v-0.774c0-1.119-0.287-1.916-0.862-2.389c-0.575-0.474-1.514-0.71-2.814-0.71
		c-1.22,0-2.305,0.208-3.254,0.624c-0.95,0.416-1.875,0.882-2.777,1.398c-0.407-0.494-0.733-1.034-0.979-1.621
		c-0.246-0.586-0.369-1.027-0.369-1.324c0-0.396,0.222-0.776,0.667-1.138c0.443-0.362,1.047-0.69,1.81-0.984
		c0.764-0.293,1.642-0.529,2.633-0.707c0.992-0.178,2.043-0.266,3.154-0.266c1.546,0,2.855,0.157,3.927,0.472
		c1.072,0.315,1.943,0.801,2.612,1.458c0.668,0.657,1.146,1.48,1.431,2.466s0.429,2.137,0.429,3.452v7.868
		c0,2.198,0.322,3.798,0.969,4.802c-0.509,0.187-0.987,0.323-1.436,0.41c-0.447,0.087-0.91,0.13-1.389,0.13
		c-1.04,0-1.826-0.194-2.361-0.581c-0.532-0.387-0.87-0.935-1.011-1.643c-0.617,0.628-1.433,1.163-2.448,1.604
		C259.063,36.779,257.83,37,256.377,37c-0.771,0-1.543-0.105-2.319-0.315c-0.777-0.211-1.48-0.554-2.11-1.03
		s-1.144-1.108-1.543-1.897C250.006,32.969,249.807,32.004,249.807,30.862 M255.328,30.423c0,0.795,0.224,1.472,0.669,2.03
		c0.444,0.558,1.201,0.837,2.27,0.837c0.534,0,1.041-0.069,1.52-0.209c0.479-0.139,0.9-0.324,1.265-0.554
		c0.361-0.231,0.649-0.482,0.861-0.754c0.213-0.272,0.319-0.519,0.319-0.743v-4.375h-0.596c-0.192,0-0.392,0.015-0.596,0.042
		c-0.698,0.056-1.391,0.14-2.075,0.251c-0.686,0.112-1.294,0.311-1.828,0.597s-0.969,0.659-1.305,1.12
		C255.497,29.125,255.328,29.712,255.328,30.423"/>
	<path clip-path="url(#SVGID_5_)" fill="#000000" d="M269.819,34.074c0-0.478,0.144-0.973,0.429-1.486
		c0.286-0.513,0.617-1.049,0.993-1.609c0.249,0.218,0.568,0.447,0.957,0.685c0.389,0.239,0.829,0.463,1.321,0.675
		c0.493,0.211,1.024,0.385,1.592,0.521c0.569,0.136,1.152,0.204,1.749,0.204c0.369,0,0.749-0.027,1.139-0.081
		c0.39-0.055,0.731-0.167,1.025-0.338c0.294-0.17,0.54-0.395,0.738-0.675c0.199-0.279,0.298-0.637,0.298-1.073
		c0-0.804-0.314-1.383-0.943-1.738c-0.629-0.354-1.572-0.654-2.83-0.899c-0.814-0.164-1.608-0.389-2.381-0.675
		c-0.773-0.286-1.461-0.657-2.06-1.114s-1.08-1.036-1.443-1.738c-0.361-0.702-0.543-1.554-0.543-2.555
		c0-1.002,0.229-1.892,0.687-2.671c0.457-0.778,1.06-1.437,1.809-1.977c0.748-0.539,1.62-0.946,2.618-1.22
		c0.998-0.273,2.037-0.41,3.117-0.41c1.12,0,2.119,0.084,3,0.251c0.88,0.167,1.64,0.397,2.282,0.69
		c1.227,0.515,1.869,1.184,1.924,2.006c0,0.432-0.133,0.941-0.4,1.526c-0.266,0.585-0.555,1.129-0.869,1.63
		c-0.271-0.218-0.611-0.446-1.014-0.684c-0.402-0.239-0.855-0.46-1.36-0.665s-1.029-0.378-1.575-0.521s-1.099-0.215-1.658-0.215
		c-0.314,0-0.639,0.021-0.975,0.062c-0.335,0.04-0.636,0.126-0.902,0.255c-0.267,0.13-0.489,0.31-0.666,0.542
		c-0.178,0.232-0.268,0.545-0.268,0.94c0,0.955,1.02,1.656,3.057,2.106c0.834,0.164,1.667,0.378,2.499,0.644
		c0.831,0.266,1.573,0.634,2.229,1.104c0.654,0.47,1.182,1.07,1.584,1.799c0.402,0.73,0.604,1.64,0.604,2.73
		c0,1.123-0.215,2.119-0.645,2.988s-1.023,1.599-1.781,2.187c-0.758,0.589-1.645,1.038-2.66,1.345
		c-1.018,0.308-2.126,0.462-3.327,0.462c-1.249,0-2.309-0.092-3.175-0.278c-0.867-0.185-1.586-0.401-2.154-0.649
		c-0.403-0.164-0.84-0.412-1.312-0.742C270.056,35.084,269.819,34.637,269.819,34.074"/>
	<path clip-path="url(#SVGID_5_)" fill="#000000" d="M142.997,75.882l9.787-27.857c0.343-0.138,0.818-0.269,1.422-0.393
		c0.605-0.123,1.257-0.186,1.958-0.186c0.315,0,0.662,0.029,1.04,0.083c0.378,0.056,0.749,0.172,1.113,0.351
		c0.364,0.178,0.707,0.439,1.03,0.783c0.322,0.343,0.587,0.811,0.793,1.401l9.066,25.818h-5.997l-2.39-6.84h-9.767l-2.307,6.84
		H142.997z M152.166,64.735h7.542l-3.709-12.014L152.166,64.735z"/>
	<path clip-path="url(#SVGID_5_)" fill="#000000" d="M170.587,73.513c0-0.479,0.143-0.973,0.428-1.486
		c0.286-0.512,0.617-1.049,0.993-1.609c0.249,0.219,0.569,0.447,0.957,0.686c0.389,0.238,0.83,0.463,1.322,0.674
		c0.493,0.213,1.023,0.387,1.592,0.521c0.569,0.137,1.152,0.205,1.749,0.205c0.369,0,0.749-0.027,1.138-0.082
		c0.391-0.054,0.732-0.166,1.026-0.338c0.294-0.17,0.54-0.395,0.738-0.674s0.298-0.637,0.298-1.074c0-0.803-0.315-1.383-0.944-1.736
		c-0.629-0.355-1.572-0.654-2.83-0.9c-0.813-0.164-1.607-0.389-2.381-0.674c-0.773-0.287-1.46-0.657-2.059-1.115
		c-0.6-0.457-1.08-1.035-1.443-1.738c-0.362-0.701-0.543-1.553-0.543-2.556c0-1.002,0.229-1.892,0.686-2.669
		c0.457-0.778,1.061-1.437,1.81-1.977c0.748-0.54,1.62-0.947,2.618-1.22c0.998-0.274,2.037-0.41,3.116-0.41
		c1.12,0,2.119,0.084,3,0.25c0.881,0.168,1.642,0.398,2.282,0.69c1.229,0.516,1.869,1.185,1.924,2.007
		c0,0.432-0.133,0.94-0.398,1.525c-0.267,0.586-0.556,1.129-0.87,1.631c-0.272-0.219-0.61-0.446-1.013-0.685
		c-0.403-0.239-0.856-0.459-1.361-0.664s-1.03-0.379-1.576-0.522c-0.546-0.142-1.098-0.215-1.658-0.215
		c-0.313,0-0.639,0.022-0.974,0.063c-0.335,0.04-0.636,0.125-0.903,0.255c-0.266,0.13-0.488,0.309-0.666,0.542
		c-0.178,0.231-0.267,0.545-0.267,0.938c0,0.956,1.019,1.657,3.056,2.106c0.834,0.164,1.667,0.379,2.499,0.645
		s1.575,0.635,2.229,1.104c0.654,0.471,1.183,1.07,1.586,1.801c0.401,0.729,0.603,1.639,0.603,2.729
		c0,1.123-0.215,2.119-0.645,2.988c-0.431,0.869-1.024,1.6-1.781,2.188s-1.645,1.037-2.661,1.346
		c-1.017,0.308-2.126,0.461-3.327,0.461c-1.249,0-2.308-0.092-3.175-0.277s-1.586-0.402-2.154-0.65
		c-0.402-0.164-0.84-0.412-1.312-0.74C170.823,74.522,170.587,74.074,170.587,73.513"/>
	<path clip-path="url(#SVGID_5_)" fill="#000000" d="M188.298,73.513c0-0.479,0.143-0.973,0.428-1.486
		c0.286-0.512,0.617-1.049,0.993-1.609c0.249,0.219,0.569,0.447,0.957,0.686c0.389,0.238,0.83,0.463,1.322,0.674
		c0.493,0.213,1.023,0.387,1.592,0.521c0.569,0.137,1.152,0.205,1.749,0.205c0.369,0,0.749-0.027,1.138-0.082
		c0.391-0.054,0.732-0.166,1.026-0.338c0.294-0.17,0.54-0.395,0.738-0.674s0.298-0.637,0.298-1.074c0-0.803-0.315-1.383-0.944-1.736
		c-0.629-0.355-1.572-0.654-2.83-0.9c-0.813-0.164-1.607-0.389-2.381-0.674c-0.773-0.287-1.46-0.657-2.059-1.115
		c-0.6-0.457-1.08-1.035-1.443-1.738c-0.362-0.701-0.543-1.553-0.543-2.556c0-1.002,0.229-1.892,0.686-2.669
		c0.457-0.778,1.061-1.437,1.81-1.977c0.748-0.54,1.62-0.947,2.618-1.22c0.998-0.274,2.037-0.41,3.116-0.41
		c1.12,0,2.119,0.084,3,0.25c0.881,0.168,1.642,0.398,2.282,0.69c1.229,0.516,1.869,1.185,1.924,2.007
		c0,0.432-0.133,0.94-0.398,1.525c-0.267,0.586-0.557,1.129-0.87,1.631c-0.272-0.219-0.61-0.446-1.013-0.685
		c-0.403-0.239-0.856-0.459-1.361-0.664s-1.03-0.379-1.576-0.522c-0.546-0.142-1.098-0.215-1.658-0.215
		c-0.313,0-0.639,0.022-0.974,0.063c-0.335,0.04-0.636,0.125-0.903,0.255c-0.266,0.13-0.488,0.309-0.666,0.542
		c-0.178,0.231-0.267,0.545-0.267,0.938c0,0.956,1.019,1.657,3.056,2.106c0.834,0.164,1.667,0.379,2.499,0.645
		s1.575,0.635,2.229,1.104c0.654,0.471,1.183,1.07,1.586,1.801c0.401,0.729,0.603,1.639,0.603,2.729
		c0,1.123-0.215,2.119-0.645,2.988c-0.431,0.869-1.024,1.6-1.781,2.188s-1.645,1.037-2.661,1.346
		c-1.017,0.308-2.126,0.461-3.327,0.461c-1.249,0-2.308-0.092-3.175-0.277s-1.586-0.402-2.154-0.65
		c-0.402-0.164-0.84-0.412-1.312-0.74C188.534,74.522,188.298,74.074,188.298,73.513"/>
	<path clip-path="url(#SVGID_5_)" fill="#000000" d="M206.477,65.972c0-1.434,0.213-2.796,0.639-4.085
		c0.426-1.29,1.051-2.421,1.875-3.395c0.824-0.971,1.871-1.74,3.143-2.306c1.271-0.565,2.751-0.848,4.44-0.848
		c1.765,0,3.27,0.283,4.514,0.851c1.245,0.567,2.254,1.331,3.026,2.292c0.773,0.961,1.334,2.078,1.684,3.35
		c0.348,1.273,0.522,2.609,0.522,4.008s-0.175,2.74-0.522,4.027c-0.349,1.287-0.922,2.424-1.722,3.41
		c-0.799,0.985-1.83,1.774-3.094,2.361c-1.263,0.588-2.795,0.883-4.594,0.883c-1.8,0-3.325-0.287-4.574-0.861
		c-1.251-0.574-2.271-1.348-3.06-2.32c-0.79-0.971-1.367-2.092-1.731-3.365S206.477,67.366,206.477,65.972 M212.432,63.698
		c-0.138,0.725-0.206,1.465-0.206,2.223c0,0.757,0.061,1.514,0.185,2.271s0.341,1.436,0.649,2.037c0.309,0.6,0.739,1.08,1.288,1.441
		c0.549,0.363,1.229,0.543,2.04,0.543c0.838,0,1.535-0.18,2.091-0.543c0.557-0.361,0.99-0.842,1.299-1.441
		c0.31-0.602,0.519-1.279,0.628-2.037c0.11-0.758,0.165-1.525,0.165-2.303c0-0.75-0.055-1.498-0.165-2.242
		c-0.109-0.744-0.318-1.395-0.628-1.954c-0.309-0.561-0.731-1.013-1.267-1.362c-0.537-0.347-1.213-0.522-2.03-0.522
		c-0.818,0-1.501,0.181-2.05,0.543c-0.55,0.36-0.986,0.829-1.31,1.402C212.799,62.327,212.568,62.976,212.432,63.698"/>
	<path clip-path="url(#SVGID_5_)" fill="#000000" d="M228.529,65.847c0-2.143,0.35-3.891,1.047-5.245
		c0.696-1.352,1.558-2.42,2.579-3.203c1.022-0.783,2.116-1.322,3.281-1.617c1.165-0.296,2.214-0.443,3.148-0.443
		c1.153,0,2.222,0.123,3.204,0.367c0.981,0.245,1.796,0.578,2.441,1c0.536,0.34,0.91,0.664,1.123,0.97
		c0.213,0.305,0.32,0.67,0.32,1.091c0,0.4-0.127,0.884-0.382,1.456c-0.254,0.571-0.58,1.098-0.979,1.579
		c-0.454-0.484-1.117-0.964-1.989-1.442c-0.871-0.476-1.837-0.715-2.895-0.715c-1.854,0-3.176,0.571-3.966,1.711
		c-0.79,1.142-1.186,2.603-1.186,4.388c0,0.912,0.082,1.766,0.247,2.561s0.453,1.49,0.865,2.084c0.412,0.596,0.941,1.063,1.587,1.4
		c0.646,0.34,1.449,0.508,2.411,0.508c0.618,0,1.178-0.072,1.679-0.217c0.502-0.145,0.951-0.322,1.351-0.529
		c0.397-0.207,0.737-0.432,1.02-0.674c0.281-0.242,0.491-0.445,0.628-0.611c0.316,0.344,0.636,0.834,0.959,1.475
		c0.322,0.639,0.484,1.186,0.484,1.639c0,0.273-0.06,0.545-0.175,0.816c-0.117,0.273-0.361,0.545-0.732,0.816
		c-0.536,0.395-1.295,0.76-2.277,1.092c-0.981,0.334-2.229,0.5-3.739,0.5c-1.017,0-2.114-0.141-3.291-0.422
		c-1.179-0.281-2.269-0.816-3.271-1.607c-1.002-0.789-1.835-1.879-2.499-3.266C228.861,69.919,228.529,68.099,228.529,65.847"/>
	<path clip-path="url(#SVGID_5_)" fill="#000000" d="M248.162,51.338c-0.516-0.578-0.773-1.329-0.773-2.254
		c0-0.923,0.258-1.681,0.773-2.273c0.516-0.594,1.151-0.89,1.907-0.89c0.832,0,1.551,0.296,2.158,0.89
		c0.606,0.592,0.91,1.35,0.91,2.273c0,0.925-0.3,1.676-0.899,2.254c-0.601,0.579-1.324,0.868-2.169,0.868
		C249.313,52.206,248.678,51.917,248.162,51.338 M247.389,72.792V55.915c0-0.028,0.211-0.061,0.635-0.103
		c0.423-0.041,0.855-0.062,1.299-0.062c0.442,0,0.89,0.042,1.34,0.124c0.45,0.083,0.855,0.244,1.217,0.484
		c0.362,0.24,0.655,0.58,0.88,1.019c0.226,0.441,0.338,1.01,0.338,1.711V76.13c-0.109,0.055-0.361,0.096-0.757,0.123
		s-0.818,0.041-1.269,0.041c-0.56,0-1.061-0.049-1.504-0.145s-0.824-0.277-1.146-0.544c-0.32-0.269-0.573-0.63-0.757-1.083
		S247.389,73.491,247.389,72.792"/>
	<path clip-path="url(#SVGID_5_)" fill="#000000" d="M256.069,70.302c0-1.412,0.347-2.568,1.039-3.465s1.562-1.602,2.608-2.119
		c1.045-0.516,2.181-0.869,3.407-1.059c1.226-0.191,2.345-0.312,3.355-0.367c0.347-0.027,0.679-0.049,0.997-0.062h0.936v-0.773
		c0-1.12-0.287-1.917-0.862-2.389c-0.576-0.474-1.514-0.711-2.815-0.711c-1.22,0-2.305,0.209-3.254,0.625
		c-0.95,0.416-1.875,0.881-2.776,1.397c-0.407-0.493-0.734-1.034-0.98-1.621c-0.246-0.586-0.369-1.027-0.369-1.324
		c0-0.397,0.223-0.776,0.667-1.139c0.444-0.361,1.047-0.689,1.811-0.983c0.763-0.294,1.641-0.53,2.633-0.707
		c0.992-0.178,2.044-0.267,3.154-0.267c1.546,0,2.854,0.157,3.927,0.473c1.071,0.314,1.942,0.801,2.611,1.458
		c0.669,0.657,1.146,1.479,1.432,2.466c0.285,0.986,0.428,2.137,0.428,3.451v7.869c0,2.197,0.322,3.797,0.969,4.801
		c-0.508,0.188-0.986,0.324-1.435,0.41c-0.448,0.088-0.911,0.131-1.389,0.131c-1.04,0-1.826-0.193-2.361-0.582
		c-0.533-0.387-0.871-0.934-1.011-1.643c-0.617,0.629-1.434,1.162-2.448,1.604s-2.249,0.662-3.702,0.662
		c-0.77,0-1.543-0.105-2.319-0.316s-1.479-0.553-2.109-1.029s-1.145-1.107-1.543-1.896
		C256.269,72.409,256.069,71.442,256.069,70.302 M261.592,69.862c0,0.795,0.223,1.473,0.668,2.029
		c0.445,0.559,1.202,0.838,2.27,0.838c0.534,0,1.041-0.07,1.521-0.209c0.479-0.141,0.899-0.324,1.264-0.555
		c0.362-0.23,0.65-0.482,0.862-0.754s0.319-0.52,0.319-0.742v-4.375h-0.597c-0.191,0-0.39,0.014-0.596,0.041
		c-0.698,0.057-1.39,0.141-2.075,0.252c-0.685,0.111-1.294,0.311-1.828,0.596c-0.534,0.287-0.969,0.66-1.305,1.121
		C261.76,68.563,261.592,69.151,261.592,69.862"/>
	<path clip-path="url(#SVGID_5_)" fill="#000000" d="M277.484,69.206V49.63c0.192-0.027,0.406-0.054,0.641-0.083
		c0.192-0.027,0.403-0.047,0.63-0.06c0.229-0.014,0.452-0.022,0.674-0.022c0.453,0,0.905,0.041,1.354,0.124s0.858,0.251,1.23,0.505
		s0.669,0.602,0.889,1.041c0.221,0.44,0.332,1.01,0.332,1.709v2.947h5.893v4.307h-5.893v8.995c0,1.957,0.803,2.943,2.41,2.957
		c0.398,0,0.773-0.064,1.123-0.195c0.351-0.131,0.666-0.27,0.947-0.422c0.282-0.15,0.529-0.311,0.742-0.482
		c0.213-0.17,0.361-0.297,0.443-0.379c0.426,0.619,0.749,1.156,0.969,1.611s0.329,0.875,0.329,1.26c0,0.375-0.148,0.738-0.442,1.092
		c-0.296,0.354-0.711,0.68-1.248,0.979c-0.534,0.298-1.181,0.539-1.936,0.727c-0.756,0.188-1.587,0.281-2.494,0.281
		c-1.748,0-3.11-0.34-4.08-1.02c-0.973-0.68-1.659-1.562-2.059-2.648c-0.192-0.562-0.316-1.156-0.371-1.781
		C277.512,70.446,277.484,69.823,277.484,69.206"/>
	<path clip-path="url(#SVGID_5_)" fill="#000000" d="M291.15,65.538c0-1.771,0.274-3.297,0.824-4.574
		c0.549-1.278,1.279-2.338,2.194-3.184c0.913-0.845,1.947-1.463,3.102-1.854c1.153-0.392,2.335-0.587,3.544-0.587
		c1.64,0,3.029,0.244,4.171,0.731c1.141,0.488,2.067,1.148,2.78,1.978c0.713,0.832,1.23,1.783,1.551,2.854
		c0.321,1.072,0.481,2.199,0.481,3.379v0.578c0,0.219-0.007,0.461-0.021,0.722l-0.044,0.741c-0.015,0.234-0.037,0.426-0.065,0.576
		H296.94c0.109,1.553,0.587,2.842,1.432,3.863c0.846,1.023,2.181,1.535,4.007,1.535c0.73,0,1.373-0.078,1.931-0.236
		s1.055-0.346,1.49-0.566c0.436-0.219,0.818-0.467,1.147-0.742l0.879-0.742c0.365,0.426,0.741,0.969,1.128,1.629
		c0.387,0.658,0.581,1.201,0.581,1.627c0,0.619-0.373,1.182-1.117,1.69c-0.615,0.452-1.485,0.841-2.609,1.163
		c-1.124,0.324-2.452,0.484-3.984,0.484c-1.32,0-2.617-0.168-3.895-0.504s-2.418-0.928-3.421-1.771
		c-1.003-0.846-1.813-1.979-2.432-3.4S291.15,67.708,291.15,65.538 M296.899,63.726h7.377c0-1.383-0.262-2.508-0.783-3.377
		c-0.522-0.868-1.456-1.301-2.803-1.301c-1.153,0-2.074,0.412-2.761,1.238C297.242,61.11,296.899,62.257,296.899,63.726"/>
	<path clip-path="url(#SVGID_5_)" fill="#000000" d="M311.684,73.513c0-0.479,0.144-0.973,0.429-1.486
		c0.285-0.512,0.616-1.049,0.992-1.609c0.25,0.219,0.569,0.447,0.958,0.686s0.829,0.463,1.322,0.674
		c0.492,0.213,1.022,0.387,1.592,0.521c0.569,0.137,1.151,0.205,1.749,0.205c0.369,0,0.748-0.027,1.138-0.082
		c0.39-0.054,0.731-0.166,1.025-0.338c0.294-0.17,0.54-0.395,0.738-0.674c0.199-0.279,0.298-0.637,0.298-1.074
		c0-0.803-0.314-1.383-0.943-1.736c-0.629-0.355-1.572-0.654-2.83-0.9c-0.814-0.164-1.607-0.389-2.381-0.674
		c-0.774-0.287-1.46-0.657-2.06-1.115c-0.6-0.457-1.08-1.035-1.442-1.738c-0.362-0.701-0.543-1.553-0.543-2.556
		c0-1.002,0.229-1.892,0.686-2.669c0.457-0.778,1.061-1.437,1.809-1.977s1.621-0.947,2.618-1.22c0.998-0.274,2.036-0.41,3.117-0.41
		c1.119,0,2.119,0.084,2.999,0.25c0.88,0.168,1.642,0.398,2.283,0.69c1.228,0.516,1.869,1.185,1.924,2.007
		c0,0.432-0.133,0.94-0.399,1.525c-0.266,0.586-0.557,1.129-0.869,1.631c-0.272-0.219-0.611-0.446-1.014-0.685
		c-0.402-0.239-0.855-0.459-1.36-0.664s-1.03-0.379-1.576-0.522c-0.546-0.142-1.099-0.215-1.658-0.215
		c-0.314,0-0.64,0.022-0.975,0.063c-0.335,0.04-0.636,0.125-0.902,0.255s-0.489,0.309-0.666,0.542
		c-0.178,0.231-0.267,0.545-0.267,0.938c0,0.956,1.019,1.657,3.056,2.106c0.834,0.164,1.667,0.379,2.499,0.645
		c0.831,0.266,1.574,0.635,2.229,1.104c0.653,0.471,1.183,1.07,1.585,1.801c0.402,0.729,0.604,1.639,0.604,2.729
		c0,1.123-0.215,2.119-0.646,2.988s-1.023,1.6-1.78,2.188c-0.758,0.588-1.645,1.037-2.662,1.346
		c-1.017,0.308-2.125,0.461-3.326,0.461c-1.249,0-2.308-0.092-3.175-0.277c-0.868-0.186-1.586-0.402-2.155-0.65
		c-0.402-0.164-0.84-0.412-1.312-0.74C311.92,74.522,311.684,74.074,311.684,73.513"/>
	<path clip-path="url(#SVGID_5_)" fill="#000000" d="M142.996,109.69c0-0.269,0.107-0.604,0.322-1.006
		c0.214-0.402,0.466-0.783,0.756-1.145c0.765,0.617,1.674,1.159,2.729,1.625c1.054,0.467,2.184,0.699,3.389,0.699
		c0.928,0,1.698-0.119,2.312-0.357c0.615-0.239,1.107-0.548,1.478-0.927c0.37-0.379,0.64-0.813,0.808-1.302
		c0.168-0.49,0.252-0.996,0.252-1.521c0-0.664-0.102-1.249-0.304-1.755c-0.203-0.508-0.501-0.944-0.895-1.312
		c-0.394-0.367-0.887-0.682-1.478-0.943c-0.591-0.263-1.269-0.516-2.034-0.761c-0.88-0.268-1.723-0.566-2.529-0.899
		c-0.806-0.332-1.521-0.749-2.146-1.25c-0.626-0.5-1.13-1.121-1.513-1.861c-0.382-0.74-0.573-1.658-0.573-2.753
		c0-1.058,0.197-1.992,0.591-2.803c0.394-0.812,0.927-1.489,1.599-2.036c0.672-0.547,1.471-0.961,2.399-1.242
		c0.927-0.282,1.935-0.423,3.024-0.423c0.881,0,1.825,0.11,2.834,0.331c1.008,0.221,1.871,0.541,2.59,0.961
		c0.382,0.227,0.701,0.475,0.955,0.747c0.255,0.272,0.383,0.578,0.383,0.917c0,0.292-0.11,0.604-0.33,0.936
		c-0.221,0.332-0.498,0.667-0.835,1.005c-0.185-0.163-0.446-0.376-0.782-0.638s-0.742-0.507-1.216-0.734
		c-0.476-0.227-1.015-0.426-1.617-0.594c-0.603-0.17-1.263-0.254-1.982-0.254c-0.834,0-1.529,0.102-2.086,0.307
		c-0.556,0.203-1.005,0.466-1.347,0.785c-0.342,0.321-0.591,0.703-0.747,1.145c-0.157,0.443-0.235,0.893-0.235,1.347
		c0,0.595,0.119,1.107,0.356,1.538c0.238,0.432,0.582,0.807,1.035,1.127c0.452,0.32,0.999,0.611,1.642,0.874
		c0.643,0.262,1.379,0.525,2.208,0.786c0.828,0.262,1.616,0.58,2.364,0.953c0.748,0.372,1.405,0.832,1.973,1.38
		c0.567,0.548,1.025,1.198,1.373,1.949c0.348,0.751,0.522,1.651,0.522,2.7c0,1.18-0.198,2.222-0.592,3.124
		c-0.394,0.903-0.947,1.661-1.659,2.274c-0.713,0.613-1.562,1.076-2.547,1.389c-0.985,0.312-2.069,0.47-3.251,0.47
		c-1.309,0-2.526-0.142-3.65-0.423c-1.124-0.28-2.011-0.655-2.659-1.125C143.291,110.595,142.996,110.159,142.996,109.69"/>
	<path clip-path="url(#SVGID_5_)" fill="#000000" d="M160.532,107.038c-0.285-1.092-0.427-2.223-0.427-3.396
		s0.168-2.292,0.505-3.358c0.336-1.065,0.835-1.995,1.496-2.789c0.661-0.793,1.485-1.428,2.471-1.902
		c0.986-0.475,2.146-0.713,3.48-0.713c1.4,0,2.588,0.238,3.56,0.713c0.973,0.475,1.765,1.109,2.379,1.903
		c0.613,0.794,1.062,1.712,1.345,2.755c0.284,1.042,0.427,2.14,0.427,3.288c0,1.149-0.143,2.269-0.427,3.353
		c-0.282,1.084-0.737,2.047-1.362,2.886c-0.625,0.84-1.437,1.511-2.433,2.012c-0.995,0.501-2.205,0.753-3.627,0.753
		c-1.423,0-2.628-0.24-3.615-0.718s-1.792-1.123-2.413-1.934C161.27,109.079,160.817,108.128,160.532,107.038 M163.529,101.411
		c-0.15,0.715-0.226,1.437-0.226,2.162c0,0.727,0.064,1.465,0.191,2.215s0.37,1.424,0.729,2.025
		c0.357,0.601,0.833,1.093,1.423,1.477c0.59,0.383,1.347,0.574,2.272,0.574c0.948,0,1.729-0.191,2.343-0.574
		c0.612-0.384,1.087-0.876,1.422-1.477c0.336-0.602,0.566-1.275,0.694-2.025c0.127-0.75,0.191-1.488,0.191-2.215
		c0-0.726-0.064-1.447-0.191-2.162c-0.128-0.715-0.358-1.359-0.694-1.932c-0.335-0.572-0.798-1.035-1.388-1.391
		c-0.59-0.354-1.358-0.531-2.308-0.531c-0.902,0-1.654,0.178-2.255,0.531c-0.603,0.355-1.082,0.818-1.441,1.391
		C163.934,100.052,163.679,100.696,163.529,101.411"/>
	<path clip-path="url(#SVGID_5_)" fill="#000000" d="M178.797,112.003V93.357c0-2.314,0.533-4.053,1.599-5.216
		c1.066-1.161,2.608-1.743,4.624-1.743c0.73,0,1.405,0.084,2.025,0.251c0.62,0.168,1.149,0.375,1.59,0.619
		c0.441,0.246,0.78,0.51,1.017,0.791c0.238,0.281,0.357,0.548,0.357,0.799c0,0.334-0.096,0.66-0.287,0.977
		c-0.19,0.316-0.396,0.602-0.617,0.856h-0.452c-0.405-0.494-0.897-0.886-1.478-1.179c-0.579-0.292-1.24-0.438-1.981-0.438
		c-1.065,0-1.895,0.285-2.485,0.859c-0.591,0.572-0.888,1.563-0.888,2.973v2.286h5.98v2.677h-5.98v14.133H178.797z"/>
	<path clip-path="url(#SVGID_5_)" fill="#000000" d="M190.738,106.806V90.152h0.226c0.046,0,0.108-0.009,0.189-0.026
		s0.155-0.025,0.226-0.025c0.633,0,1.188,0.164,1.667,0.494c0.478,0.328,0.717,0.925,0.717,1.787v2.778h5.32v2.675h-5.32v9.126
		c0,1.936,0.771,2.903,2.312,2.903c0.384,0,0.739-0.062,1.07-0.189c0.33-0.127,0.625-0.279,0.886-0.459
		c0.262-0.178,0.481-0.352,0.661-0.518c0.18-0.168,0.292-0.285,0.339-0.355c0.289,0.361,0.533,0.706,0.729,1.037
		c0.198,0.33,0.296,0.652,0.296,0.967c0,0.214-0.107,0.449-0.321,0.705c-0.215,0.256-0.511,0.493-0.887,0.713
		c-0.377,0.221-0.846,0.404-1.408,0.554c-0.562,0.148-1.173,0.224-1.834,0.224c-1.228,0-2.208-0.238-2.939-0.713
		c-0.732-0.476-1.253-1.131-1.564-1.965c-0.161-0.451-0.262-0.944-0.302-1.478C190.759,107.854,190.738,107.327,190.738,106.806"/>
	<path clip-path="url(#SVGID_5_)" fill="#000000" d="M200.112,95.419c0.267-0.069,0.521-0.13,0.766-0.182
		c0.243-0.053,0.509-0.078,0.799-0.078c1.113,0,1.86,0.619,2.243,1.859l3.667,11.75l3.407-8.378l-1.808-5.007
		c0.451-0.139,0.926-0.213,1.425-0.225c1.066,0,1.803,0.572,2.208,1.721l4.275,11.924l2.921-11.299
		c0.162-0.637,0.409-1.188,0.739-1.649c0.33-0.465,0.843-0.696,1.538-0.696c0.475,0,0.962,0.098,1.46,0.295l-5.093,16.688h-3.025
		l-3.355-8.639l-3.667,8.639h-2.693L200.112,95.419z"/>
	<path clip-path="url(#SVGID_5_)" fill="#000000" d="M224.141,107.469c0-1.239,0.314-2.257,0.947-3.051
		c0.631-0.796,1.407-1.422,2.328-1.878c0.922-0.456,1.912-0.766,2.974-0.93c1.06-0.164,2.024-0.258,2.894-0.281h0.747
		c0.29,0,0.539,0.012,0.748,0.035v-0.537c0-1.061-0.254-1.871-0.76-2.431s-1.479-0.839-2.916-0.839
		c-1.059,0-1.953,0.139-2.684,0.415s-1.436,0.646-2.113,1.107h-0.363c-0.184-0.313-0.342-0.647-0.474-1.001
		c-0.133-0.355-0.199-0.637-0.199-0.846c0-0.322,0.191-0.625,0.574-0.906s0.875-0.533,1.477-0.755
		c0.604-0.222,1.272-0.392,2.008-0.513c0.736-0.119,1.463-0.18,2.183-0.18c1.205,0,2.213,0.133,3.023,0.396
		c0.812,0.264,1.467,0.658,1.964,1.187c0.499,0.527,0.847,1.187,1.043,1.978c0.197,0.791,0.297,1.702,0.297,2.733v7.103
		c0,0.533,0.025,0.949,0.077,1.248c0.053,0.299,0.143,0.521,0.271,0.668c0.127,0.146,0.304,0.241,0.53,0.285
		c0.226,0.043,0.518,0.065,0.878,0.065v1.425c-0.209,0.069-0.471,0.127-0.783,0.174c-0.313,0.046-0.637,0.069-0.973,0.069
		c-0.748,0-1.4-0.14-1.957-0.418c-0.559-0.281-0.885-0.778-0.979-1.491c-0.591,0.561-1.304,1.037-2.138,1.428
		c-0.835,0.391-1.932,0.586-3.287,0.586c-0.615,0-1.237-0.068-1.869-0.203c-0.631-0.136-1.202-0.39-1.712-0.763
		c-0.51-0.372-0.93-0.87-1.26-1.491S224.141,108.44,224.141,107.469 M227.164,107.271c0,0.729,0.215,1.38,0.644,1.948
		s1.223,0.854,2.381,0.854c0.615,0,1.203-0.093,1.765-0.279c0.562-0.186,1.055-0.412,1.479-0.682c0.422-0.27,0.758-0.562,1.007-0.88
		s0.374-0.62,0.374-0.907v-3.754h-1.025c-0.765,0-1.539,0.049-2.32,0.145c-0.782,0.096-1.492,0.277-2.129,0.547
		c-0.639,0.27-1.159,0.641-1.565,1.113C227.367,105.85,227.164,106.481,227.164,107.271"/>
	<path clip-path="url(#SVGID_5_)" fill="#000000" d="M241.944,112.003v-16.81h0.244c0.069,0,0.139-0.005,0.208-0.018
		c0.069-0.011,0.128-0.017,0.174-0.017c0.545,0,1.037,0.123,1.479,0.37c0.439,0.247,0.706,0.665,0.799,1.255
		c0.336-0.459,0.837-0.891,1.504-1.296c0.666-0.405,1.439-0.608,2.32-0.608c0.267,0,0.544,0.021,0.835,0.064
		c0.289,0.043,0.563,0.115,0.825,0.217c0.261,0.103,0.475,0.239,0.643,0.41c0.168,0.172,0.252,0.402,0.252,0.691
		c0,0.363-0.095,0.752-0.286,1.164c-0.191,0.413-0.38,0.758-0.564,1.032c-0.313-0.294-0.646-0.519-1-0.671
		c-0.354-0.154-0.803-0.23-1.348-0.23c-0.405,0-0.794,0.064-1.164,0.194c-0.371,0.13-0.698,0.31-0.982,0.539
		c-0.284,0.23-0.507,0.489-0.669,0.778c-0.163,0.289-0.244,0.592-0.244,0.911v12.022H241.944z"/>
	<path clip-path="url(#SVGID_5_)" fill="#000000" d="M252.102,103.513c0-1.495,0.221-2.793,0.664-3.89
		c0.441-1.097,1.021-1.995,1.738-2.698c0.717-0.701,1.535-1.218,2.456-1.549c0.921-0.33,1.87-0.496,2.85-0.496
		c1.204,0,2.238,0.204,3.107,0.611c0.868,0.407,1.574,0.948,2.118,1.623c0.544,0.676,0.946,1.461,1.207,2.356
		c0.26,0.896,0.39,1.821,0.39,2.775c0,0.331-0.005,0.665-0.017,1.001c-0.011,0.338-0.041,0.654-0.087,0.951h-11.229
		c0.069,1.707,0.523,3.078,1.362,4.113c0.838,1.035,2.137,1.553,3.895,1.553c0.683,0,1.278-0.068,1.788-0.205
		c0.509-0.136,0.948-0.309,1.318-0.521c0.37-0.21,0.687-0.427,0.946-0.648s0.472-0.424,0.634-0.606
		c0.266,0.331,0.498,0.681,0.695,1.051c0.197,0.369,0.296,0.656,0.296,0.861c0,0.193-0.058,0.395-0.174,0.605
		c-0.115,0.211-0.318,0.431-0.608,0.659c-0.544,0.421-1.241,0.773-2.092,1.057c-0.852,0.282-1.884,0.425-3.099,0.425
		c-1.118,0-2.173-0.162-3.162-0.486c-0.991-0.324-1.856-0.84-2.596-1.546s-1.324-1.635-1.756-2.786
		C252.316,106.571,252.102,105.168,252.102,103.513 M255.299,101.955h8.31c0-0.615-0.067-1.187-0.2-1.712s-0.353-0.99-0.659-1.392
		c-0.306-0.404-0.714-0.721-1.222-0.95c-0.51-0.229-1.134-0.344-1.874-0.344c-1.226,0-2.235,0.389-3.027,1.166
		C255.834,99.502,255.392,100.579,255.299,101.955"/>
</g>
</svg>
