<?xml version="1.0" encoding="utf-8"?>
<!-- Generator: Adobe Illustrator 23.0.6, SVG Export Plug-In . SVG Version: 6.00 Build 0)  -->
<svg version="1.1" id="Layer_1" xmlns="http://www.w3.org/2000/svg" xmlns:xlink="http://www.w3.org/1999/xlink" x="0px" y="0px"
	 viewBox="0 0 1920 361" style="enable-background:new 0 0 1920 361;" xml:space="preserve">
<style type="text/css">
	.st0{fill:#000000;}
	.st1{fill:#000000;}
</style>
<path class="st0" d="M180.1,0.2C80.7,0.2-0.2,81.1-0.2,180.6S80.7,361,180.1,361s180.4-80.9,180.4-180.4S279.6,0.2,180.1,0.2z
	 M142.6,253.3c23.2,12,52,12,75.2,0l35.7,35.7c-21.7,14.7-46.9,22.5-73.2,22.5s-51.6-7.8-73.2-22.5L142.6,253.3z M262,180.6
	c0-45.1-36.7-81.8-81.8-81.8s-81.8,36.7-81.8,81.8c0,13.1,3.2,26,9.2,37.6l-35.7,35.7c-14.7-21.7-22.5-46.9-22.5-73.2
	c0-72.1,58.7-130.8,130.8-130.8c72.1,0,130.8,58.7,130.8,130.8c0,26.3-7.8,51.6-22.5,73.2l-35.7-35.7
	C258.8,206.6,262,193.7,262,180.6z"/>
<g>
	<path class="st1" d="M615.4,66H446.8c-1.2,0-2.1,1-2.1,2.1v42.2c0,1.2,1,2.1,2.1,2.1h57.5v177.4c0,1.2,1,2.1,2.1,2.1h49.3
		c1.2,0,2.1-1,2.1-2.1V112.4h57.5c1.2,0,2.1-1,2.1-2.1V68.1C617.5,66.9,616.5,66,615.4,66z"/>
	<path class="st1" d="M743,114.9c-11.7,0-21.9,2.6-30.4,7.6c-5.8,3.4-11.2,7.1-16.1,11.1V67.3c0-1.2-1-2.1-2.1-2.1h-49
		c-1.2,0-2.1,1-2.1,2.1v222.5c0,1.2,1,2.1,2.1,2.1h49c1.2,0,2.1-1,2.1-2.1v-113c5-4.8,9.6-8.5,13.7-11.2c4.1-2.6,9.1-3.9,14.8-3.9
		c6.4,0,10.9,1.9,13.7,5.9c2.9,4.2,4.4,12.2,4.4,23.9v98.3c0,1.2,1,2.1,2.1,2.1h49c1.2,0,2.1-1,2.1-2.1V185.1
		c0-21.6-4.2-38.9-12.5-51.2C775.4,121.3,761.6,114.9,743,114.9z"/>
	<path class="st1" d="M958.4,138.9C958.4,138.9,958.4,138.9,958.4,138.9c-6.1-7.5-13.7-13.4-22.8-17.6c-9-4.2-19.7-6.3-31.7-6.3
		c-10.2,0-20.3,2.1-29.8,6.3c-9.6,4.2-18.1,10.2-25.5,18c-7.4,7.8-13.4,17.4-17.9,28.5c-4.5,11.2-6.8,23.9-6.8,37.7
		c0,14.3,2.2,27.1,6.5,38.2c4.3,11.1,10.4,20.7,18.1,28.4c7.7,7.8,16.9,13.8,27.4,17.8c10.4,4,21.8,6.1,33.8,6.1
		c10.2,0,20.7-1.8,31.2-5.2c10.5-3.5,20.1-8.2,28.7-14.2c0.9-0.6,1.2-1.8,0.7-2.8l-16.3-30.3c-0.3-0.5-0.8-0.9-1.3-1.1
		c-0.6-0.2-1.2-0.1-1.7,0.3c-11.6,7.2-23.2,10.9-34.5,10.9c-10.6,0-19.6-2.8-26.9-8.2c-6.7-5-11.2-12.8-13.5-23.2h96.3
		c1,0,1.9-0.7,2.1-1.7c0.5-2.1,0.9-5.2,1.4-9.4c0.4-4.1,0.7-8.6,0.7-13.2c0-11.7-1.5-22.7-4.4-32.7
		C969,155.2,964.4,146.3,958.4,138.9z M875.5,185c1.8-9.1,5.3-15.9,10.3-20.4c5.5-4.9,11.8-7.3,19.1-7.3c9.3,0,15.8,2.6,19.6,7.9
		c3.6,5.1,5.6,11.7,5.9,19.7H875.5z"/>
	<path class="st1" d="M1202,66h-136.9c-1.2,0-2.1,1-2.1,2.1v221.7c0,1.2,1,2.1,2.1,2.1h49c1.2,0,2.1-1,2.1-2.1v-83.9h73.2
		c1.2,0,2.1-1,2.1-2.1v-42.2c0-1.2-1-2.1-2.1-2.1h-73.2v-47.1h85.8c1.2,0,2.1-1,2.1-2.1V68.1C1204.2,66.9,1203.2,66,1202,66z"/>
	<path class="st1" d="M1454.7,138.7c-7.6-7.6-16.5-13.6-26.4-17.6c-19.8-8.1-42.1-8.1-62.1,0c-10,4.1-18.9,10-26.5,17.6
		c-7.6,7.6-13.8,17.2-18.3,28.4c-4.5,11.2-6.8,24.1-6.8,38.4c0,14.3,2.3,27.2,6.8,38.4c4.5,11.2,10.7,20.8,18.3,28.4
		c7.6,7.7,16.5,13.6,26.5,17.6c10,4.1,20.5,6.1,31.1,6.1c10.7,0,21.1-2.1,31-6.1c9.9-4,18.7-10,26.4-17.6
		c7.6-7.7,13.8-17.2,18.3-28.4c4.5-11.2,6.8-24.1,6.8-38.4c0-14.3-2.3-27.2-6.8-38.4C1468.4,155.9,1462.3,146.3,1454.7,138.7z
		 M1418.2,239.4c-4.7,8-11.5,11.9-20.8,11.9c-9.5,0-16.3-3.9-21-11.9c-4.8-8.2-7.2-19.7-7.2-33.9c0-14.3,2.4-25.7,7.2-33.9
		c4.6-8,11.5-11.9,21-11.9c9.3,0,16.1,3.9,20.8,11.9c4.9,8.2,7.4,19.7,7.4,33.9C1425.5,219.8,1423,231.2,1418.2,239.4z"/>
	<path class="st1" d="M1639.6,138.7c-7.6-7.6-16.5-13.6-26.4-17.6c-19.8-8.1-42.1-8.1-62.1,0c-10,4.1-18.9,10-26.5,17.6
		c-7.6,7.6-13.8,17.2-18.3,28.4c-4.5,11.2-6.8,24.1-6.8,38.4c0,14.3,2.3,27.2,6.8,38.4c4.5,11.2,10.7,20.8,18.3,28.4
		c7.6,7.7,16.5,13.6,26.5,17.6c10,4.1,20.5,6.1,31.1,6.1c10.7,0,21.1-2.1,31-6.1c9.9-4,18.7-10,26.4-17.6
		c7.6-7.7,13.8-17.2,18.3-28.4c4.5-11.2,6.8-24.1,6.8-38.4c0-14.3-2.3-27.2-6.8-38.4C1653.3,155.9,1647.2,146.3,1639.6,138.7z
		 M1603.1,239.4c-4.7,8-11.5,11.9-20.8,11.9c-9.5,0-16.3-3.9-21-11.9c-4.8-8.2-7.2-19.7-7.2-33.9c0-14.3,2.4-25.7,7.2-33.9
		c4.6-8,11.5-11.9,21-11.9c9.3,0,16.1,3.9,20.8,11.9c4.9,8.2,7.4,19.7,7.4,33.9C1610.4,219.8,1608,231.2,1603.1,239.4z"/>
	<path class="st1" d="M1919.5,119.8c-0.4-0.5-1-0.8-1.7-0.8h-45.3c-1,0-1.9,0.7-2.1,1.7l-15.7,78.2c-1.6,8.4-2.8,16.8-3.9,24.9
		c-0.5,3.7-1,7.5-1.6,11.6L1820,120.6c-0.2-0.9-1.1-1.6-2.1-1.6h-36.8c-1,0-1.8,0.7-2.1,1.6c-1.1,4.3-24.2,93.2-30.9,120.8
		c-0.9-6-1.7-11.8-2.5-17.5c-1.1-8.2-2.3-16.5-3.7-25l-16-78.2c-0.2-1-1.1-1.7-2.1-1.7h-48.6c-0.7,0-1.3,0.3-1.7,0.8
		c-0.4,0.5-0.6,1.2-0.4,1.8l41.3,168.6c0.2,1,1.1,1.6,2.1,1.6h61.1c1,0,1.8-0.7,2.1-1.6l19.8-75.2l16.5,62.8l2.7,12.3
		c0.2,1,1.1,1.7,2.1,1.7h57.3c1,0,1.9-0.7,2.1-1.7l39.6-168.6C1920.1,121,1919.9,120.4,1919.5,119.8z"/>
	<path class="st1" d="M1284.6,65.2h-49c-1.2,0-2.1,1-2.1,2.1v222.5c0,1.2,1,2.1,2.1,2.1h49c1.2,0,2.1-1,2.1-2.1V67.3
		C1286.8,66.1,1285.8,65.2,1284.6,65.2z"/>
</g>
</svg>
