<?xml version="1.0" encoding="utf-8"?>
<!-- Generator: Adobe Illustrator 16.0.0, SVG Export Plug-In . SVG Version: 6.00 Build 0)  -->
<!DOCTYPE svg PUBLIC "-//W3C//DTD SVG 1.1//EN" "http://www.w3.org/Graphics/SVG/1.1/DTD/svg11.dtd">
<svg version="1.1" id="Layer_1" xmlns="http://www.w3.org/2000/svg" xmlns:xlink="http://www.w3.org/1999/xlink" x="0px" y="0px"
	 width="640px" height="360px" viewBox="0 0 640 360" enable-background="new 0 0 640 360" xml:space="preserve">
<g id="g3884" transform="matrix(0.90037109,0,0,0.90037109,64.260934,-297.86844)">
	<path d="M100.521,601.813c-1.015,0-2.04-0.265-2.975-0.831c-2.739-1.642-3.623-5.198-1.977-7.939l62.715-104.341
		c1.646-2.737,5.201-3.623,7.938-1.979c2.74,1.645,3.626,5.205,1.978,7.942l-62.713,104.342
		C104.4,600.81,102.486,601.813,100.521,601.813z"/>
	<path d="M133.165,605.604c-9.22,0-19.497-4.215-27.497-11.28c-9.095-8.026-14.104-18.58-14.104-29.693
		c0-3.204,2.591-5.79,5.786-5.79c3.193,0,5.788,2.586,5.788,5.79c0,17.673,18.074,29.406,30.028,29.406
		c8.265,0,17.471-7.365,17.471-17.935l0.008-0.319c0.008-0.104,0.492-12.794-7.476-18.807l-13.788-10.573h17.274
		c17.604,0,44.757-18.049,44.757-42.263c0-18.114-14.014-36.758-37.469-36.758c-12.628,0-24.437,4.898-33.249,13.724
		c-9.02,9.034-13.989,21.47-13.989,34.975c0,3.194-2.59,5.795-5.785,5.795c-3.198,0-5.789-2.588-5.789-5.783
		c0-33.76,25.835-60.205,58.813-60.205c14.191,0,27.039,5.521,36.174,15.531c8.175,8.965,12.868,20.953,12.868,32.896
		c0,14.497-7.034,28.395-19.806,39.139c-7.593,6.388-16.695,11.091-25.45,13.358c4.679,8.577,4.538,17.911,4.482,19.421
		C162.132,593.81,147.156,605.604,133.165,605.604z"/>
	<path d="M188.016,599.101c-0.175,0-0.351,0-0.529-0.006c-6.36-0.028-10.219-2.952-12.338-5.41
		c-3.622-4.197-4.698-10.026-4.17-14.035c1.009-11.716,7.588-20.397,13.948-28.788c0.535-0.705,1.069-1.41,1.595-2.113
		c1.921-2.555,5.546-3.067,8.103-1.15c2.556,1.918,3.07,5.547,1.151,8.102c-0.539,0.718-1.086,1.432-1.628,2.152
		c-5.638,7.441-10.966,14.467-11.651,22.903c-0.01,0.128-0.024,0.254-0.041,0.38c-0.148,0.981,0.13,3.458,1.452,4.985
		c0.52,0.605,1.462,1.403,3.679,1.403c0.064,0,0.13,0,0.195,0.004c0.073,0.004,0.146,0.004,0.219,0.004
		c8.944,0,18.864-18.317,24.81-29.298c1.513-2.792,2.938-5.427,4.227-7.582c1.636-2.744,5.19-3.642,7.932-2
		c2.746,1.638,3.64,5.191,2.001,7.931c-1.161,1.946-2.532,4.482-3.984,7.161C214.891,578.699,203.837,599.101,188.016,599.101z"/>
	<path d="M214.096,598.941c-5.591,0-10.335-2.807-12.692-7.506c-2.742-5.477-1.7-12.334,2.791-18.341
		c1.915-2.564,5.541-3.08,8.102-1.169c2.558,1.911,3.08,5.534,1.169,8.098c-2.138,2.857-2.259,5.139-1.714,6.228
		c0.37,0.746,1.161,1.119,2.344,1.119c0.643,0,4.267-0.538,12.254-11.148c5.888-7.831,12.336-18.656,18.572-29.12
		c6.498-10.914,13.214-22.187,19.601-30.617c1.931-2.552,5.559-3.049,8.104-1.12c2.55,1.927,3.049,5.555,1.12,8.105
		c-5.999,7.918-12.548,18.916-18.884,29.55C237.845,581.593,226.608,598.941,214.096,598.941z"/>
	<path d="M286.009,599.884l-0.355-0.022c-9.55-0.631-14.371-3.77-16.823-7.49c-7.23,4.458-13.609,6.36-19.087,6.36
		c-0.012,0-0.025,0-0.039,0c-6.993,0-12.625-3.132-15.881-8.612c-4.156-7.002-3.793-17.799,0.884-26.165
		c1.56-2.787,5.083-3.816,7.873-2.258c2.787,1.56,3.784,5.07,2.226,7.861c-2.629,4.701-3.085,11.083-1.035,14.532
		c0.731,1.232,2.141,2.855,6.074,2.818l0.236-0.002l0.234,0.017c3.347,0.226,8.673-1.699,15.804-6.718l-0.037-0.417l0.179-0.848
		c3.266-15.462,12.597-35.022,25.6-53.672c5.305-7.608,10.949-14.603,15.89-19.704c7.827-8.082,11.762-9.322,14.314-9.499
		l0.274-0.014c3.907-0.084,7.041,0.996,9.333,3.219c3.459,3.352,3.543,8.101,3.56,9.745c0.128,5.278-4.886,15.211-14.904,29.521
		c-9.592,13.712-21.254,27.543-31.995,37.957c-3.481,3.371-6.828,6.36-10.042,8.963c0.078,0.171,0.165,0.321,0.265,0.46
		c0.443,0.577,2.048,1.957,7.497,2.371c13.078-0.957,28.035-14.36,42.157-37.808c1.653-2.735,5.206-3.618,7.94-1.967
		c2.74,1.644,3.62,5.202,1.972,7.939c-11.518,19.12-29.847,42.172-51.761,43.411L286.009,599.884z M323.104,507.63
		c-2.756,1.247-11.802,9.688-22.828,25.821c-7.581,11.098-13.744,22.411-17.896,32.693c3.733-3.744,7.738-8.072,11.994-13.035
		c7.729-9.013,15.196-18.849,20.914-27.699c7.617-11.781,8.495-15.77,8.495-16.175v-0.062c0-0.77-0.126-1.233-0.18-1.503
		C323.487,507.652,323.284,507.637,323.104,507.63z"/>
	<path d="M272.413,543.998h-28.585c-3.224,0-5.833-2.492-5.833-5.716s2.612-5.712,5.833-5.712h28.585
		c3.225,0,5.833,2.488,5.833,5.712S275.638,543.998,272.413,543.998z"/>
	<path id="path3876" d="M349.631,533.373c0,3.332-2.703,6.037-6.039,6.037c-3.329,0-6.033-2.705-6.033-6.037
		c0-3.332,2.704-6.035,6.033-6.035C346.928,527.338,349.631,530.041,349.631,533.373L349.631,533.373z"/>
	<path d="M430.764,600.147c-4.44,0-8.387-1.61-11.416-4.651c-0.911-0.913-1.73-1.957-2.445-3.098
		c-4.909,4.382-11.131,7.753-16.319,7.753c-4.124,0-7.82-1.642-10.419-4.62c-2.269-2.597-3.518-5.989-3.518-9.547
		c0-5.384,3.088-9.328,5.809-12.805c2.336-2.98,4.354-5.558,4.354-8.61c0-1.065-0.507-2.627-1.644-3.735
		c-1.2-1.165-2.988-1.722-5.284-1.653c-0.054,0-0.108,0-0.163,0c-9.894,0-17.979,15.003-24.473,27.053
		c-2.089,3.879-4.062,7.54-6.035,10.623c-1.72,2.698-5.295,3.484-7.991,1.766c-2.694-1.731-3.482-5.302-1.759-7.994
		c1.741-2.727,3.616-6.204,5.599-9.885c7.944-14.734,17.828-33.074,34.578-33.133c6.849-0.178,11.182,2.586,13.595,4.926
		c3.227,3.137,5.15,7.636,5.15,12.033c0,7.041-3.777,11.866-6.814,15.744c-1.72,2.2-3.345,4.28-3.345,5.67
		c0,0.61,0.168,2.594,2.36,2.594c3.254,0,11.725-6.332,13.252-10.597c0.95-2.653,3.673-4.239,6.449-3.746
		c2.778,0.488,4.795,2.907,4.781,5.727c-0.011,2.412,0.754,5.631,2.486,7.375c0.855,0.857,1.846,1.241,3.214,1.241
		c5.905,0,8.103-3.972,8.103-6.475c0-3.317-1.367-5.161-4.206-8.675c-3.465-4.286-8.208-10.163-8.208-20.964
		c-0.036-6.746,2.431-12.979,6.947-17.517c4.719-4.746,11.309-7.362,18.549-7.362c14.767,0,24.562,14.696,24.562,24.414
		c0,9.009-6.542,18.582-18.669,18.582c-10.29,0-15.308-8.588-16.526-13.133l11.176-2.989l-0.017-0.072
		c0.228,0.77,1.563,4.625,5.368,4.625c4.875,0,7.097-3.633,7.097-7.013c0-1.852-1.197-5.2-3.825-8.172
		c-1.545-1.744-4.782-4.666-9.165-4.666c-4.14,0-7.812,1.401-10.344,3.944c-2.36,2.373-3.601,5.599-3.581,9.319
		c0,6.751,2.489,9.829,5.638,13.727c3.021,3.74,6.777,8.395,6.777,15.95C450.438,590.971,443.082,600.147,430.764,600.147z"/>
	<path id="path3880" d="M412.802,536.588c1.805-3.464,1.624-5.2,0.564-7.992c-2.625-6.9-0.67-11.494,5.227-11.494
		c4.168,0,5.958,2.7,5.958,7.179c0,6.957-5.844,15.337-9.592,15.337c-1.181,0-2.757-1.332-2.158-3.031l0,0H412.802z"/>
	<path d="M321.448,599.405c-5.788,0-10.751-3.174-12.959-8.282c-2.766-6.41-0.729-14.152,5.453-20.714
		c2.195-2.321,5.856-2.432,8.179-0.239c2.326,2.193,2.435,5.855,0.242,8.178c-3.434,3.644-3.896,6.69-3.247,8.187
		c0.371,0.857,1.154,1.299,2.332,1.299c6.871,0,16.686-14.406,19.909-19.141c0.874-1.284,1.723-2.56,2.555-3.811
		c6.258-9.406,11.666-17.523,20.009-17.523c5.612,0,10.276,2.902,12.483,7.766c2.433,5.356,1.272,11.937-2.951,16.768
		c-2.102,2.406-5.759,2.646-8.165,0.544c-2.402-2.102-2.644-5.762-0.542-8.161c1.41-1.62,1.581-3.362,1.123-4.373
		c-0.131-0.293-0.446-0.978-1.947-0.978c-0.009,0-0.978,0.035-3.254,2.544c-2.184,2.41-4.584,6.011-7.124,9.827
		c-0.853,1.284-1.727,2.59-2.623,3.911C342.36,587.771,332.863,599.405,321.448,599.405z"/>
</g>
</svg>
