<?xml version="1.0" encoding="utf-8"?>
<!-- Generator: Adobe Illustrator 16.0.0, SVG Export Plug-In . SVG Version: 6.00 Build 0)  -->
<!DOCTYPE svg PUBLIC "-//W3C//DTD SVG 1.1//EN" "http://www.w3.org/Graphics/SVG/1.1/DTD/svg11.dtd">
<svg version="1.1" id="Layer_1" xmlns="http://www.w3.org/2000/svg" xmlns:xlink="http://www.w3.org/1999/xlink" x="0px" y="0px"
	 width="640px" height="360px" viewBox="0 0 640 360" enable-background="new 0 0 640 360" xml:space="preserve">
<g id="layer1_1_" transform="translate(1.3477397,81.767699)">
	<path id="path31" d="M162.047,141.07V54.024c1.771,0,3.292,1.195,5.386,3.427l33.512,33.51l33.403-33.51
		c1.843-1.914,3.559-3.427,5.516-3.427v87.046h-18.111V99.521l-20.92,20.798l-20.688-20.815l0.01,41.569h-18.107V141.07z"/>
	<path id="path41" d="M287.093,54.024c-1.848,0-2.316,1.312-3.711,4.386l-35.861,82.66h19.321l3.868-9.783h29.256l3.865,9.783h22.7
		L290.72,58.41C289.295,55.292,288.526,54.024,287.093,54.024L287.093,54.024z M285.339,95.469l8.413,20.646h-16.829L285.339,95.469
		z"/>
	<path id="path45" d="M333.823,54.942v86.128h20.557v-32.298h5.322c8.656,0,12.174,2.991,15.154,10.956
		c3.559,9.417,4.821,15.959,5.882,21.342h23.219l-7.075-20.525c-2.832-8.314-6.498-14.892-13.207-19.371
		c5.47-2.293,11.775-10.097,11.775-20.706c0-16.664-13.118-25.525-29.877-25.525H333.823L333.823,54.942z M354.38,70.112h6.302
		c9.606,0,13.938,4.492,13.938,11.639c0,7.04-4.919,11.361-12.476,11.361h-7.765V70.112L354.38,70.112z"/>
	<path id="path49" d="M440.781,126.935c8.638,0,12.106-4.723,12.106-8.824c0-15.223-41.77-8.17-41.77-38.263
		c0-9.382,7.891-26.55,31.611-26.55c14.154,0,24.66,7.06,29.166,11.81l-11.865,12.45c-4.404-4.53-10.074-8.394-18.354-8.394
		c-6.062,0-9.57,2.919-9.57,7.974c0,13.967,43.152,8.621,43.152,38.338c0,13.239-9.516,27.689-33.759,27.689
		c-16.906,0-27.179-6.978-32.993-14.014l11.954-12.603C424.938,121.869,430.397,126.935,440.781,126.935L440.781,126.935z"/>
</g>
</svg>
