<?xml version="1.0" encoding="utf-8"?>
<!-- Generator: Adobe Illustrator 16.0.0, SVG Export Plug-In . SVG Version: 6.00 Build 0)  -->
<!DOCTYPE svg PUBLIC "-//W3C//DTD SVG 1.1//EN" "http://www.w3.org/Graphics/SVG/1.1/DTD/svg11.dtd">
<svg version="1.1" id="Layer_1" xmlns="http://www.w3.org/2000/svg" xmlns:xlink="http://www.w3.org/1999/xlink" x="0px" y="0px"
	 width="640px" height="360px" viewBox="0 0 640 360" enable-background="new 0 0 640 360" xml:space="preserve">
<path d="M171.977,120.088v119.824h296.047V120.088H171.977z M238.507,228.109l-20.189-66.741h-0.27l-13.391,66.741h-24.323
	l20.579-96.456h32.204l19.74,66.891h0.3l13.539-66.891h24.324l-20.46,96.456H238.507z M336.733,228.107l8.566-41.309h-30.405
	l-8.568,41.309h-25.822l20.011-96.455h25.852l-7.608,36.905h30.555l7.608-36.905h25.852l-20.043,96.455H336.733z M450.742,153.49
	c-6.625-3.053-13.857-4.565-21.148-4.434c-10.217,0-18.514,1.529-18.514,9.257c0,13.688,37.443,8.566,37.443,37.863
	c0,26.658-24.742,33.58-47.119,33.58c-10.169-0.236-20.255-1.912-29.955-4.973l5.99-19.619c5.122,3.324,15.338,5.541,23.756,5.541
	c8.416,0,20.578-1.525,20.578-11.473c0-15.486-37.443-9.676-37.443-36.904c0-24.864,21.837-32.353,42.985-32.353
	c11.985,0,23.065,1.258,29.566,4.282L450.742,153.49z"/>
</svg>
