<?xml version="1.0" encoding="utf-8"?>
<!-- Generator: Adobe Illustrator 16.0.0, SVG Export Plug-In . SVG Version: 6.00 Build 0)  -->
<!DOCTYPE svg PUBLIC "-//W3C//DTD SVG 1.1//EN" "http://www.w3.org/Graphics/SVG/1.1/DTD/svg11.dtd">
<svg version="1.1" id="Layer_1" xmlns="http://www.w3.org/2000/svg" xmlns:xlink="http://www.w3.org/1999/xlink" x="0px" y="0px"
	 width="640px" height="360px" viewBox="0 0 640 360" enable-background="new 0 0 640 360" xml:space="preserve">
<g id="layer1" transform="translate(-49.137935,-443.8405)">
	<path id="path70" d="M282.968,578.907c-16.616,0-29.013,8.977-29.013,26.96c0,26.959,41.816,22.563,41.816,38.235
		c0,4.139-3.087,11.207-12.779,11.207c-6.911,0-14.828-3.314-21.274-8.855l-8.446,12.51c9.513,7.059,19.323,9.789,27.894,9.789
		c16.623,0,31.406-9.273,31.406-27.254c0-29.331-42.408-21.688-42.408-39.671c0-4.136,2.964-9.496,11.002-9.496
		c6.905,0,14.803,3.312,21.252,8.854l8.47-12.507C301.371,581.616,291.54,578.907,282.968,578.907z M363.772,578.907
		c-22.949,0-42.614,14.966-42.614,44.921c0,29.963,19.665,44.946,42.614,44.946c8.575,0,20.007-2.73,29.517-9.793l-8.473-12.508
		c-6.449,5.545-14.135,8.625-21.044,8.625c-14.773,0-25.063-12.941-25.063-31.27c0-18.33,10.29-31.247,25.063-31.247
		c6.899,0,14.598,3.056,21.044,8.603l8.473-12.487C383.779,581.644,372.347,578.907,363.772,578.907z M118.027,581.508v13.338
		h22.755v71.413h17.264v-71.413h22.76v-13.338H118.027z M205.794,581.508l-35.564,84.75h16.937l6.709-16.48h32.257l6.71,16.48
		h18.742l-35.589-84.75H205.794z M402.094,581.508v84.75h18.05v-36.1h33.742v36.1h17.264v-84.75h-17.264v36.095h-33.742v-36.095
		H402.094z M488.416,581.508v84.75h52.576v-13.344h-35.314v-22.756h27.468v-12.556h-27.468v-22.757h35.314v-13.338H488.416
		L488.416,581.508z M554.334,581.508v84.75h15.692v-51.487l40.589,51.487h9.634v-84.75h-14.911v50.627l-40.646-50.627H554.334
		L554.334,581.508z M209.991,608.974l10.82,27.464h-21.618L209.991,608.974L209.991,608.974z"/>
</g>
</svg>
