<?xml version="1.0" encoding="utf-8"?>
<!-- Generator: Adobe Illustrator 16.0.0, SVG Export Plug-In . SVG Version: 6.00 Build 0)  -->
<!DOCTYPE svg PUBLIC "-//W3C//DTD SVG 1.1//EN" "http://www.w3.org/Graphics/SVG/1.1/DTD/svg11.dtd">
<svg version="1.1" id="Layer_1" xmlns="http://www.w3.org/2000/svg" xmlns:xlink="http://www.w3.org/1999/xlink" x="0px" y="0px"
	 width="640px" height="360px" viewBox="0 0 640 360" enable-background="new 0 0 640 360" xml:space="preserve">
<g>
	<path d="M162.345,125.754c-10.761,2.539-19.317,12.629-19.317,23.938c0,0.354,0.086,0.88,0.086,0.88
		c18.219,4.552,26.538,15.588,26.625,30.835c0,15.234-11.999,31.875-32.319,31.875c-16.468,0.176-33.635-14.008-33.721-36.437
		c0-15.062,8.057-29.428,18.305-37.835c10.071-8.408,23.824-13.665,36.26-13.665c1.249,0,2.589,0.008,3.581,0.182
		c-7.596-3.481-16.042-5.438-24.951-5.438c-33.109,0-59.908,26.8-59.908,59.912c0,32.933,26.799,59.908,59.908,59.908
		c33.11,0,59.911-26.975,59.911-59.908C196.806,155.999,182.711,135.319,162.345,125.754z"/>
	<path id="path2339-2" d="M235.52,204.875l-18.305-43.792h12.001l11.384,29.082l11.123-29.082h11.389l-17.782,43.792H235.52z"/>
	<path id="path2341-0" d="M294.993,182.807c0-1.928-0.176-3.683-0.615-5.255c-0.439-1.756-1.05-3.158-1.924-4.209
		c-0.789-1.225-1.839-2.1-3.068-2.799c-1.226-0.699-2.627-1.054-4.29-1.054c-1.579,0-3.069,0.354-4.207,1.054
		c-1.227,0.7-2.277,1.574-3.066,2.799c-0.878,1.051-1.49,2.453-1.927,4.209c-0.439,1.576-0.612,3.328-0.612,5.255
		c0,1.746,0.173,3.5,0.612,5.078c0.438,1.574,1.051,2.975,1.839,4.379c0.786,1.049,1.837,2.102,3.064,2.801
		c1.227,0.699,2.716,1.053,4.295,1.053c1.662,0,3.063-0.354,4.29-1.053c1.227-0.699,2.278-1.752,3.069-2.801
		c0.876-1.404,1.488-2.803,1.924-4.379C294.817,186.307,294.993,184.553,294.993,182.807 M306.117,182.807
		c0,2.799-0.44,5.602-1.312,8.406c-0.877,2.627-2.189,5.078-3.941,7.355c-1.753,2.102-3.854,3.855-6.571,5.258
		c-2.628,1.402-5.691,1.92-9.195,1.92c-3.505,0-6.571-0.525-9.2-1.92c-2.628-1.402-4.817-3.156-6.482-5.258
		c-1.75-2.277-3.065-4.73-3.941-7.355c-0.876-2.805-1.312-5.607-1.312-8.406c0-2.804,0.438-5.611,1.312-8.414
		c0.879-2.8,2.192-5.252,3.941-7.354c1.665-2.104,3.854-3.854,6.482-5.081c2.629-1.225,5.694-1.926,9.2-1.926
		c3.502,0,6.567,0.699,9.195,1.924c2.628,1.227,4.818,2.975,6.571,5.078c1.751,2.105,3.064,4.557,3.941,7.358
		C305.677,177.198,306.117,180.002,306.117,182.807"/>
	<path id="path2343-6" d="M339.839,170.715c-2.102-0.876-4.116-1.226-6.043-1.226c-1.928,0-3.591,0.354-4.907,1.054
		c-1.399,0.7-2.541,1.75-3.415,2.799c-0.965,1.404-1.577,2.805-2.103,4.209c-0.442,1.751-0.612,3.154-0.612,4.902
		c0,1.756,0.17,3.504,0.523,5.256c0.439,1.582,1.051,3.156,1.842,4.203c0.783,1.406,1.837,2.453,3.063,3.156
		c1.227,0.699,2.716,1.051,4.38,1.051c1.4,0,2.803-0.352,4.204-1.051c1.491-0.703,2.543-1.754,3.069-2.803v-21.55H339.839z
		 M340.799,204.875l-0.438-3.498c-1.051,1.223-2.451,2.1-4.115,3.148c-1.662,0.703-3.678,1.23-5.953,1.23
		c-2.979,0-5.693-0.527-7.971-1.928c-2.276-1.223-4.207-2.805-5.782-5.078c-1.574-2.104-2.713-4.557-3.59-7.357
		c-0.786-2.631-1.226-5.607-1.226-8.584c0-2.802,0.439-5.603,1.312-8.411c0.79-2.8,2.104-5.25,3.854-7.354
		c1.666-2.104,3.854-3.854,6.396-5.08c2.625-1.231,5.688-1.931,9.194-1.931c2.275,0,4.73,0.351,7.354,1.226v-16.994h11.3v60.611
		H340.799L340.799,204.875L340.799,204.875z"/>
	<path id="path2345-7" d="M382.759,184.205c-1.23,0.172-2.455,0.348-3.682,0.348c-1.312,0.176-2.543,0.354-3.682,0.705
		c-2.452,0.348-4.115,1.223-5.08,2.449c-0.963,1.053-1.404,2.449-1.404,3.854c0,1.408,0.527,2.629,1.58,3.504
		c1.051,0.873,2.539,1.227,4.554,1.227c1.401,0,2.891-0.174,4.204-0.877c1.403-0.701,2.543-1.404,3.502-2.281v-8.928H382.759z
		 M383.722,204.701l-0.439-3.332c-1.227,1.406-2.803,2.457-4.643,3.156c-1.927,0.877-3.941,1.221-6.217,1.221
		c-1.926,0-3.68-0.346-5.432-0.871c-1.75-0.701-3.24-1.58-4.553-2.805c-1.402-1.049-2.451-2.629-3.242-4.377
		c-0.877-1.578-1.225-3.678-1.225-5.781c0-2.102,0.351-4.205,1.225-5.777c0.877-1.582,2.018-2.977,3.504-4.207
		c1.398-1.229,3.066-2.104,4.992-2.802c1.838-0.699,3.853-1.226,5.871-1.576c1.486-0.354,3.063-0.703,4.815-0.703
		c1.751-0.171,3.151-0.348,4.294-0.348v-0.703c0-2.453-0.615-4.204-1.841-5.252c-1.224-1.054-2.98-1.402-5.169-1.402
		c-1.224,0-2.449,0-3.59,0.349c-1.225,0.354-2.188,0.701-3.153,1.054c-0.877,0.525-1.661,1.053-2.452,1.4
		c-0.612,0.524-1.223,0.879-1.662,1.228l-3.678-7.882c0.436-0.354,1.227-0.879,2.188-1.403c1.051-0.701,2.188-1.403,3.678-1.928
		c1.405-0.523,2.981-1.054,4.731-1.401c1.832-0.524,3.761-0.524,5.776-0.524c2.452,0,4.642,0.351,6.655,0.872
		c2.02,0.527,3.682,1.58,5.168,2.981c1.488,1.401,2.541,3.153,3.418,5.255c0.785,2.103,1.225,4.553,1.225,7.534v28.026H383.722
		L383.722,204.701z"/>
	<path id="path2347-3" d="M428.654,154.25c-0.354-0.175-1.052-0.525-2.105-0.878c-1.054-0.351-2.452-0.351-4.203-0.351
		c-1.578,0-2.89,0.351-3.942,1.401c-1.048,0.878-1.575,2.45-1.575,4.556v2.101h9.37v9.111h-9.284v34.684h-11.3v-34.684h-5.777
		v-9.108h5.777v-2.451c0-2.805,0.438-5.254,1.141-7.181c0.699-1.927,1.751-3.503,3.067-4.731c1.222-1.403,2.802-2.104,4.554-2.802
		c1.749-0.526,3.677-0.702,5.693-0.702c2.711,0,5.08,0.173,6.828,0.702c1.754,0.352,2.803,0.698,3.156,1.05L428.654,154.25z"/>
	<path id="path2349-9" d="M459.483,182.807c0-1.928-0.353-3.683-0.702-5.255c-0.352-1.756-1.053-3.158-1.925-4.209
		c-0.879-1.225-1.927-2.1-3.154-2.799c-1.223-0.699-2.629-1.054-4.203-1.054c-1.58,0-2.979,0.354-4.378,1.054
		c-1.056,0.7-2.106,1.574-2.979,2.799c-0.88,1.051-1.58,2.453-1.928,4.209c-0.349,1.576-0.699,3.328-0.699,5.255
		c0,1.746,0.353,3.5,0.699,5.078c0.354,1.574,1.05,2.975,1.753,4.379c1.052,1.049,1.925,2.102,3.154,2.801
		c1.402,0.699,2.802,1.053,4.378,1.053c1.58,0,2.98-0.354,4.207-1.053c1.224-0.699,2.278-1.752,3.152-2.801
		c0.875-1.404,1.577-2.803,1.923-4.379C459.132,186.307,459.483,184.553,459.483,182.807 M470.343,182.807
		c0,2.799-0.347,5.602-1.225,8.406c-0.877,2.627-2.275,5.078-4.027,7.355c-1.578,2.102-3.855,3.855-6.31,5.258
		c-2.797,1.402-5.777,1.92-9.282,1.92c-3.506,0-6.483-0.525-9.286-1.92c-2.45-1.404-4.731-3.156-6.481-5.258
		c-1.751-2.277-2.978-4.73-3.852-7.355c-0.877-2.805-1.226-5.607-1.226-8.406c0-2.804,0.349-5.611,1.226-8.414
		c0.874-2.8,2.102-5.252,3.852-7.354c1.75-2.104,4.027-3.854,6.481-5.081c2.802-1.227,5.78-1.926,9.286-1.926
		c3.5,0,6.479,0.699,9.107,1.924c2.625,1.227,4.729,2.975,6.482,5.078c1.75,2.105,3.152,4.557,4.026,7.358
		C469.996,177.198,470.343,180.002,470.343,182.807"/>
	<path id="path2351-6" d="M505.38,204.875v-25.049c0-3.327-0.701-5.779-2.104-7.71c-1.401-1.925-3.328-2.627-5.777-2.627
		c-1.755,0-3.332,0.351-4.908,1.224c-1.574,0.879-2.801,1.929-3.856,2.98v31.178h-11.206v-43.789h10.334l0.352,3.503
		c1.756-1.576,3.854-2.629,5.957-3.503c2.277-0.699,4.552-1.05,6.658-1.05c2.45,0,4.551,0.351,6.305,1.05
		c2.104,0.702,3.68,1.755,5.082,3.155c1.398,1.575,2.45,3.504,3.324,5.956c0.7,2.45,1.053,5.255,1.053,8.76v25.927H505.38V204.875
		L505.38,204.875z"/>
	<path id="path2353-4" d="M551.624,177.549c-0.176-1.402-0.352-2.805-1.051-3.855c-0.351-1.052-1.051-2.103-1.754-2.803
		c-0.875-0.7-1.75-1.052-2.45-1.402c-1.049-0.352-1.926-0.524-2.803-0.524c-1.921,0-3.851,0.699-5.604,2.274
		c-1.753,1.405-2.803,3.503-3.153,6.311H551.624L551.624,177.549z M534.635,185.605c0.174,3.855,1.404,6.482,3.327,8.061
		c2.104,1.75,4.906,2.451,8.06,2.451c1.576,0,3.156,0,4.379-0.352c1.229-0.352,2.632-0.701,3.503-1.051
		c1.055-0.354,1.93-0.877,2.631-1.229c0.699-0.523,1.4-0.873,1.75-1.223l2.801,9.105c-0.349,0.357-1.051,0.701-1.923,1.229
		c-0.878,0.523-2.101,1.051-3.501,1.578c-1.404,0.35-2.979,0.699-4.908,1.053c-1.927,0.352-4.029,0.518-6.131,0.518
		c-2.803,0-5.605-0.518-8.057-1.221c-2.633-1.051-4.905-2.453-6.83-4.379c-1.932-1.928-3.507-4.207-4.73-7.178
		c-1.057-2.805-1.58-6.137-1.58-10.162c0-3.504,0.523-6.834,1.58-9.811c1.048-2.805,2.449-5.08,4.203-7.01
		c1.922-1.925,4.203-3.503,6.653-4.554c2.452-1.049,4.905-1.399,7.706-1.399c2.803,0,5.431,0.351,7.709,1.403
		c2.45,0.696,4.557,2.101,6.132,4.206c1.748,1.752,3.152,4.203,4.026,7.355c1.054,2.975,1.578,6.655,1.578,10.686v1.926h-28.378
		V185.605z"/>
</g>
</svg>
