<?xml version="1.0" encoding="utf-8"?>
<!-- Generator: Adobe Illustrator 16.0.0, SVG Export Plug-In . SVG Version: 6.00 Build 0)  -->
<!DOCTYPE svg PUBLIC "-//W3C//DTD SVG 1.1//EN" "http://www.w3.org/Graphics/SVG/1.1/DTD/svg11.dtd">
<svg version="1.1" id="Layer_1" xmlns="http://www.w3.org/2000/svg" xmlns:xlink="http://www.w3.org/1999/xlink" x="0px" y="0px"
	 width="640px" height="360px" viewBox="0 0 640 360" enable-background="new 0 0 640 360" xml:space="preserve">
<g id="layer1_2_" transform="translate(-957.15243,-1170.7884)">
	<g id="g2993" transform="matrix(1.25,0,0,-1.25,-41.01375,1102.5097)">
		<g id="g4597" transform="translate(32.2352,-189.12191)">
			<g id="g13903" transform="matrix(1.5372817,0,0,1.5372817,-481.3732,32.990558)">
				<g id="g4845">
					<g>
						<g id="g4847">
							<g id="g4853" transform="translate(914.5208,48.6774)">
								<path id="path4855" d="M162.227-74.622c-0.896,1.81-0.871,4.946,0.163,9.966l1.622,7.674
									c0.823,3.787-0.013,7.617-5.92,7.637c-2.723,0.009-5.544-1.057-7.554-2.769c-0.024,0.956-0.141,2.045-0.379,2.769
									l-7.772-1.387c0.661-2.331,0.475-5.208-0.275-8.933l-3.179-14.96h8.218l3.577,16.72c0.971,1.187,2.08,1.821,3.419,1.821
									c1.385,0,1.61-1.098,1.182-3.009l-1.921-9.246c-0.496-2.345-0.689-4.772-0.445-6.286L162.227-74.622z M128.449-59.879
									c2.29,0.033,4.088,1.094,4.088,3.03c0,1.152-0.787,1.922-1.977,1.922c-2.16,0-3.559-1.973-3.988-4.693
									C127.064-59.772,127.726-59.887,128.449-59.879 M125.357-66.356c0.151-2.032,1.554-2.993,3.771-3.075
									c1.997-0.07,4.724,0.712,6.664,2.378l1.714-5.374c-3.246-2.371-6.993-3.055-9.728-3.035
									c-3.959,0.036-6.805,1.245-8.628,3.739c-1.41,1.93-1.883,4.221-1.918,6.657c-0.127,8.188,5.222,15.769,13.894,15.769
									c4.902,0,8.756-1.961,8.756-7.027c0-4.584-3.853-8.632-11.581-8.525c-0.839,0.01-2.29,0.159-2.845,0.302
									C125.382-65.135,125.316-65.781,125.357-66.356 M107.716-74.625h-9.125l-2.724,23.687l8.254,1.353l0.667-8.39
									c0.258-3.333,0.313-4.686,0.361-7.312h0.097c0.93,2.568,1.552,4.312,3.177,7.838l3.455,7.483h8.561L107.716-74.625z
									 M80.669-56.651c-1.726-2.091-2.988-6.61-2.993-9.669c-0.002-1.534,0.72-2.53,1.783-2.596
									c1.896-0.11,2.989,1.649,3.386,3.451l2.121,10.333C83.316-54.737,81.783-55.3,80.669-56.651 M92.773-57.566l-1.502-7.09
									c-1.036-5.022-1.061-8.156-0.165-9.968h-7.663c-0.156,0.855-0.182,1.774-0.228,2.653c-1.055-1.65-3.78-3.351-6.647-3.419
									c-5.287-0.126-7.801,3.641-7.525,8.785c0.285,5.264,2.321,9.655,5.522,12.858c2.822,2.822,6.769,4.226,10.775,4.4
									c3.392,0.147,7.478-0.572,9.296-1.482C93.92-52.546,93.186-55.182,92.773-57.566 M56.033-74.625l2.964,14.001h-7.018
									l-2.964-14.001h-8.555l7.073,33.309h8.552l-2.58-12.236h7.019l2.581,12.236h8.554l-7.073-33.309H56.033L56.033-74.625z"/>
							</g>
						</g>
					</g>
				</g>
				<g id="g4857">
					<g id="g4859">
						<g id="g4865">
							<g id="g4867">
								
									<linearGradient id="path4875_1_" gradientUnits="userSpaceOnUse" x1="1291.2805" y1="-362.6212" x2="1293.2091" y2="-362.6212" gradientTransform="matrix(69.9215 0 0 -69.9215 -89364.3438 -25392.2715)">
									<stop  offset="0" style="stop-color:#000000"/>
									<stop  offset="1" style="stop-color:#000000"/>
								</linearGradient>
								<path id="path4875" fill="url(#path4875_1_)" d="M938.946-12.89c-5.138-0.827-11.799-7.626-14.383-21.787l0,0
									c-1.929-10.573,0.627-20.494,6.098-24.835l0,0c2-1.47,4.118-2.436,6.774-2.133l0,0c-9.286,3.47-9.442,19.011-6.708,31.01
									l0,0c1.54,6.761,3.835,11.236,6.312,13.754l0,0c1.897,2.062,4.259,3.44,5.912,3.132l0,0
									c-0.884,0.774-2.038,0.948-2.907,0.948l0,0C939.559-12.8,939.161-12.854,938.946-12.89"/>
							</g>
						</g>
					</g>
				</g>
				<g id="g4877">
					<g id="g4879">
						<g id="g4885">
							<g id="g4887">
								
									<linearGradient id="path4895_1_" gradientUnits="userSpaceOnUse" x1="1290.3943" y1="-363.6681" x2="1292.3276" y2="-363.6681" gradientTransform="matrix(110.5352 0 0 -110.5352 -141617.6094 -40236.2969)">
									<stop  offset="0" style="stop-color:#000000"/>
									<stop  offset="1" style="stop-color:#000000"/>
								</linearGradient>
								<path id="path4895" fill="url(#path4895_1_)" d="M1029.343-33.505c-5.981-0.296-9.342-4.759-12.995-9.261l0,0
									c3.163,1.785,8.118,3.846,13.774,3.892l0,0c5.353,0.046,10.97-1.445,16.304-2.254l0,0c-0.586,0.331-1.139,0.621-1.745,0.993
									l0,0c-3.951,2.449-8.634,6.648-14.689,6.648l0,0C1029.778-33.492,1029.561-33.496,1029.343-33.505"/>
							</g>
						</g>
					</g>
				</g>
				<g id="g4897">
					<g id="g4899">
						<g id="g4905">
							<g id="g4907">
								
									<linearGradient id="path4915_1_" gradientUnits="userSpaceOnUse" x1="1289.6838" y1="-363.9182" x2="1291.6183" y2="-363.9182" gradientTransform="matrix(130.8065 0 0 -130.8065 -167765.3438 -47649.4219)">
									<stop  offset="0" style="stop-color:#000000"/>
									<stop  offset="1" style="stop-color:#000000"/>
								</linearGradient>
								<path id="path4915" fill="url(#path4915_1_)" d="M966.109-30.256c-4.726-0.642-8.825-6.342-12.275-14.3l0,0
									c-3.353-7.728-6.556-13.607-11.734-15.899l0,0c-2.558-1.133-4.9-1.425-8.342-0.771l0,0c3.399-1.393,6.708-1.891,9.814-1.343
									l0,0c6.35,1.119,10.831,4.886,15.114,13.971l0,0c1.672,3.545,4.122,9.237,5.452,12.086l0,0
									c1.175,2.521,2.849,4.987,5.215,6.152l0,0c-0.497,0.162-1.064,0.222-1.659,0.222l0,0
									C967.18-30.136,966.641-30.182,966.109-30.256"/>
							</g>
						</g>
					</g>
				</g>
				<g id="g4917">
					<g id="g4919">
						<g id="g4925">
							<g id="g4927">
								
									<linearGradient id="path4935_1_" gradientUnits="userSpaceOnUse" x1="1289.1329" y1="-364.4482" x2="1291.0626" y2="-364.4482" gradientTransform="matrix(194.799 0 0 -194.799 -250157.0938 -71034.3438)">
									<stop  offset="0" style="stop-color:#000000"/>
									<stop  offset="1" style="stop-color:#000000"/>
								</linearGradient>
								<path id="path4935" fill="url(#path4935_1_)" d="M964.566-30.651c3.168,0.846,4.813,0.41,6.315-0.319l0,0
									c1.52-0.737,4.263-2.771,5.878-4.566l0,0c5.096-5.667,10.499-10.896,14.345-13.09l0,0
									c4.397-2.511,12.284-4.978,18.741-0.737l0,0c3.115,2.047,5.486,5.121,7.725,8.097l0,0
									c-3.994-3.758-8.074-6.221-12.492-6.221l0,0c-7.022,0-10.984,3.245-16.573,9.094l0,0c-2.579,2.699-7.173,7.806-11.549,8.987
									l0,0c-1.223,0.333-2.58,0.471-3.952,0.471l0,0C969.733-28.936,966.386-29.734,964.566-30.651"/>
							</g>
						</g>
					</g>
				</g>
				<g id="g4937">
					<g id="g4939">
						<g id="g4945">
							<g id="g4947">
								
									<linearGradient id="path4955_1_" gradientUnits="userSpaceOnUse" x1="1290.6936" y1="-363.538" x2="1292.6233" y2="-363.538" gradientTransform="matrix(103.814 0 0 -103.814 -132947.7969 -37781.3086)">
									<stop  offset="0" style="stop-color:#000000"/>
									<stop  offset="1" style="stop-color:#000000"/>
								</linearGradient>
								<path id="path4955" fill="url(#path4955_1_)" d="M1053.35-41.458c-1.998,0.025-5.996,0.492-9.13,1.61l0,0
									c0.141-0.088,0.304-0.2,0.49-0.316l0,0c13.369-8.403,22.882-4.599,27.758-2.031l0,0c-2.653,0.938-6.034,3.213-7.182,5.373
									l0,0C1062.079-40.283,1057.687-41.506,1053.35-41.458"/>
							</g>
						</g>
					</g>
				</g>
				<g id="g4957">
					<g id="g4959">
						<g id="g4965">
							<g id="g4967">
								
									<linearGradient id="path4975_1_" gradientUnits="userSpaceOnUse" x1="1289.2396" y1="-364.2917" x2="1291.1693" y2="-364.2917" gradientTransform="matrix(161.4403 0 0 -161.4403 -207229 -58832.3086)">
									<stop  offset="0" style="stop-color:#000000"/>
									<stop  offset="1" style="stop-color:#000000"/>
								</linearGradient>
								<path id="path4975" fill="url(#path4975_1_)" d="M912.734,5.187c-3.863-1.675-7.196-12.308-6.357-23.663l0,0
									c1.036-14.04,5.938-22.22,13.435-26.106l0,0c6.73-3.481,13.261-3.15,17.96-1.029l0,0c6.42,2.896,11.963,9.456,12.384,19.567
									l0,0c0.184,4.453-0.949,8.669-3.392,11.093l0,0c-1.86,1.845-5.086,3.105-9.267,1.698l0,0
									c2.291,0.595,4.288,0.13,5.578-0.774l0,0c2.089-1.469,3.044-4.445,3.156-8.56l0,0c0.119-4.45-1.358-14.27-9.114-18.069l0,0
									c-6.57-3.215-15.176-0.04-20.735,8.124l0,0c-5.15,7.577-5.868,17.427-5.823,22.881l0,0
									c0.064,8.385,1.718,13.957,3.251,14.964l0,0C913.662,5.306,913.032,5.315,912.734,5.187"/>
							</g>
						</g>
					</g>
				</g>
				<g id="g4977">
					<g id="g4979">
						<g id="g4985">
							<g id="g4987">
								
									<linearGradient id="path4995_1_" gradientUnits="userSpaceOnUse" x1="1292.6121" y1="-360.998" x2="1294.5406" y2="-360.998" gradientTransform="matrix(46.1259 0 0 -46.1259 -58744.6875 -16702.7031)">
									<stop  offset="0" style="stop-color:#000000"/>
									<stop  offset="1" style="stop-color:#000000"/>
								</linearGradient>
								<path id="path4995" fill="url(#path4995_1_)" d="M878.451-43.792c-0.54-3.378-0.02-7.925,2.147-11.002l0,0
									c2.946-4.191,6.656-5.405,10.206-4.949l0,0c-3.72,1.326-5.774,4.189-6.646,8.414l0,0c-0.543,2.634-0.421,5.721,0.27,8.54
									l0,0C882.709-43.835,880.324-44.18,878.451-43.792"/>
							</g>
						</g>
					</g>
				</g>
				<g id="g4997">
					<g id="g4999">
						<g id="g5005">
							<g id="g5007">
								
									<linearGradient id="path5015_1_" gradientUnits="userSpaceOnUse" x1="1289.4856" y1="-364.0122" x2="1291.4153" y2="-364.0122" gradientTransform="matrix(132.6643 0 0 -132.6643 -170182.2344 -48318.1836)">
									<stop  offset="0" style="stop-color:#000000"/>
									<stop  offset="1" style="stop-color:#000000"/>
								</linearGradient>
								<path id="path5015" fill="url(#path5015_1_)" d="M916.627,6.943c-1.236,0-2.767-0.683-4.626-2.179l0,0
									c0.386,0.254,0.842,0.444,1.191,0.496l0,0c2.373,0.346,3.397-2.818,4.013-7.958l0,0c0.65-5.439,0.092-16.641-4.402-29.38
									l0,0c-5.219-14.804-14.328-25.95-20.724-27.425l0,0c-1.852-0.431-3.729-0.459-5.554,0.117l0,0
									c2.569-1.088,5.888-1.419,9.896-0.849l0,0c10.032,1.428,19.367,15.637,24.019,33.618l0,0
									c4.438,17.16,1.569,33.51-3.781,33.559l0,0C916.651,6.943,916.639,6.943,916.627,6.943"/>
							</g>
						</g>
					</g>
				</g>
			</g>
		</g>
	</g>
</g>
</svg>
