<?xml version="1.0" encoding="utf-8"?>
<!-- Generator: Adobe Illustrator 16.0.0, SVG Export Plug-In . SVG Version: 6.00 Build 0)  -->
<!DOCTYPE svg PUBLIC "-//W3C//DTD SVG 1.1//EN" "http://www.w3.org/Graphics/SVG/1.1/DTD/svg11.dtd">
<svg version="1.1"
	 id="Layer_1" xmlns:dc="http://purl.org/dc/elements/1.1/" xmlns:cc="http://creativecommons.org/ns#" xmlns:rdf="http://www.w3.org/1999/02/22-rdf-syntax-ns#" xmlns:svg="http://www.w3.org/2000/svg" xmlns:sodipodi="http://sodipodi.sourceforge.net/DTD/sodipodi-0.dtd" xmlns:inkscape="http://www.inkscape.org/namespaces/inkscape" sodipodi:docname="sheffield_hallam_university.svg" inkscape:version="1.0 (4035a4f, 2020-05-01)"
	 xmlns="http://www.w3.org/2000/svg" xmlns:xlink="http://www.w3.org/1999/xlink" x="0px" y="0px" width="640px" height="360px"
	 viewBox="0 0 640 360" enable-background="new 0 0 640 360" xml:space="preserve">
<g>
	<g>
		<path d="M233.737,134.244v-17.285c0-3.986-1.095-6.959-3.051-8.834c-2.032-2.034-5.082-3.051-8.29-3.051
			c-3.048,0-6.725,0.937-10.712,3.986V95.533c0-1.801-0.861-2.348-2.973-2.348c-2.815,0-7.51,0.547-14.86,0.547l1.095,5.474h4.693
			v37.307h-4.066v5.396h20.099v-5.396h-1.33c-1.8,0-2.658-0.391-2.658-2.269v-18.613c1.798-1.564,3.752-2.581,5.942-2.581
			c2.502,0,4.068,1.331,4.068,4.379v19.082h-3.364v5.397h19.552v-5.397h-1.486C234.6,136.513,233.737,136.2,233.737,134.244z"/>
		<path d="M336.273,103.042c3.599,0,6.729-2.271,6.729-6.103c0-3.833-3.131-6.1-6.729-6.1c-3.594,0-6.724,2.268-6.724,6.1
			C329.55,100.771,332.68,103.042,336.273,103.042z"/>
		<path d="M183.686,114.928l-5.945-2.737c-4.849-2.27-7.508-3.913-7.508-6.805c0-2.581,2.582-4.378,5.789-4.378
			c2.269,0,4.302,0.94,5.554,2.19c1.093,1.095,1.875,2.659,2.423,4.612l0.628,2.429c0.311,1.092,0.78,1.875,2.266,1.875h4.145
			V93.732h-6.568l-0.313,2.427c-2.189-2.033-5.789-3.364-10.323-3.364c-8.994,0-16.426,5.553-16.426,14.857
			c0,6.103,3.599,11.029,11.109,14.158l5.786,2.425c4.537,1.876,6.491,3.362,6.491,6.178c0,0.783-0.314,1.797-1.02,2.502
			c-1.015,1.016-2.813,1.799-5.08,1.799c-4.928,0-8.058-2.658-8.917-7.511l-0.312-1.718c-0.315-1.875-1.018-2.269-2.973-2.269
			h-4.064v18.691h6.568l0.469-2.737c2.19,2.036,6.335,3.677,10.716,3.677c11.964,0,17.909-6.256,17.909-14.625
			c0-3.909-1.565-6.96-3.987-9.307C188.535,117.429,185.954,116.021,183.686,114.928z"/>
		<path d="M255.738,105.074c-11.185,0-18.066,8.21-18.066,19.082c0,11.262,6.335,18.769,17.908,18.769
			c5.788,0,11.888-2.347,15.172-5.393l-3.126-5.086c-2.659,1.954-6.101,3.205-9.465,3.205c-5.004,0-7.743-3.751-7.896-9.696h21.662
			c0.156-0.936,0.156-1.799,0.156-2.737C272.083,113.13,266.453,105.074,255.738,105.074z M260.587,120.557h-10.169
			c0.157-3.36,1.174-8.758,5.556-8.758c4.065,0,4.69,4.301,4.69,7.117C260.664,119.466,260.587,120.012,260.587,120.557z"/>
		<path d="M365.634,105.074c-11.184,0-18.067,8.21-18.067,19.082c0,11.262,6.335,18.769,17.91,18.769
			c5.786,0,11.89-2.347,15.171-5.393l-3.126-5.086c-2.66,1.954-6.101,3.205-9.464,3.205c-5.006,0-7.742-3.751-7.897-9.696h21.661
			c0.158-0.936,0.158-1.799,0.158-2.737C381.979,113.13,376.348,105.074,365.634,105.074z M370.484,120.557h-10.169
			c0.157-3.36,1.172-8.759,5.554-8.759c4.065,0,4.69,4.302,4.69,7.118C370.56,119.466,370.484,120.012,370.484,120.557z"/>
		<path d="M297.923,111.565l-1.097-5.474h-7.819c-1.24-1.554-1.253-3.602-1.253-3.602c0-3.594,2.19-4.691,5.241-4.691
			c1.955,0,3.988,0.395,5.787,1.02v-6.962c-1.721-0.705-5.787-1.722-9.621-1.722c-8.21,0-13.372,3.988-13.372,11.966
			c0,0,0.043,2.098,1.017,3.992h-4.538v5.474h5.399v24.946h-4.066v5.397h20.256v-5.397h-1.487c-1.8,0-2.657-0.625-2.657-2.267
			v-22.679H297.923z"/>
		<path d="M441.021,136.513c-1.88,0-2.429-1.015-2.429-2.422V95.533c0-1.801-0.858-2.348-2.972-2.348
			c-2.812,0-7.508,0.547-14.861,0.547l1.101,5.474h4.688v6.962c-2.033-0.702-4.22-1.093-6.257-1.093
			c-8.446,0-16.498,6.255-16.498,18.613c0,11.732,6.02,19.239,15.953,19.239c4.066,0,7.742-1.72,9.618-3.676
			c1.02,1.879,3.444,2.658,6.025,2.658h8.056v-5.396H441.021L441.021,136.513z M426.551,134.244
			c-0.786,0.625-2.114,1.485-4.065,1.485c-3.131,0-6.181-2.659-6.181-11.886c0-9.697,3.203-12.278,6.333-12.278
			c1.643,0,3.287,0.545,3.913,0.936V134.244L426.551,134.244z"/>
		<path d="M399.46,134.244V95.533c0-1.801-0.861-2.348-2.973-2.348c-2.817,0-7.508,0.547-14.859,0.547l1.094,5.474h4.693v37.307
			h-4.064v5.396h20.251v-5.396h-1.485C400.317,136.513,399.46,136.122,399.46,134.244z"/>
		<path d="M342.845,134.244v-26.353c0-1.8-0.861-2.348-2.973-2.348c-2.814,0-8.995,0.548-16.264,0.548h-7.744
			c-0.729-1.474-0.782-3.602-0.782-3.602c0-3.36,1.876-4.691,4.69-4.691c2.191,0,4.539,0.548,6.336,1.097l1.016-6.96
			c-2.578-0.94-7.037-1.801-10.635-1.801c-8.76,0-13.372,4.462-13.372,11.654c0,0-0.042,1.602,0.86,4.304h-5.366l1.098,5.474h4.736
			v24.948h-4.065v5.396h20.256v-5.396h-1.486c-1.802,0-2.659-0.625-2.659-2.269v-22.679h14.311v24.948h-4.067v5.396h20.257v-5.396
			h-1.486C343.706,136.513,342.845,136.122,342.845,134.244z"/>
	</g>
	<g>
		<path d="M260.532,244.684v-26.354c0-1.799-0.861-2.348-2.973-2.348c-2.815,0-7.507,0.549-14.858,0.549l1.095,5.477h4.691v24.946
			h-4.067v5.397h20.257v-5.397h-1.485C261.39,246.953,260.532,246.563,260.532,244.684z"/>
		<path d="M200.318,204.173h-21.662v6.338h2.111c2.579,0,3.283,0.857,3.283,3.203v22.84c0,2.578-0.39,4.531-1.33,5.942
			c-1.095,1.72-2.973,2.583-5.315,2.583c-1.954,0-4.066-0.939-5.163-2.507c-1.407-2.11-1.486-4.3-1.486-9.774v-22.287h4.379v-6.338
			h-22.602v6.338h2.111c2.583,0,3.287,0.936,3.287,3.203v20.805c0,5.943,1.25,11.026,5.238,14.47
			c3.206,2.737,8.29,4.224,13.921,4.224c6.647,0,11.888-2.271,14.86-5.71c2.972-3.442,3.988-8.292,3.988-13.453v-23.538h4.379
			V204.173L200.318,204.173z"/>
		<path d="M238.43,244.684v-17.282c0-3.988-1.095-6.961-3.051-8.838c-2.034-2.033-5.085-3.051-8.289-3.051
			c-3.054,0-6.728,0.938-10.716,3.988v-1.172c0-1.799-0.861-2.348-2.973-2.348c-2.815,0-7.507,0.549-14.856,0.549l1.092,5.477h4.692
			v24.946h-4.067v5.397h19.945v-5.397h-1.176c-1.797,0-2.657-0.39-2.657-2.27v-18.612c1.799-1.562,3.754-2.58,5.943-2.58
			c2.502,0,4.066,1.33,4.066,4.381v19.081h-3.519v5.397h19.709v-5.397h-1.486C239.289,246.953,238.43,246.641,238.43,244.684z"/>
		<path d="M320.101,215.513c-11.183,0-18.067,8.214-18.067,19.084c0,11.26,6.335,18.771,17.911,18.771
			c5.787,0,11.887-2.349,15.171-5.399l-3.126-5.083c-2.66,1.956-6.104,3.207-9.465,3.207c-5.006,0-7.744-3.751-7.9-9.694h21.665
			c0.155-0.941,0.155-1.801,0.155-2.74C336.444,223.567,330.815,215.513,320.101,215.513z M324.952,230.999H314.78
			c0.159-3.362,1.177-8.76,5.555-8.76c4.068,0,4.693,4.301,4.693,7.119C325.028,229.902,324.952,230.454,324.952,230.999z"/>
		<path d="M304.772,222.007l-1.096-5.477h-16.188v5.477h3.675l-6.177,18.299l-5.553-15.017c-0.705-1.876-0.237-3.282,1.876-3.282
			h1.563v-5.477h-20.334v5.477h3.988l12.045,30.344h9.776l10.399-27.529c0.94-2.506,2.112-2.814,3.99-2.814H304.772L304.772,222.007
			z"/>
		<path d="M486.407,216.53h-19.706v5.473h3.832v20.806c-1.798,1.562-3.755,2.577-5.946,2.577c-2.504,0-4.065-1.326-4.065-4.379
			v-22.678c0-1.799-0.86-2.348-2.973-2.348c-2.815,0-7.508,0.549-14.86,0.549l1.092,5.477h4.695v19.551
			c0,3.911,1.094,6.882,3.047,8.758c2.037,1.955,5.086,3.052,8.293,3.052c3.05,0,6.725-0.94,10.715-3.989v4.771
			c0,2.344-0.312,4.456-1.328,5.863c-1.254,1.642-3.521,2.584-6.725,2.584c-3.287,0-6.571-0.629-9.858-1.803v7.586
			c2.501,0.783,6.963,1.486,10.872,1.486c10.092,0,15.801-4.379,17.99-10.242c1.093-2.973,1.093-6.883,1.093-10.323v-24.325
			c0-2.189,1.094-2.969,2.893-2.969h2.036l0,0L486.407,216.53z"/>
		<path d="M434.493,243.51c-0.545-1.017-0.859-2.736-0.859-5.316v-16.187h8.367l-1.094-5.477h-7.431v-9.307l-8.524,1.332
			c-2.347,0.389-3.363,1.716-3.363,4.142v3.833h-4.461v5.473h4.461v15.957c0,6.569,1.174,10.008,3.441,12.275
			c2.032,2.035,5.159,3.053,9.071,3.053c3.829,0,7.35-0.938,9.229-1.566v-6.725c-1.174,0.393-3.13,0.859-4.771,0.859
			C436.841,245.856,435.353,245.23,434.493,243.51z"/>
		<path d="M388.47,231.624l-5.553-2.424c-3.209-1.409-4.381-2.268-4.381-4.066s1.799-3.207,4.301-3.207
			c3.053,0,5.317,1.564,5.79,4.849l0.232,1.721c0.235,1.486,0.861,2.111,2.66,2.111h2.973V216.53h-4.302l-0.391,2.033
			c-1.955-1.877-4.928-3.051-8.994-3.051c-7.038,0-13.373,4.303-13.373,11.263c0,6.021,3.675,9.229,8.683,11.185l4.927,1.952
			c3.439,1.331,4.455,2.192,4.455,3.987c0,1.646-1.795,2.973-4.455,2.973c-3.912,0-6.648-1.951-7.197-5.393l-0.236-1.408
			c-0.311-1.799-0.782-2.034-2.734-2.034h-2.973v14.31h4.299l0.55-2.268c2.813,2.268,6.257,3.288,10.087,3.288
			c7.82,0,13.765-4.46,13.765-10.795C396.602,236.862,393.476,233.817,388.47,231.624z"/>
		<path d="M414.399,244.684v-26.354c0-1.799-0.859-2.348-2.969-2.348c-2.816,0-7.512,0.549-14.859,0.549l1.095,5.477h4.696v24.946
			h-4.07v5.397h20.258l0,0v-5.397h-1.488C415.263,246.953,414.399,246.563,414.399,244.684z"/>
		<path d="M363.419,215.513c-3.598,0-7.115,1.878-9.385,4.772v-1.956c0-1.799-0.939-2.348-2.972-2.348
			c-2.815,0-7.509,0.549-14.862,0.549l1.099,5.477h4.69v24.946h-4.065v5.397h20.256v-5.397h-1.487c-1.799,0-2.66-0.39-2.66-2.27
			V227.01c3.365-2.188,6.338-2.737,9.387-2.737c0.779,0,2.033,0,2.659,0.078v-6.566C366.08,216.297,365.296,215.513,363.419,215.513
			z"/>
		<path d="M407.832,213.509c3.599,0,6.728-2.266,6.728-6.098s-3.129-6.101-6.728-6.101c-3.595,0-6.724,2.269-6.724,6.101
			S404.237,213.509,407.832,213.509z"/>
		<path d="M253.962,213.509c3.595,0,6.725-2.266,6.725-6.098s-3.13-6.101-6.725-6.101c-3.598,0-6.728,2.269-6.728,6.101
			S250.364,213.509,253.962,213.509z"/>
	</g>
	<g>
		<path d="M235.161,190.253v-15.875c0-10.012-6.413-13.375-15.564-13.375c-3.988,0-8.915,0.859-12.745,2.267v6.648
			c4.69-1.875,8.367-2.424,11.104-2.424c3.283,0,5.159,1.407,5.159,4.615v2.19c-11.495,0.232-19.629,4.848-19.629,13.058
			c0,8.056,5.476,11.499,11.574,11.499c4.38,0,8.605-2.111,10.245-3.834c0.939,2.032,3.208,2.816,5.867,2.816h8.993v-5.396h-2.737
			C235.942,192.446,235.161,191.816,235.161,190.253z M219.206,190.724c-2.658,0-4.302-1.721-4.302-4.305
			c0-3.44,3.052-6.256,8.211-6.567v9.54l0,0C222.49,189.938,220.771,190.724,219.206,190.724z"/>
		<path d="M260.587,192.446c-1.801,0-2.66-0.396-2.66-2.272v-38.782c0-1.797-0.86-2.344-2.971-2.344
			c-2.816,0-7.511,0.546-14.859,0.546l1.093,5.474h4.695v37.374h-4.071v5.396h20.26v-5.396h-1.486V192.446z"/>
		<path d="M197.311,188.299v-32.302h4.377v-6.333h-22.601v6.333h2.19c2.581,0,3.205,1.096,3.205,3.208v10.401h-13.764v-13.608h4.379
			v-6.333h-22.601v6.333h2.19c2.578,0,3.206,1.096,3.206,3.208v32.298h-4.381v6.336h22.604v-6.336h-2.19
			c-2.581,0-3.206-1.093-3.206-3.204V176.88h13.763v14.623h-4.379v6.336h22.602v-6.336h-2.188
			C197.936,191.503,197.311,190.41,197.311,188.299z"/>
		<path d="M279.712,190.174v-38.781c0-1.798-0.86-2.345-2.971-2.345c-2.814,0-7.511,0.546-14.862,0.546l1.095,5.476h4.694v37.376
			h-4.069v5.393h20.259v-5.393h-1.484C280.571,192.446,279.712,192.05,279.712,190.174z"/>
		<path d="M384.108,192.418c-1.799,0-2.666-0.312-2.666-2.275V172.84c0-4-1.09-6.976-3.049-8.856
			c-2.037-2.036-5.092-3.054-8.301-3.054c-4.859,0-9.088,2.037-12.064,4.699c-0.391-0.626-0.861-1.174-1.41-1.645
			c-2.035-2.036-5.09-3.054-8.299-3.054c-2.742,0-6.658,1.019-10.418,3.994v-1.172c0-1.803-0.861-2.349-2.979-2.349
			c-2.816,0-7.514,0.546-14.879,0.546l1.093,5.487h4.706v24.982h-4.076v5.402h19.895v-5.402h-1.098
			c-1.801,0-2.666-0.395-2.666-2.275v-18.637c1.726-1.565,3.686-2.587,5.721-2.587c2.507,0,3.998,1.409,3.998,4.388v19.112h-3.295
			v5.402h19.109v-5.402h-1.092c-1.805,0-2.666-0.312-2.666-2.275V172.84c0-0.473-0.078-0.947-0.078-1.412
			c1.96-1.804,3.916-2.509,5.794-2.509c2.511,0,3.999,1.41,3.999,4.386v19.112h-3.291v5.405h19.502h0.002v-5.405H384.108
			L384.108,192.418z"/>
		<path d="M315.384,190.224v-15.897c0-10.031-6.423-13.396-15.585-13.396c-3.995,0-8.932,0.863-12.767,2.271v6.658
			c4.7-1.88,8.379-2.427,11.121-2.427c3.291,0,5.171,1.407,5.171,4.621v2.191c-11.518,0.237-19.659,4.859-19.659,13.079
			c0,8.069,5.481,11.514,11.59,11.514c4.388,0,8.615-2.111,10.264-3.839c0.935,2.038,3.21,2.822,5.871,2.822h9.009v-5.402h-2.743
			C316.166,192.418,315.384,191.789,315.384,190.224z M303.324,189.362c-0.626,0.549-2.349,1.333-3.915,1.333
			c-2.665,0-4.31-1.728-4.31-4.311c0-3.443,3.054-6.264,8.225-6.576V189.362z"/>
	</g>
</g>
</svg>
