<?xml version="1.0" encoding="utf-8"?>
<!-- Generator: Adobe Illustrator 16.0.0, SVG Export Plug-In . SVG Version: 6.00 Build 0)  -->
<!DOCTYPE svg PUBLIC "-//W3C//DTD SVG 1.1//EN" "http://www.w3.org/Graphics/SVG/1.1/DTD/svg11.dtd">
<svg version="1.1" id="Layer_x5F_1" xmlns="http://www.w3.org/2000/svg" xmlns:xlink="http://www.w3.org/1999/xlink" x="0px"
	 y="0px" width="86px" height="180px" viewBox="0 0 86 180" enable-background="new 0 0 86 180" xml:space="preserve">
<rect x="19" y="157" fill="#222222" width="47" height="20"/>
<rect x="19" y="7" fill="#222222" width="47" height="16"/>
<g>
	<path fill="#222222" d="M12,179c-5.449,0-11-5.552-11-11V12C1,6.551,6.551,1,12,1h62c5.448,0,11,5.551,11,11v156
		c0,5.448-5.552,11-11,11H12z M43,159c-4.561,0-8,3.439-8,8s3.439,8,8,8c5.084,0,8-2.916,8-8S48.084,159,43,159z M7,25
		c-0.552,0-1,0.448-1,1v128c0,0.553,0.448,1,1,1h72c0.553,0,1-0.447,1-1V26c0-0.552-0.447-1-1-1H7z M36,13c-1.542,0-3,1.458-3,3
		s1.458,3,3,3h14c1.542,0,3-1.458,3-3s-1.458-3-3-3H36z"/>
	<path fill="#666666" d="M74,2c4.859,0,10,5.14,10,10v156c0,4.859-5.141,10-10,10H12c-4.86,0-10-5.141-10-10V12C2,7.14,7.14,2,12,2
		H74 M36,20h14c2.094,0,4-1.907,4-4s-1.906-4-4-4H36c-2.093,0-4,1.907-4,4S33.907,20,36,20 M7,156h72c1.104,0,2-0.896,2-2V26
		c0-1.104-0.896-2-2-2H7c-1.104,0-2,0.896-2,2v128C5,155.104,5.896,156,7,156 M43,176c5.639,0,9-3.361,9-9s-3.361-9-9-9
		c-5.131,0-9,3.869-9,9S37.869,176,43,176 M74,0H12C6,0,0,6,0,12v156c0,6,6,12,12,12h62c6,0,12-6,12-12V12C86,6,80,0,74,0L74,0z
		 M36,18c-1,0-2-1-2-2s1-2,2-2h14c1,0,2,1,2,2s-1,2-2,2H36L36,18z M7,154V26h72v128H7L7,154z M43,174c-4,0-7-2.999-7-7s3-7,7-7
		c4.999,0,7,2.999,7,7S47.999,174,43,174L43,174z"/>
</g>
</svg>
