<?xml version="1.0" encoding="utf-8"?>
<!-- Generator: Adobe Illustrator 16.0.0, SVG Export Plug-In . SVG Version: 6.00 Build 0)  -->
<!DOCTYPE svg PUBLIC "-//W3C//DTD SVG 1.1//EN" "http://www.w3.org/Graphics/SVG/1.1/DTD/svg11.dtd">
<svg version="1.1" id="Layer_1" xmlns="http://www.w3.org/2000/svg" xmlns:xlink="http://www.w3.org/1999/xlink" x="0px" y="0px"
	 width="640px" height="360px" viewBox="0 0 640 360" enable-background="new 0 0 640 360" xml:space="preserve">
<g>
	<path d="M430.861,117.851c-6.551-11.164-41.013-3.883-83.975,15.777c2.187,1.697,4.369,3.639,6.066,5.582
		c33.009-14.077,58.492-18.446,63.832-9.224c6.068,10.438-17.958,36.407-56.549,62.133l0.486,0.486
		C407.807,162.021,438.145,130.472,430.861,117.851L430.861,117.851L430.861,117.851z"/>
	<path d="M227.479,239.201c-3.642-6.551,4.125-18.93,19.658-33.734l0,0c-1.212-0.242-2.424-0.729-3.642-1.217
		c-0.241,0-0.241-0.242-0.241-0.242c-1.212-0.482-2.424-0.969-3.643-1.453c-18.684,17.227-28.149,31.793-23.783,39.559
		c5.343,8.979,28.396,6.07,59.222-5.338l-0.241-0.486C250.05,244.785,231.849,246.482,227.479,239.201L227.479,239.201
		L227.479,239.201z"/>
	<path d="M208.062,163.725c0-26.458,34.951-48.059,77.909-48.059c43.199,0,78.148,21.602,78.148,48.059
		c0,26.693-34.949,48.291-78.148,48.291C243.012,212.016,208.062,190.418,208.062,163.725L208.062,163.725L208.062,163.725
		L208.062,163.725z M252.236,126.347l14.806,50.24l0,0l15.532-56.794C271.649,120.278,261.216,122.461,252.236,126.347
		L252.236,126.347L252.236,126.347L252.236,126.347z M281.844,147.22l-8.008,29.367h16.259L281.844,147.22L281.844,147.22
		L281.844,147.22z M304.903,176.587l14.074-50.727c-9.219-3.641-19.657-5.829-30.579-6.068L304.903,176.587L304.903,176.587
		L304.903,176.587L304.903,176.587z M251.994,176.587l-8.012-29.367l-8.008,29.367H251.994L251.994,176.587L251.994,176.587z
		 M344.46,182.41c3.884-5.582,6.067-11.89,6.067-18.688c0-12.863-8.009-24.269-21.117-32.523L344.46,182.41L344.46,182.41
		L344.46,182.41z M327.957,176.587l-8.25-29.367l-8.008,29.367H327.957L327.957,176.587L327.957,176.587z M329.656,182.41h-19.658
		l-1.7,6.311l4.613,15.045c7.524-2.184,14.317-5.582,19.901-9.705L329.656,182.41L329.656,182.41L329.656,182.41z M259.517,203.766
		l-5.826-21.355h-19.417l-1.697,6.064c6.792,6.797,16.017,12.135,26.939,15.533V203.766L259.517,203.766L259.517,203.766z
		 M291.795,182.41h-19.66l-6.308,23.297c6.308,1.459,13.104,2.186,20.143,2.186c4.369,0,8.494-0.244,12.618-0.971L291.795,182.41
		L291.795,182.41L291.795,182.41z M241.312,132.172c-12.132,8.008-19.658,19.173-19.658,31.553c0,6.795,2.187,12.862,5.825,18.441
		L241.312,132.172L241.312,132.172z"/>
</g>
</svg>
