<?xml version="1.0" encoding="utf-8"?>
<!-- Generator: Adobe Illustrator 16.0.0, SVG Export Plug-In . SVG Version: 6.00 Build 0)  -->
<!DOCTYPE svg PUBLIC "-//W3C//DTD SVG 1.1//EN" "http://www.w3.org/Graphics/SVG/1.1/DTD/svg11.dtd">
<svg version="1.1" id="Layer_1" xmlns="http://www.w3.org/2000/svg" xmlns:xlink="http://www.w3.org/1999/xlink" x="0px" y="0px"
	 width="640px" height="360px" viewBox="0 0 640 360" enable-background="new 0 0 640 360" xml:space="preserve">
<g id="layer1_3_" transform="translate(-30.044778,-177.35103)">
	<g id="g832" transform="translate(0.13229332,-0.13228943)">
		<path id="path30" d="M185.668,397.374l0.001,20.594c0.013,1.137,0.271,2.172,0.798,3.084c0.521,0.902,1.28,1.639,2.251,2.219
			l-35.315-20.387l-0.133-0.084c4.704,2.887,16.876,0.666,32.397-5.432"/>
		
			<linearGradient id="path52_1_" gradientUnits="userSpaceOnUse" x1="-232.3917" y1="828.661" x2="-230.1852" y2="828.661" gradientTransform="matrix(-49.4249 28.5354 28.5354 49.4249 -34853.0078 -33966.0156)">
			<stop  offset="0" style="stop-color:#000000"/>
			<stop  offset="0.0622" style="stop-color:#000000"/>
			<stop  offset="1" style="stop-color:#000000"/>
		</linearGradient>
		<path id="path52" fill="url(#path52_1_)" d="M267.426,338.832h-0.233c-2.401,9.557-22.614,27.311-49.887,43.067l0,0
			c-11.172,6.451-22.048,11.703-31.638,15.475l0,0v20.594c0.013,1.137,0.271,2.172,0.796,3.084l0,0
			c0.523,0.898,1.28,1.641,2.251,2.219l0,0l-26.948-15.562l27.052,15.617c1.812,1.049,4.344,1.557,7.417,1.557l0,0
			c9.337,0,23.691-4.678,38.31-13.123l0,0c19.438-11.217,32.879-25.357,32.879-33.818l0,0V338.832L267.426,338.832z"/>
		
			<linearGradient id="path76_1_" gradientUnits="userSpaceOnUse" x1="-236.1476" y1="786.0555" x2="-233.9415" y2="786.0555" gradientTransform="matrix(8.7899 -15.2245 -15.2245 -8.7899 14200.8281 3719.5366)">
			<stop  offset="0" style="stop-color:#000000"/>
			<stop  offset="0.1162" style="stop-color:#000000"/>
			<stop  offset="0.9939" style="stop-color:#000000"/>
			<stop  offset="1" style="stop-color:#000000"/>
		</linearGradient>
		<path id="path76" fill="url(#path76_1_)" d="M151.183,376.729l-0.006,22.314c0.002,0.832,0.183,1.58,0.561,2.227l0,0
			c0.377,0.66,0.94,1.193,1.668,1.613l0,0l0.009,0.008l-0.003-0.004c0.002,0.004,0.003,0.004,0.003,0.004l0,0
			c0.003,0,0.003,0.004,0.003,0.004l0,0h0.008l0.012,0.01c0-0.002,0-0.002,0-0.002l0,0l0.009,0.008c0,0-0.002-0.006-0.009-0.006l0,0
			l7.94,4.582l-7.932-4.576c1.376,0.773,3.331,1.145,5.78,1.145l0,0c6.17,0,15.471-2.367,26.442-6.68l0,0v-20.645h-34.486
			L151.183,376.729L151.183,376.729z M153.418,402.895c0.002,0,0.006,0,0.006,0l0,0H153.418z"/>
		
			<linearGradient id="path96_1_" gradientUnits="userSpaceOnUse" x1="-218.2281" y1="822.6552" x2="-216.0211" y2="822.6552" gradientTransform="matrix(25.8416 44.7589 44.7589 -25.8416 -30990.2402 31316.4609)">
			<stop  offset="0" style="stop-color:#000000"/>
			<stop  offset="1" style="stop-color:#000000"/>
		</linearGradient>
		<path id="path96" fill="url(#path96_1_)" d="M195.992,290.086c-2.965,0.025-5.406,0.535-7.172,1.554l0,0l-35.348,20.405
			c7.875-4.4,34.843,4.285,63.835,21.024l0,0c29.103,16.807,50.153,35.886,50.125,44.871l0,0v-40.914
			c0-8.46-13.445-22.603-32.885-33.821l0,0c-14.488-8.369-28.715-13.037-38.051-13.121l0,0h-0.504V290.086z"/>
		
			<linearGradient id="path118_1_" gradientUnits="userSpaceOnUse" x1="-198.7628" y1="829.6337" x2="-196.5568" y2="829.6337" gradientTransform="matrix(8.7897 15.2243 15.2243 -8.7897 -10719.0117 10623.9229)">
			<stop  offset="0" style="stop-color:#000000"/>
			<stop  offset="0.1784" style="stop-color:#000000"/>
			<stop  offset="1" style="stop-color:#000000"/>
		</linearGradient>
		<path id="path118" fill="url(#path118_1_)" d="M188.612,291.761l-35.206,20.325c-0.729,0.423-1.291,0.957-1.668,1.607l0,0
			c-0.377,0.656-0.557,1.404-0.561,2.237l0,0l0.004,22.314h34.487v-41.24c0.013-1.138,0.271-2.171,0.796-3.08l0,0
			c0.504-0.876,1.233-1.589,2.15-2.162l0,0h-0.002V291.761z"/>
		<path id="path130" d="M185.668,317.597l0.001-20.599c0.013-1.137,0.271-2.168,0.798-3.073c0.521-0.908,1.28-1.644,2.251-2.227
			l-35.315,20.391l-0.133,0.081c4.704-2.885,16.876-0.667,32.397,5.431"/>
		<path id="path134" d="M267.426,377.858l0.003-40.833c0.016,4.668-5.664,12.068-15.211,20.463
			C261.708,365.825,267.381,373.188,267.426,377.858"/>
		<path id="path138" d="M330.824,381.134c0,5.195-0.019,24.115-20.558,24.115c-12.922,0-21.917-8.613-21.917-22.65
			c0-13.725,9.083-22.807,22.211-22.807c8.834,0,16.027,4.453,19.041,10.906l-8.324,4.762c-2.094-4.182-5.651-6.768-10.872-6.768
			c-7.537,0-11.834,6.742-11.834,13.857c0,7.449,4.512,13.818,11.947,13.818c5.547,0,8.829-3.809,9.259-7.254h-9.626v-7.98H330.824
			L330.824,381.134z"/>
		<path id="path142" d="M317.373,332.207c0,8.917-5.655,12.576-12.244,12.576h-3.799V319.69h3.931
			C312.38,319.69,317.373,323.952,317.373,332.207 M327.492,332.207c0-13.248-9.72-21.235-21.568-21.235h-14.311v42.465h14.311
			C317.703,353.437,327.492,345.451,327.492,332.207"/>
		<path id="path144" d="M339.175,324.093h-8.92v29.344h8.921L339.175,324.093L339.175,324.093z M339.837,314.475
			c0-2.8-2.264-5.126-5.124-5.126c-2.801,0-5.062,2.326-5.062,5.126c0,2.795,2.261,5.126,5.062,5.126
			C337.573,319.601,339.837,317.27,339.837,314.475"/>
		<path id="path148" d="M351.385,329.491c2.062-3.527,5.46-5.79,10.117-5.79h1.332v9.051c-1.463-0.663-2.131-0.799-3.662-0.799
			c-5.725,0-7.787,3.728-7.787,8.72v12.765h-8.921v-29.336h8.921V329.491L351.385,329.491z"/>
		<path id="path152" d="M385.891,334.911H373.45c0.395-3.28,2.787-5.821,6.32-5.821C383.161,329.09,385.623,331.514,385.891,334.911
			 M394.411,340.832v-2.64c0-9.338-5.121-15.029-15.176-15.029c-9.656,0-15.271,6.021-15.271,15.609
			c0,9.985,6.215,15.598,16.004,15.598c6.59,0,12.379-2.396,14.047-9.249h-8.525c-1.131,1.929-3.395,2.659-5.59,2.659
			c-3.928,0-6.582-2.283-6.648-6.948H394.411L394.411,340.832z"/>
		<path id="path156" d="M421.096,333.586c-1.281-0.997-4.023-2.762-7.207-2.762c-4.26,0-7.656,3.288-7.656,7.945
			c0,4.797,3.328,7.945,7.857,7.945c3.141,0,5.996-1.562,7.209-2.511v7.897c-1.283,0.839-4.562,2.27-8.635,2.27
			c-8.592,0-15.688-5.877-15.688-15.266c0-9.984,7.031-15.936,16.082-15.936c3.961,0,6.371,0.819,8.037,1.885V333.586
			L421.096,333.586z"/>
		<path id="path160" d="M343.519,379.927c2.065-3.533,5.458-5.795,10.118-5.795h1.332v9.055c-1.471-0.668-2.135-0.801-3.661-0.801
			c-5.726,0-7.789,3.725-7.789,8.723v12.766h-8.924v-29.342h8.922v5.395H343.519L343.519,379.927z"/>
		<path id="path164" d="M381.12,389.104c0,4.322-3.09,7.686-7.287,7.686c-4.186,0-7.285-3.363-7.285-7.686
			c0-4.191,3.1-7.564,7.285-7.564C378.032,381.54,381.12,384.913,381.12,389.104 M390.541,389.104
			c0-9.855-7.383-15.568-16.709-15.568c-9.318,0-16.706,5.713-16.706,15.568c0,9.848,7.457,15.699,16.706,15.699
			C383.159,404.804,390.541,398.89,390.541,389.104"/>
		<path id="path168" d="M402.914,374.466v15.27c0,4.326,1.098,7.213,5.697,7.213c4.52,0,5.656-2.887,5.656-7.213v-15.27h8.92v16.271
			c0,9.514-5.266,14.059-14.578,14.059c-9.326,0-14.615-4.545-14.615-14.059v-16.271H402.914z"/>
		<path id="path172" d="M450.055,389.202c0,4.525-2.994,7.754-7.055,7.754c-4.064,0-7.127-3.424-7.127-7.754
			c0-4.324,3.062-7.811,7.127-7.811C447.121,381.391,450.055,384.815,450.055,389.202 M459.504,389.274
			c0-10.055-5.592-15.742-13.514-15.742c-4.262,0-7.783,1.934-9.787,4.789v-3.789h-8.918v43.717h8.918v-17.705
			c2.398,3.131,6.061,4.258,9.787,4.258C453.649,404.802,459.504,399.325,459.504,389.274"/>
		<path id="path176" d="M459.051,344.786h12.029v8.653h-21.744v-42.471h9.715V344.786z"/>
		<path id="path178" d="M482.928,324.098h-8.918v29.336h8.918V324.098z M483.594,314.475c0-2.8-2.264-5.126-5.123-5.126
			c-2.805,0-5.064,2.326-5.064,5.126c0,2.795,2.264,5.126,5.064,5.126C481.33,319.601,483.594,317.27,483.594,314.475"/>
		<path id="path182" d="M495.061,327.828c2.467-3.528,5.996-4.662,9.986-4.662c7.791,0,10.182,4.859,10.182,11.984v18.289h-8.914
			v-14.762c0-3.401,0-8.053-5.258-8.053c-4.529,0-5.994,3.127-5.994,7.387v15.428h-8.92v-29.343h8.92v3.731H495.061z"/>
		<path id="path186" d="M539.489,334.911h-12.441c0.389-3.28,2.785-5.821,6.314-5.821
			C536.756,329.09,539.219,331.514,539.489,334.911 M548.647,340.832v-2.64c0-9.338-5.762-15.029-15.816-15.029
			c-9.656,0-15.273,6.021-15.273,15.609c0,9.985,6.217,15.598,16.006,15.598c6.59,0,13.016-2.396,14.684-9.249h-9.16
			c-1.135,1.929-3.395,2.659-5.594,2.659c-3.924,0-6.584-2.283-6.65-6.948H548.647L548.647,340.832z"/>
		<path id="path190" d="M436.166,353.444l-8.918-0.001v-20.144h-3.188v-8.242h3.188v-9.385h8.918v9.391h4.969v8.238h-4.969V353.444z
			"/>
	</g>
</g>
</svg>
