<?xml version="1.0" encoding="utf-8"?>
<!-- Generator: Adobe Illustrator 16.0.0, SVG Export Plug-In . SVG Version: 6.00 Build 0)  -->
<!DOCTYPE svg PUBLIC "-//W3C//DTD SVG 1.1//EN" "http://www.w3.org/Graphics/SVG/1.1/DTD/svg11.dtd">
<svg version="1.1" id="Layer_1" xmlns="http://www.w3.org/2000/svg" xmlns:xlink="http://www.w3.org/1999/xlink" x="0px" y="0px"
	 width="640px" height="360px" viewBox="0 0 640 360" enable-background="new 0 0 640 360" xml:space="preserve">
<g>
	<g>
		<g>
			<g>
				<g>
					<g>
						<defs>
							<path id="SVGID_1_" d="M96.491,170.837c-1.536,0-4.648,1.827-5.811,4.161l-16.195,39.246
								c-0.348,0.691-0.271,1.299-0.271,1.875v0.119c0,1.316,0.699,2.939,2.216,2.939h5.741c2.212,0,4.947-2.266,6.114-4.602
								l12.919-26.229l3.733,25.961c0.315,2.152,2.091,3.859,4.099,4.127l8.421-17.012l-1.743-26.441
								c-0.34-2.34-2.407-4.202-4.623-4.202H96.491V170.837z M225.065,170.787c-1.898,0-3.883,1.299-5.218,3.478
								c0,0-9.625,15.689-9.782,16.585l-0.099,0.84c-0.483,2.721,1.338,5.211,4.062,5.211h7.397l-0.37,18.738
								c-0.106,1.732,1.112,2.932,2.904,2.932c1.788,0,3.488-1.129,3.993-2.865L234.2,196.9h7.748c2.727,0,5.328-2.5,5.807-5.221
								l0.098-0.701c0.161-0.9-3.927-16.639-3.927-16.639c-0.566-2.183-2.077-3.553-3.974-3.553H225.065L225.065,170.787z
								 M242.222,136.219l-3.814,4.938c-0.449,0.558-1.217,0.432-1.474-0.128l-2.157-4.811H232.1c-1.941,0-3.942,1.458-5.251,3.418
								l-6.728,9.083c-1.316,1.953-1.74,4.431-1.115,6.386l3.569,9.197c0.622,1.962,2.199,3.405,4.132,3.405h12.801
								c1.938,0,3.939-1.413,5.252-3.374l6.728-9.061c1.316-1.958,1.737-4.418,1.119-6.379l-3.573-9.228
								c-0.622-1.961-2.199-3.448-4.132-3.448H242.222L242.222,136.219z M114.152,136.219l-3.773,4.887
								c-0.447,0.558-1.2,0.47-1.455-0.094l-2.114-4.793h-3.32c-2.113,0-4.281,1.392-5.682,3.364l-5.711,9.086
								c-1.404,1.967-1.836,4.43-1.123,6.404l2.538,9.224c0.709,1.968,2.45,3.411,4.563,3.411h13.986
								c2.117,0,4.286-1.421,5.69-3.382l5.706-9.107c1.405-1.973,1.831-4.436,1.12-6.407l-2.53-9.203
								c-0.713-1.969-2.456-3.39-4.569-3.39H114.152L114.152,136.219z M230.663,123.142c-0.991,5.621,2.783,10.184,8.437,10.184
								c5.649,0,11.032-4.556,12.02-10.184c0.995-5.616-2.783-10.179-8.429-10.179C237.037,112.963,231.654,117.526,230.663,123.142
								 M102.491,122.949c-0.998,5.647,2.776,10.228,8.425,10.228c5.65,0,11.037-4.58,12.031-10.228
								c0.996-5.653-2.776-10.23-8.421-10.23C108.872,112.718,103.482,117.295,102.491,122.949 M152.148,159.242
								c0.79-1.422,0.734-2.73,0.734-2.73l0.526-15.989l3.333-4.303h4.869c2.132,0,3.898,1.392,4.622,3.358l2.575,9.09
								c0.72,1.969,0.293,4.432-1.123,6.402l-7.267,9.228c-1.413,1.968-3.603,3.411-5.737,3.411h-14.128
								c-2.135,0-3.896-1.421-4.614-3.388l-4.098-9.102c-0.722-1.973-0.295-4.442,1.119-6.41l5.754-9.2
								c1.41-1.969,3.598-3.39,5.734-3.39h4.875l1.913,4.375l-5.023,15.814c0,0-0.515,1.36-0.228,2.783
								c0.289,1.421,2.167,5.202,2.167,5.202S151.359,160.661,152.148,159.242 M197.23,137.165l0.136-0.945h5.171
								c2.135,0,3.897,1.392,4.618,3.364l2.578,9.086c0.721,1.967,0.292,4.43-1.122,6.404l-7.27,9.224
								c-1.408,1.968-3.602,3.411-5.734,3.411h-14.125c-2.139,0-3.894-1.421-4.618-3.382l-4.095-9.107
								c-0.72-1.973-0.293-4.436,1.123-6.407l5.748-9.203c1.416-1.969,3.603-3.39,5.738-3.39h5.145l-0.136,0.945
								c-0.333,1.893,0.929,3.424,2.823,3.424C195.095,140.588,196.897,139.057,197.23,137.165 M145.208,122.949
								c0.996-5.653,6.381-10.23,12.031-10.23c5.648,0,9.422,4.577,8.424,10.23c-0.995,5.647-6.381,10.228-12.028,10.228
								C147.984,133.176,144.21,128.596,145.208,122.949 M186.133,122.949c0.997-5.653,6.384-10.23,12.034-10.23
								c5.649,0,9.419,4.577,8.425,10.23c-0.999,5.647-6.384,10.228-12.034,10.228S185.138,128.596,186.133,122.949 M160.997,90.134
								c-11.964,0-23.369,9.475-25.48,21.434l-3.857,21.758l-10.854,61.524l9.847-19.845c1.167-2.337,3.904-4.218,6.117-4.218
								h20.495c2.212,0,4.277,1.849,4.614,4.188l2.179,15.148l7.522-15.14c1.159-2.34,3.898-4.196,6.11-4.196h1.101l3.298,22.979
								L171.923,214.6c-1.16,2.332-3.895,4.578-6.107,4.578h-13.51c-2.212,0-4.284-2.266-4.622-4.602l-3.742-26.275l-12.941,26.371
								c-1.166,2.33-3.899,4.506-6.115,4.506h-8.247l-8.081,45.201c-0.593,3.359,1.649,5.486,5.009,5.486h15.581h28.431h13.427
								c11.968,0,23.369-9.105,25.484-21.064l5.327-29.623h-8.586c-2.209,0-4.278-2.289-4.618-4.625l-0.38-3.055h-9.485
								c-0.962,0-1.382-0.762-0.937-1.725l1.617-3.855c0.45-0.965,1.594-2.107,2.559-2.107h5.24l-4.855-33.024h15.818
								c2.216,0,4.279,1.849,4.619,4.188l2.995,20.863l14.897-84.488l2.75-15.356c0.585-3.357-1.652-5.859-5.009-5.859H160.997
								L160.997,90.134z"/>
						</defs>
						<clipPath id="SVGID_2_">
							<use xlink:href="#SVGID_1_"  overflow="visible"/>
						</clipPath>
						
							<linearGradient id="SVGID_3_" gradientUnits="userSpaceOnUse" x1="-312.5239" y1="282.8613" x2="-311.0193" y2="282.8613" gradientTransform="matrix(109.1609 19.248 -19.248 109.1609 39642.6836 -24696.1641)">
							<stop  offset="0" style="stop-color:#000000"/>
							<stop  offset="0.3919" style="stop-color:#000000"/>
							<stop  offset="0.5034" style="stop-color:#000000"/>
							<stop  offset="0.7448" style="stop-color:#000000"/>
							<stop  offset="1" style="stop-color:#000000"/>
						</linearGradient>
						<polygon clip-path="url(#SVGID_2_)" fill="url(#SVGID_3_)" points="43.118,264.873 247.82,300.967 284.116,95.133 
							79.414,59.035 						"/>
					</g>
				</g>
			</g>
		</g>
	</g>
	<g>
		<g>
			<g>
				<g>
					<g>
						<defs>
							<rect id="SVGID_4_" x="74.214" y="90.134" width="491.578" height="179.731"/>
						</defs>
						<clipPath id="SVGID_5_">
							<use xlink:href="#SVGID_4_"  overflow="visible"/>
						</clipPath>
						<path clip-path="url(#SVGID_5_)" d="M289.283,143.898v-41.787c0-0.086,0.97-0.172,1.693-0.253
							c0.723-0.084,1.448-0.128,2.171-0.128c1.361,0,2.422,0.236,3.178,0.701c0.757,0.468,1.379,1.186,1.979,2.153l16.324,26.745
							v-29.289l1.072-0.118l0.92-0.129c0.289-0.044,0.592-0.061,0.883-0.061c0.592,0,1.234,0.061,1.893,0.189
							c0.658,0.118,1.251,0.355,1.777,0.697c0.526,0.339,0.6,0.84,0.966,1.49c0.358,0.646,0.168,1.503,0.168,2.557v37.231h-6.619
							l-17.957-27.303v27.303H289.283L289.283,143.898z"/>
					</g>
				</g>
			</g>
		</g>
		<g>
			<g>
				<g>
					<g>
						<defs>
							<rect id="SVGID_6_" x="74.214" y="90.134" width="491.578" height="179.731"/>
						</defs>
						<clipPath id="SVGID_7_">
							<use xlink:href="#SVGID_6_"  overflow="visible"/>
						</clipPath>
						<path clip-path="url(#SVGID_7_)" d="M329.495,107.595c-0.785-0.875-1.17-2.004-1.17-3.397c0-1.388,0.389-2.526,1.17-3.423
							c0.775-0.894,1.727-1.339,2.867-1.339c1.251,0,2.333,0.445,3.247,1.339c0.91,0.896,1.37,2.035,1.37,3.423
							c0,1.394-0.448,2.522-1.359,3.397c-0.9,0.866-1.985,1.304-3.266,1.304C331.222,108.899,330.267,108.466,329.495,107.595
							 M327.683,139.289v-24.806c0-0.039,0.643-0.091,1.279-0.157c0.637-0.061,1.448-0.091,2.113-0.091
							c0.666,0,1.426,0.062,2.1,0.187c0.672,0.123,1.326,0.368,1.871,0.725c0.542,0.365,0.992,0.877,1.332,1.535
							c0.34,0.665,0.519,1.529,0.519,2.583v25.646c0,0.085-0.53,0.146-1.126,0.19c-0.6,0.035-1.225,0.059-1.905,0.059
							c-0.845,0-1.599-0.072-2.264-0.214c-0.665-0.146-1.235-0.422-1.718-0.826c-0.49-0.4-0.824-0.944-1.098-1.626
							c-0.277-0.683-0.746-1.584-0.746-2.636"/>
					</g>
				</g>
			</g>
		</g>
		<g>
			<g>
				<g>
					<g>
						<defs>
							<rect id="SVGID_8_" x="74.214" y="90.134" width="491.578" height="179.731"/>
						</defs>
						<clipPath id="SVGID_9_">
							<use xlink:href="#SVGID_8_"  overflow="visible"/>
						</clipPath>
						<path clip-path="url(#SVGID_9_)" d="M342.074,129.436c0-3.224,0.526-5.859,1.576-7.893c1.049-2.041,2.348-3.649,3.884-4.825
							c1.539-1.177,3.184-1.99,4.939-2.439c1.756-0.439,3.332-0.663,4.74-0.663c1.732,0,3.349,0.185,4.822,0.558
							c1.473,0.364,2.703,0.862,3.675,1.499c0.804,0.518,1.371,1.007,1.688,1.458c0.32,0.464,0.484,1.01,0.484,1.65
							c0,0.6-0.191,1.331-0.578,2.193c-0.377,0.854-0.87,1.645-1.474,2.377c-0.681-0.732-1.679-1.452-2.987-2.179
							c-1.316-0.709-2.772-1.068-4.363-1.068c-2.79,0-4.783,0.854-5.968,2.573c-1.188,1.72-1.787,3.918-1.787,6.604
							c0,1.368,0.124,2.663,0.372,3.856c0.249,1.198,0.681,2.244,1.303,3.136c0.621,0.896,1.411,1.604,2.384,2.115
							c0.977,0.505,2.184,0.76,3.634,0.76c0.93,0,1.774-0.11,2.523-0.33c0.762-0.22,1.434-0.482,2.037-0.797
							c0.592-0.312,1.108-0.644,1.536-1.014c0.421-0.36,0.735-0.668,0.942-0.921c0.473,0.516,0.955,1.262,1.445,2.223
							c0.486,0.968,0.727,1.782,0.727,2.47c0,0.408-0.087,0.82-0.262,1.229c-0.176,0.41-0.55,0.822-1.101,1.232
							c-0.813,0.597-1.953,1.14-3.431,1.647c-1.481,0.499-3.357,0.75-5.631,0.75c-1.529,0-3.178-0.214-4.955-0.642
							c-1.773-0.423-3.412-1.229-4.918-2.419c-1.51-1.191-2.766-2.821-3.766-4.913C342.575,135.561,342.074,132.826,342.074,129.436
							"/>
					</g>
				</g>
			</g>
		</g>
		<g>
			<g>
				<g>
					<g>
						<defs>
							<rect id="SVGID_10_" x="74.214" y="90.134" width="491.578" height="179.731"/>
						</defs>
						<clipPath id="SVGID_11_">
							<use xlink:href="#SVGID_10_"  overflow="visible"/>
						</clipPath>
						<path clip-path="url(#SVGID_11_)" d="M369.931,143.898V99.564c0-0.039,0.863-0.095,1.508-0.157
							c0.646-0.062,1.57-0.093,2.244-0.093c0.68,0,1.492,0.063,2.173,0.187c0.683,0.122,1.362,0.371,1.911,0.734
							s0.758,0.877,1.102,1.542c0.344,0.666,0.277,1.527,0.277,2.588v12.689c0-0.361,1.016-0.752,1.521-1.164
							c0.512-0.408,1.265-0.793,1.99-1.145c0.715-0.349,1.623-0.632,2.569-0.83c0.948-0.204,2.073-0.307,3.291-0.307
							c2.995,0,5.239,0.592,6.688,1.771c1.447,1.182,2.384,2.75,2.797,4.72c0.213,0.971,0.252,2.023,0.325,3.161
							c0.073,1.137,0.019,2.252,0.019,3.349v17.289h-8.447v-17.023c0-0.935-0.04-1.805-0.105-2.625
							c-0.059-0.811-0.227-1.501-0.49-2.078c-0.277-0.567-0.721-1.019-1.339-1.343c-0.621-0.321-1.484-0.483-2.581-0.483
							c-1.572,0-3.182,0.328-4.301,0.984c-1.111,0.659-1.938,1.472-1.938,2.453v20.115H369.931L369.931,143.898z"/>
					</g>
				</g>
			</g>
		</g>
		<g>
			<g>
				<g>
					<g>
						<defs>
							<rect id="SVGID_12_" x="74.214" y="90.134" width="491.578" height="179.731"/>
						</defs>
						<clipPath id="SVGID_13_">
							<use xlink:href="#SVGID_12_"  overflow="visible"/>
						</clipPath>
						<path clip-path="url(#SVGID_13_)" d="M403.075,129.623c0-2.161,0.324-4.211,0.957-6.146c0.645-1.947,1.588-3.643,2.828-5.113
							c1.246-1.461,2.818-2.617,4.734-3.47c1.908-0.852,4.136-1.277,6.681-1.277c2.658,0,4.919,0.426,6.794,1.277
							c1.876,0.859,3.397,2.009,4.561,3.453c1.162,1.446,2.007,3.126,2.533,5.042c0.527,1.915,0.783,3.926,0.783,6.033
							c0,2.103-0.264,4.126-0.783,6.063c-0.526,1.938-1.389,3.649-2.589,5.125c-1.202,1.493-2.761,2.674-4.658,3.561
							c-1.901,0.887-4.205,1.337-6.923,1.337c-2.709,0-5.002-0.436-6.878-1.302c-1.886-0.867-3.423-2.031-4.61-3.493
							c-1.186-1.463-2.059-3.148-2.607-5.068C403.349,133.728,403.075,131.724,403.075,129.623 M412.044,126.199
							c-0.216,1.086-0.314,2.206-0.314,3.345c0,1.135,0.096,2.277,0.283,3.424c0.182,1.135,0.508,2.159,0.972,3.06
							c0.464,0.914,1.112,1.637,1.938,2.179c0.826,0.54,1.854,0.811,3.07,0.811c1.262,0,2.312-0.271,3.148-0.811
							c0.842-0.542,1.489-1.265,1.953-2.179c0.469-0.9,0.786-1.925,0.951-3.06c0.164-1.142,0.244-2.296,0.244-3.467
							c0-1.137-0.08-2.26-0.244-3.378c-0.172-1.119-0.482-2.101-0.951-2.94c-0.46-0.846-1.1-1.531-1.901-2.054
							c-0.812-0.521-1.828-0.783-3.058-0.783c-1.232,0-2.26,0.27-3.09,0.819c-0.826,0.541-1.477,1.243-1.967,2.105
							C412.59,124.136,412.246,125.114,412.044,126.199"/>
					</g>
				</g>
			</g>
		</g>
		<g>
			<g>
				<g>
					<g>
						<defs>
							<rect id="SVGID_14_" x="74.214" y="90.134" width="491.578" height="179.731"/>
						</defs>
						<clipPath id="SVGID_15_">
							<use xlink:href="#SVGID_14_"  overflow="visible"/>
						</clipPath>
						<path clip-path="url(#SVGID_15_)" d="M435.984,139.289V99.751c0-0.045,1.104-0.096,1.745-0.162
							c0.635-0.057,1.686-0.094,2.357-0.094c0.67,0,1.544,0.068,2.227,0.193c0.682,0.121,1.394,0.369,1.949,0.725
							c0.542,0.361,0.531,0.877,0.879,1.53c0.34,0.663,0.059,1.525,0.059,2.584v40.383c0,0.085-0.11,0.146-0.707,0.183
							c-0.604,0.043-1.017,0.066-1.744,0.066c-0.721,0-1.283-0.078-1.93-0.22c-0.654-0.141-1.171-0.416-1.68-0.823
							c-0.504-0.397-1.25-0.941-1.554-1.623c-0.3-0.683-1.206-1.584-1.206-2.636"/>
					</g>
				</g>
			</g>
		</g>
		<g>
			<g>
				<g>
					<g>
						<defs>
							<rect id="SVGID_16_" x="74.214" y="90.134" width="491.578" height="179.731"/>
						</defs>
						<clipPath id="SVGID_17_">
							<use xlink:href="#SVGID_16_"  overflow="visible"/>
						</clipPath>
						<path clip-path="url(#SVGID_17_)" d="M450.056,136.135c0-2.124,0.52-3.863,1.561-5.214c1.043-1.348,2.355-2.414,3.921-3.188
							c1.575-0.777,3.287-1.312,5.134-1.596c1.843-0.29,3.533-0.099,5.046-0.185c0.526-0.034,1.024,0.278,1.507,0.278h1.017v-1.906
							c0-1.68-0.234-2.883-1.101-3.593c-0.866-0.717-2.183-1.07-4.143-1.07c-1.837,0-3.423,0.309-4.85,0.938
							c-1.43,0.622-2.794,1.33-4.154,2.104c-0.61-0.746-1.09-1.552-1.462-2.441c-0.366-0.876-0.549-1.549-0.549-1.99
							c0-0.597,0.337-1.168,1.006-1.712c0.661-0.546,1.579-1.044,2.724-1.481c1.156-0.447,2.477-0.801,3.967-1.068
							c1.493-0.263,3.076-0.402,4.752-0.402c2.324,0,4.292,0.243,5.912,0.715c1.612,0.471,2.922,1.203,3.927,2.19
							c1.01,0.991,1.536,2.225,1.972,3.718c0.424,1.488,0.453,3.215,0.453,5.191v11.844c0,3.315,0.673,5.712,1.652,7.23
							c-0.775,0.277-1.396,0.485-2.076,0.619c-0.666,0.13-1.32,0.188-2.041,0.188c-1.562,0-2.724-0.285-3.524-0.869
							c-0.806-0.582-1.302-1.404-1.515-2.474c-0.928,0.943-2.149,1.749-3.678,2.414c-1.532,0.661-3.387,1-5.574,1
							c-1.158,0-2.32-0.162-3.488-0.472c-1.17-0.318-2.229-0.835-3.177-1.553c-0.948-0.724-1.722-1.667-2.317-2.857
							C450.354,139.316,450.056,137.852,450.056,136.135 M458.363,135.475c0,1.201,0.341,2.222,1.01,3.058
							c0.669,0.842,1.81,1.265,3.419,1.265c0.805,0,1.564-0.108,2.285-0.312c0.725-0.214,1.357-0.498,1.905-0.842
							c0.541-0.344,0.724-0.725,1.038-1.127c0.322-0.42,0.227-0.784,0.227-1.122v-6.316h-0.383c-0.289,0-0.594-0.116-0.9-0.071
							c-1.05,0.081-2.096,0.142-3.119,0.307c-1.038,0.169-1.949,0.432-2.758,0.864c-0.796,0.435-1.455,0.98-1.959,1.665
							C458.623,133.542,458.363,134.41,458.363,135.475"/>
					</g>
				</g>
			</g>
		</g>
		<g>
			<g>
				<g>
					<g>
						<defs>
							<rect id="SVGID_18_" x="74.214" y="90.134" width="491.578" height="179.731"/>
						</defs>
						<clipPath id="SVGID_19_">
							<use xlink:href="#SVGID_18_"  overflow="visible"/>
						</clipPath>
						<path clip-path="url(#SVGID_19_)" d="M480.176,140.969c0-0.718,0.22-1.465,0.649-2.238c0.433-0.769,0.93-1.579,1.493-2.421
							c0.373,0.333,0.854,0.681,1.44,1.033c0.585,0.363,1.251,0.705,1.989,1.015c0.743,0.319,1.544,0.582,2.392,0.786
							c0.863,0.201,1.74,0.307,2.64,0.307c0.556,0,1.128-0.04,1.72-0.12c0.584-0.083,1.096-0.256,1.539-0.513
							c0.438-0.249,0.811-0.593,1.107-1.017c0.301-0.414,0.45-0.956,0.45-1.617c0-1.208-0.473-2.075-1.423-2.61
							c-0.947-0.528-2.361-0.986-4.26-1.36c-1.225-0.24-2.418-0.577-3.58-1.012c-1.162-0.427-2.201-0.992-3.108-1.67
							c-0.899-0.694-1.623-1.566-2.171-2.62c-0.541-1.061-0.812-2.34-0.812-3.846c0-1.513,0.344-2.854,1.031-4.023
							c0.688-1.168,1.598-2.165,2.729-2.979c1.125-0.809,2.436-1.423,3.938-1.831c1.503-0.412,3.067-0.623,4.695-0.623
							c1.686,0,3.185,0.128,4.516,0.381c1.324,0.245,2.465,0.597,3.43,1.036c1.85,0.778,2.815,1.783,2.896,3.025
							c0,0.648-0.201,1.417-0.6,2.294c-0.395,0.878-0.834,1.699-1.309,2.45c-0.402-0.321-0.914-0.665-1.522-1.024
							c-0.606-0.357-1.29-0.694-2.048-1.001c-0.76-0.307-1.55-0.569-2.375-0.786c-0.816-0.217-1.65-0.321-2.488-0.321
							c-0.475,0-0.964,0.031-1.469,0.091c-0.506,0.059-0.959,0.188-1.36,0.388c-0.402,0.194-0.739,0.46-1.002,0.811
							c-0.267,0.349-0.402,0.827-0.402,1.42c0,1.433,1.536,2.487,4.6,3.17c1.259,0.237,2.509,0.567,3.763,0.966
							c1.251,0.396,2.369,0.959,3.354,1.666c0.986,0.703,1.78,1.613,2.385,2.705c0.606,1.102,0.91,2.47,0.91,4.112
							c0,1.686-0.326,3.188-0.97,4.494c-0.649,1.31-1.543,2.407-2.684,3.298c-1.142,0.88-2.479,1.557-4.004,2.021
							c-1.536,0.457-3.203,0.699-5.006,0.699c-1.884,0-3.481-0.14-4.782-0.422c-1.303-0.277-2.385-0.608-3.241-0.975
							c-0.606-0.25-1.265-0.619-1.978-1.12C480.533,142.494,480.176,141.821,480.176,140.969"/>
					</g>
				</g>
			</g>
		</g>
		<g>
			<g>
				<g>
					<g>
						<defs>
							<rect id="SVGID_20_" x="74.214" y="90.134" width="491.578" height="179.731"/>
						</defs>
						<clipPath id="SVGID_21_">
							<use xlink:href="#SVGID_20_"  overflow="visible"/>
						</clipPath>
						<path clip-path="url(#SVGID_21_)" d="M289.265,203.811l14.737-41.882c0.519-0.212,1.232-0.389,2.142-0.569
							c0.911-0.183,1.895-0.271,2.947-0.271c0.477,0,0.996,0.051,1.565,0.133c0.566,0.086,1.126,0.268,1.675,0.532
							c0.549,0.269,1.064,0.661,1.551,1.184c0.482,0.514,0.885,1.172,1.191,2.057l13.654,38.817h-9.032l-3.599-9.982h-14.702
							l-3.471,9.982H289.265L289.265,203.811z M303.072,187.68h11.354l-5.591-18.08L303.072,187.68z"/>
					</g>
				</g>
			</g>
		</g>
		<g>
			<g>
				<g>
					<g>
						<defs>
							<rect id="SVGID_22_" x="74.214" y="90.134" width="491.578" height="179.731"/>
						</defs>
						<clipPath id="SVGID_23_">
							<use xlink:href="#SVGID_22_"  overflow="visible"/>
						</clipPath>
						<path clip-path="url(#SVGID_23_)" d="M330.798,200.344c0-0.723,0.216-1.463,0.65-2.236c0.424-0.773,0.926-1.58,1.492-2.424
							c0.372,0.328,0.855,0.676,1.439,1.031c0.586,0.363,1.244,0.699,1.989,1.012c0.743,0.326,1.544,0.58,2.393,0.789
							c0.855,0.207,1.741,0.305,2.64,0.305c0.556,0,1.127-0.041,1.712-0.119c0.592-0.086,1.104-0.25,1.547-0.506
							c0.438-0.256,0.812-0.6,1.107-1.018c0.296-0.42,0.446-0.957,0.446-1.615c0-1.213-0.469-2.086-1.423-2.617
							c-0.943-0.529-2.366-0.98-4.259-1.354c-1.227-0.24-2.414-0.584-3.584-1.01c-1.163-0.434-2.193-0.994-3.102-1.682
							c-0.898-0.688-1.624-1.555-2.172-2.617c-0.541-1.055-0.814-2.338-0.814-3.848c0-1.508,0.347-2.846,1.034-4.02
							c0.687-1.168,1.599-2.153,2.721-2.971c1.134-0.813,2.442-1.428,3.945-1.842c1.503-0.408,3.067-0.616,4.691-0.616
							c1.683,0,3.188,0.132,4.513,0.381c1.327,0.247,2.472,0.591,3.437,1.038c1.851,0.773,2.815,1.776,2.896,3.016
							c0,0.656-0.202,1.425-0.596,2.292c-0.399,0.886-0.839,1.707-1.313,2.458c-0.409-0.33-0.914-0.668-1.521-1.029
							c-0.61-0.355-1.291-0.693-2.055-1c-0.754-0.308-1.543-0.57-2.369-0.787c-0.819-0.21-1.648-0.32-2.494-0.32
							c-0.472,0-0.966,0.036-1.47,0.093c-0.497,0.059-0.954,0.192-1.354,0.385c-0.402,0.194-0.739,0.465-1.005,0.816
							c-0.268,0.344-0.398,0.823-0.398,1.417c0,1.432,1.527,2.488,4.592,3.168c1.258,0.244,2.517,0.568,3.767,0.973
							c1.251,0.396,2.37,0.955,3.357,1.66c0.979,0.711,1.776,1.615,2.384,2.715c0.604,1.098,0.906,2.461,0.906,4.104
							c0,1.691-0.324,3.193-0.973,4.498c-0.646,1.307-1.543,2.412-2.676,3.293c-1.141,0.881-2.479,1.562-4.008,2.027
							c-1.535,0.463-3.199,0.691-5.01,0.691c-1.876,0-3.475-0.133-4.775-0.414c-1.309-0.277-2.392-0.605-3.248-0.979
							c-0.606-0.248-1.265-0.621-1.971-1.109C331.155,201.859,330.798,201.191,330.798,200.344"/>
					</g>
				</g>
			</g>
		</g>
		<g>
			<g>
				<g>
					<g>
						<defs>
							<rect id="SVGID_24_" x="74.214" y="90.134" width="491.578" height="179.731"/>
						</defs>
						<clipPath id="SVGID_25_">
							<use xlink:href="#SVGID_24_"  overflow="visible"/>
						</clipPath>
						<path clip-path="url(#SVGID_25_)" d="M357.462,200.344c0-0.723,0.212-1.463,0.647-2.236c0.427-0.773,0.925-1.58,1.491-2.424
							c0.373,0.328,0.855,0.676,1.438,1.031c0.593,0.363,1.25,0.699,1.996,1.012c0.738,0.326,1.535,0.58,2.393,0.789
							c0.854,0.207,1.74,0.305,2.631,0.305c0.561,0,1.131-0.041,1.713-0.119c0.592-0.086,1.104-0.25,1.547-0.506
							c0.442-0.256,0.814-0.6,1.115-1.018c0.292-0.42,0.441-0.957,0.441-1.615c0-1.213-0.464-2.086-1.414-2.617
							c-0.951-0.529-2.369-0.98-4.265-1.354c-1.229-0.24-2.417-0.584-3.583-1.01c-1.162-0.434-2.201-0.994-3.094-1.682
							c-0.914-0.688-1.631-1.555-2.18-2.617c-0.541-1.055-0.819-2.338-0.819-3.848c0-1.508,0.349-2.846,1.031-4.02
							c0.696-1.168,1.599-2.153,2.728-2.971c1.127-0.813,2.443-1.428,3.943-1.842c1.506-0.408,3.067-0.616,4.691-0.616
							c1.686,0,3.185,0.132,4.516,0.381c1.331,0.247,2.472,0.591,3.438,1.038c1.85,0.773,2.815,1.776,2.896,3.016
							c0,0.656-0.206,1.425-0.602,2.292c-0.401,0.886-0.836,1.707-1.309,2.458c-0.409-0.33-0.922-0.668-1.524-1.029
							c-0.604-0.355-1.29-0.693-2.052-1c-0.756-0.308-1.546-0.57-2.369-0.787c-0.823-0.21-1.653-0.32-2.493-0.32
							c-0.476,0-0.966,0.036-1.471,0.093c-0.501,0.059-0.958,0.192-1.356,0.385c-0.398,0.194-0.742,0.465-1.006,0.816
							c-0.267,0.344-0.402,0.823-0.402,1.417c0,1.432,1.536,2.488,4.601,3.168c1.258,0.244,2.512,0.568,3.763,0.973
							c1.254,0.396,2.369,0.955,3.357,1.66c0.982,0.711,1.776,1.615,2.387,2.715c0.601,1.098,0.908,2.461,0.908,4.104
							c0,1.691-0.322,3.193-0.974,4.498c-0.651,1.307-1.543,2.412-2.685,3.293c-1.133,0.881-2.471,1.562-4,2.027
							c-1.535,0.463-3.203,0.691-5.009,0.691c-1.881,0-3.475-0.133-4.78-0.414c-1.305-0.277-2.387-0.605-3.243-0.979
							c-0.606-0.248-1.265-0.621-1.975-1.109C357.82,201.859,357.462,201.191,357.462,200.344"/>
					</g>
				</g>
			</g>
		</g>
		<g>
			<g>
				<g>
					<g>
						<defs>
							<rect id="SVGID_26_" x="74.214" y="90.134" width="491.578" height="179.731"/>
						</defs>
						<clipPath id="SVGID_27_">
							<use xlink:href="#SVGID_26_"  overflow="visible"/>
						</clipPath>
						<path clip-path="url(#SVGID_27_)" d="M384.828,188.99c0-2.154,0.321-4.207,0.966-6.146c0.635-1.945,1.579-3.649,2.814-5.115
							c1.248-1.459,2.824-2.613,4.736-3.471c1.908-0.848,4.143-1.271,6.68-1.271c2.663,0,4.923,0.424,6.799,1.277
							c1.868,0.858,3.393,2.003,4.556,3.449c1.163,1.45,2.009,3.128,2.534,5.042c0.526,1.914,0.783,3.924,0.783,6.031
							c0,2.104-0.264,4.133-0.783,6.066c-0.525,1.936-1.387,3.648-2.589,5.135c-1.199,1.486-2.757,2.674-4.659,3.553
							c-1.901,0.885-4.212,1.332-6.914,1.332c-2.71,0-5.006-0.436-6.886-1.301c-1.886-0.863-3.423-2.033-4.61-3.488
							c-1.186-1.461-2.059-3.148-2.607-5.066C385.099,193.098,384.828,191.096,384.828,188.99 M393.794,185.57
							c-0.208,1.094-0.314,2.203-0.314,3.344c0,1.133,0.088,2.281,0.281,3.412c0.188,1.145,0.509,2.166,0.969,3.066
							c0.469,0.908,1.116,1.629,1.946,2.17c0.826,0.553,1.847,0.818,3.071,0.818c1.258,0,2.308-0.266,3.145-0.818
							c0.842-0.541,1.492-1.262,1.961-2.17c0.467-0.9,0.778-1.922,0.942-3.066c0.165-1.139,0.249-2.285,0.249-3.467
							c0-1.125-0.084-2.256-0.249-3.375c-0.164-1.117-0.476-2.096-0.942-2.939c-0.469-0.842-1.102-1.525-1.91-2.05
							c-0.811-0.524-1.824-0.787-3.053-0.787c-1.236,0-2.264,0.278-3.09,0.818c-0.826,0.541-1.484,1.252-1.967,2.107
							C394.343,183.502,393.999,184.484,393.794,185.57"/>
					</g>
				</g>
			</g>
		</g>
		<g>
			<g>
				<g>
					<g>
						<defs>
							<rect id="SVGID_28_" x="74.214" y="90.134" width="491.578" height="179.731"/>
						</defs>
						<clipPath id="SVGID_29_">
							<use xlink:href="#SVGID_28_"  overflow="visible"/>
						</clipPath>
						<path clip-path="url(#SVGID_29_)" d="M418.023,188.807c0-3.227,0.526-5.859,1.579-7.9c1.046-2.033,2.34-3.642,3.885-4.818
							c1.535-1.179,3.18-1.989,4.936-2.437c1.755-0.447,3.334-0.665,4.738-0.665c1.738,0,3.347,0.185,4.82,0.555
							c1.48,0.366,2.706,0.87,3.675,1.5c0.812,0.519,1.37,1.005,1.696,1.459c0.318,0.465,0.476,1.01,0.476,1.648
							c0,0.601-0.19,1.333-0.571,2.194c-0.383,0.852-0.877,1.647-1.473,2.374c-0.688-0.727-1.686-1.447-2.994-2.178
							c-1.312-0.708-2.766-1.069-4.363-1.069c-2.786,0-4.783,0.859-5.968,2.579c-1.188,1.719-1.78,3.916-1.78,6.604
							c0,1.375,0.121,2.662,0.365,3.854c0.252,1.203,0.688,2.244,1.305,3.137c0.623,0.9,1.416,1.602,2.389,2.107
							c0.969,0.514,2.183,0.768,3.631,0.768c0.926,0,1.77-0.109,2.523-0.33c0.757-0.211,1.437-0.486,2.033-0.793
							c0.6-0.314,1.115-0.656,1.535-1.018c0.424-0.361,0.742-0.666,0.944-0.912c0.478,0.516,0.961,1.25,1.447,2.215
							c0.483,0.965,0.725,1.787,0.725,2.469c0,0.408-0.087,0.822-0.264,1.232c-0.175,0.404-0.541,0.818-1.101,1.227
							c-0.808,0.598-1.949,1.143-3.43,1.65c-1.474,0.496-3.357,0.75-5.627,0.75c-1.529,0-3.186-0.209-4.952-0.637
							c-1.776-0.42-3.419-1.229-4.925-2.422c-1.504-1.184-2.762-2.826-3.764-4.914C418.527,194.939,418.023,192.195,418.023,188.807
							"/>
					</g>
				</g>
			</g>
		</g>
		<g>
			<g>
				<g>
					<g>
						<defs>
							<rect id="SVGID_30_" x="74.214" y="90.134" width="491.578" height="179.731"/>
						</defs>
						<clipPath id="SVGID_31_">
							<use xlink:href="#SVGID_30_"  overflow="visible"/>
						</clipPath>
						<path clip-path="url(#SVGID_31_)" d="M447.579,166.962c-0.777-0.871-1.162-2.004-1.162-3.396c0-1.391,0.385-2.527,1.162-3.424
							c0.779-0.892,1.734-1.336,2.871-1.336c1.248,0,2.338,0.444,3.244,1.336c0.918,0.896,1.375,2.038,1.375,3.424
							c0,1.392-0.457,2.524-1.356,3.396c-0.904,0.87-1.993,1.306-3.263,1.306C449.313,168.268,448.355,167.833,447.579,166.962
							 M445.206,199.205v-25.351c0-0.045,0.922-0.092,1.559-0.157c0.637-0.059,1.584-0.096,2.26-0.096
							c0.662,0,1.492,0.065,2.165,0.181c0.681,0.131,1.36,0.379,1.907,0.742c0.547,0.354,0.729,0.867,1.072,1.527
							c0.337,0.665,0.249,1.521,0.249,2.581v25.651c0,0.08-0.249,0.143-0.849,0.188c-0.592,0.035-1.082,0.059-1.755,0.059
							c-0.845,0-1.524-0.076-2.194-0.219c-0.67-0.148-1.199-0.418-1.689-0.816c-0.475-0.406-1.133-0.947-1.414-1.635
							c-0.275-0.682-1.01-1.734-1.01-2.787"/>
					</g>
				</g>
			</g>
		</g>
		<g>
			<g>
				<g>
					<g>
						<defs>
							<rect id="SVGID_32_" x="74.214" y="90.134" width="491.578" height="179.731"/>
						</defs>
						<clipPath id="SVGID_33_">
							<use xlink:href="#SVGID_32_"  overflow="visible"/>
						</clipPath>
						<path clip-path="url(#SVGID_33_)" d="M459.482,195.51c0-2.131,0.522-3.861,1.562-5.213c1.046-1.359,2.348-2.42,3.924-3.191
							c1.575-0.777,3.287-1.312,5.134-1.6c1.843-0.285,3.528-0.592,5.046-0.68c0.525-0.037,1.027-0.219,1.502-0.219h0.045v-0.912
							c0-1.682,0.253-2.885-0.613-3.597c-0.868-0.712-1.942-1.068-3.895-1.068c-1.84,0-3.303,0.32-4.736,0.94
							c-1.426,0.629-2.728,1.331-4.085,2.102c-0.613-0.742-1.063-1.555-1.43-2.438c-0.373-0.885-0.541-1.55-0.541-1.994
							c0-0.597,0.348-1.164,1.017-1.714c0.669-0.541,1.586-1.039,2.73-1.483c1.152-0.445,2.477-0.796,3.969-1.062
							c1.492-0.27,3.079-0.402,4.754-0.402c2.317,0,4.292,0.233,5.908,0.712c1.617,0.472,2.922,1.204,3.932,2.191
							c1.006,0.994,1.426,2.228,1.854,3.715c0.432,1.487,0.358,3.217,0.358,5.192v11.85c0,3.305,0.775,5.713,1.748,7.227
							c-0.76,0.287-1.339,0.488-2.011,0.617c-0.678,0.131-1.295,0.195-2.019,0.195c-1.565,0-2.714-0.283-3.519-0.877
							c-0.801-0.58-1.287-1.404-1.502-2.475c-0.934,0.949-2.15,1.756-3.676,2.418c-1.525,0.664-3.378,1-5.564,1
							c-1.16,0-2.322-0.162-3.489-0.479c-1.17-0.314-2.224-0.836-3.178-1.545c-0.943-0.719-1.722-1.664-2.321-2.859
							C459.786,198.678,459.482,197.223,459.482,195.51 M467.794,194.85c0,1.197,0.337,2.215,1.009,3.051
							c0.667,0.842,1.808,1.268,3.409,1.268c0.808,0,1.576-0.113,2.295-0.322c0.718-0.203,1.354-0.486,1.902-0.832
							c0.541-0.344,0.234-0.725,0.549-1.135c0.321-0.404-0.264-0.781-0.264-1.115v-6.551h0.6c-0.293,0-0.592,0-0.899,0.045
							c-1.054,0.084-2.101,0.205-3.13,0.369c-1.031,0.17-1.945,0.465-2.746,0.889c-0.808,0.434-1.459,0.992-1.965,1.684
							C468.042,192.896,467.794,193.775,467.794,194.85"/>
					</g>
				</g>
			</g>
		</g>
		<g>
			<g>
				<g>
					<g>
						<defs>
							<rect id="SVGID_34_" x="74.214" y="90.134" width="491.578" height="179.731"/>
						</defs>
						<clipPath id="SVGID_35_">
							<use xlink:href="#SVGID_34_"  overflow="visible"/>
						</clipPath>
						<path clip-path="url(#SVGID_35_)" d="M490.524,193.828v-29.439c1.535-0.039,1.207-0.084,1.561-0.128
							c0.289-0.034,0.903-0.066,1.248-0.088c0.342-0.018,0.826-0.027,1.162-0.027c0.684,0,1.44,0.057,2.113,0.185
							c0.676,0.128,1.33,0.377,1.887,0.761c0.567,0.38,0.709,0.906,1.045,1.564c0.33,0.662,0.199,1.518,0.199,2.57v4.63h8.449V180
							h-8.449v13.686c0,2.945,1.527,4.434,3.948,4.455c0.597,0,1.32-0.096,1.847-0.289c0.53-0.203,1.086-0.412,1.502-0.641
							c0.43-0.221,0.843-0.465,1.157-0.721c0.325-0.26,0.566-0.451,0.694-0.57c0.641,0.93,1.134,1.74,1.463,2.422
							c0.336,0.688,0.497,1.316,0.497,1.898c0,0.561-0.22,1.107-0.662,1.648c-0.442,0.525-1.071,1.018-1.876,1.467
							c-0.801,0.451-1.777,0.814-2.91,1.098c-1.137,0.281-2.389,0.422-3.752,0.422c-2.633,0-4.688-0.512-6.144-1.535
							c-1.466-1.027-2.497-2.355-3.101-3.988c-0.292-0.842-0.841-1.736-0.922-2.678c-0.08-0.943-0.723-1.744-0.723-2.668"/>
					</g>
				</g>
			</g>
		</g>
		<g>
			<g>
				<g>
					<g>
						<defs>
							<rect id="SVGID_36_" x="74.214" y="90.134" width="491.578" height="179.731"/>
						</defs>
						<clipPath id="SVGID_37_">
							<use xlink:href="#SVGID_36_"  overflow="visible"/>
						</clipPath>
						<path clip-path="url(#SVGID_37_)" d="M512.292,188.338c0-2.67,0.414-4.963,1.24-6.891c0.826-1.918,1.923-3.514,3.301-4.787
							c1.371-1.271,2.93-2.206,4.67-2.793c1.732-0.589,3.515-0.881,5.335-0.881c2.468,0,4.56,0.365,6.278,1.095
							c1.719,0.742,3.112,1.728,4.188,2.979c1.071,1.257,1.51,2.686,1.992,4.3c0.486,1.615,0.381,3.309,0.381,5.084v0.875
							c0,0.324,0.328,0.688,0.314,1.08l0.099,1.305c-0.022,0.352,0.113,1.053,0.077,1.053h-19.162
							c0.169,1.535,0.886,4.092,2.157,5.627c1.274,1.539,3.285,2.221,6.034,2.221c1.098,0,2.07-0.17,2.908-0.398
							c0.837-0.244,1.583-0.547,2.237-0.881c0.658-0.334,1.232-0.717,1.732-1.127l1.319-1.125c0.558,0.643,1.117,1.461,1.705,2.453
							c0.578,0.988,0.87,1.803,0.87,2.445c0,0.932-0.56,1.775-1.679,2.545c-0.924,0.68-2.234,1.262-3.926,1.748
							c-1.693,0.488-3.689,0.732-6.002,0.732c-1.984,0-3.938-0.256-5.864-0.76c-1.924-0.508-3.642-1.402-5.149-2.672
							c-1.506-1.271-2.729-2.977-3.656-5.115C512.752,194.312,512.292,191.604,512.292,188.338 M520.476,186.143h11.572
							c0-3.07-0.395-4.041-1.177-5.352c-0.786-1.306-2.193-2.092-4.22-2.092c-1.74,0-3.127,0.759-4.157,2.004
							c-1.031,1.24-1.861,2.377-1.861,5.389"/>
					</g>
				</g>
			</g>
		</g>
		<g>
			<g>
				<g>
					<g>
						<defs>
							<rect id="SVGID_38_" x="74.214" y="90.134" width="491.578" height="179.731"/>
						</defs>
						<clipPath id="SVGID_39_">
							<use xlink:href="#SVGID_38_"  overflow="visible"/>
						</clipPath>
						<path clip-path="url(#SVGID_39_)" d="M543.206,200.344c0-0.723,0.207-1.463,0.639-2.236s0.928-1.58,1.492-2.424
							c0.38,0.328,0.855,0.676,1.444,1.031c0.588,0.363,1.251,0.699,1.993,1.012c0.73,0.326,1.535,0.58,2.395,0.789
							c0.856,0.207,1.733,0.305,2.633,0.305c0.553,0,1.131-0.041,1.712-0.119c0.589-0.086,1.101-0.25,1.546-0.506
							c0.439-0.256,0.812-0.6,1.108-1.018c0.304-0.42,0.45-0.957,0.45-1.615c0-1.213-0.472-2.086-1.42-2.617
							c-0.95-0.529-2.368-0.98-4.263-1.354c-1.229-0.24-2.421-0.584-3.587-1.01c-1.163-0.434-2.193-0.994-3.098-1.682
							c-0.899-0.688-1.623-1.555-2.168-2.617c-0.545-1.055-0.815-2.338-0.815-3.848c0-1.508,0.343-2.846,1.03-4.02
							c0.688-1.168,1.595-2.153,2.721-2.971c1.127-0.813,2.439-1.428,3.941-1.842c1.504-0.408,3.065-0.616,4.697-0.616
							c1.681,0,3.188,0.132,4.515,0.381c1.327,0.247,2.468,0.591,3.437,1.038c1.844,0.773,2.809,1.776,2.895,3.016
							c0,0.656-0.199,1.425-0.601,2.292c-0.402,0.886-0.841,1.707-1.31,2.458c-0.409-0.33-0.91-0.668-1.521-1.029
							c-0.606-0.355-1.287-0.693-2.047-1c-0.762-0.308-1.551-0.57-2.373-0.787c-0.823-0.21-1.657-0.32-2.498-0.32
							c-0.468,0-0.965,0.036-1.47,0.093c-0.505,0.059-0.95,0.192-1.36,0.385c-0.395,0.194-0.731,0.465-1.002,0.816
							c-0.264,0.344-0.402,0.823-0.402,1.417c0,1.432,1.536,2.488,4.604,3.168c1.255,0.244,2.513,0.568,3.763,0.973
							c1.251,0.396,2.37,0.955,3.357,1.66c0.976,0.711,1.776,1.615,2.381,2.715c0.603,1.098,0.909,2.461,0.909,4.104
							c0,1.691-0.32,3.193-0.969,4.498c-0.654,1.307-1.543,2.412-2.684,3.293c-1.134,0.881-2.476,1.562-4.012,2.027
							c-1.521,0.463-3.195,0.691-5.002,0.691c-1.88,0-3.475-0.133-4.783-0.414c-1.301-0.283-2.384-0.605-3.246-0.979
							c-0.598-0.248-1.258-0.621-1.969-1.109C543.556,201.859,543.206,201.191,543.206,200.344"/>
					</g>
				</g>
			</g>
		</g>
		<g>
			<g>
				<g>
					<g>
						<defs>
							<rect id="SVGID_40_" x="74.214" y="90.134" width="491.578" height="179.731"/>
						</defs>
						<clipPath id="SVGID_41_">
							<use xlink:href="#SVGID_40_"  overflow="visible"/>
						</clipPath>
						<path clip-path="url(#SVGID_41_)" d="M289.265,254.795c0-0.395,0.162-0.902,0.49-1.514c0.318-0.598,0.695-1.176,1.134-1.717
							c1.156,0.93,2.52,1.74,4.11,2.443c1.586,0.701,3.283,1.053,5.101,1.053c1.394,0,2.557-0.18,3.477-0.533
							c0.93-0.367,1.669-0.828,2.228-1.396c0.56-0.572,0.966-1.23,1.218-1.961c0.253-0.74,0.381-1.5,0.381-2.291
							c0-1.002-0.153-1.879-0.462-2.639c-0.302-0.77-0.752-1.424-1.345-1.979c-0.592-0.547-1.339-1.027-2.227-1.424
							c-0.889-0.393-1.91-0.768-3.061-1.145c-1.328-0.396-2.596-0.844-3.807-1.348c-1.21-0.5-2.292-1.129-3.229-1.879
							c-0.944-0.752-1.705-1.689-2.278-2.805c-0.573-1.111-0.867-2.494-0.867-4.141c0-1.594,0.3-2.998,0.892-4.223
							c0.592-1.219,1.397-2.238,2.406-3.061c1.014-0.822,2.217-1.449,3.613-1.877c1.394-0.42,2.911-0.631,4.553-0.631
							c1.327,0,2.743,0.168,4.267,0.498c1.515,0.33,2.816,0.814,3.895,1.447c0.574,0.336,1.057,0.707,1.444,1.123
							c0.381,0.412,0.573,0.873,0.573,1.383c0,0.438-0.17,0.908-0.5,1.4c-0.332,0.508-0.749,1.014-1.254,1.521
							c-0.281-0.246-0.67-0.572-1.182-0.961c-0.504-0.4-1.119-0.768-1.824-1.107c-0.721-0.342-1.532-0.639-2.435-0.896
							c-0.904-0.256-1.905-0.381-2.984-0.381c-1.254,0-2.303,0.156-3.137,0.463c-0.837,0.307-1.514,0.705-2.029,1.186
							c-0.515,0.484-0.889,1.057-1.126,1.717c-0.235,0.674-0.354,1.354-0.354,2.033c0,0.891,0.178,1.668,0.537,2.318
							c0.358,0.646,0.877,1.215,1.557,1.697c0.68,0.484,1.503,0.916,2.473,1.309c0.965,0.396,2.08,0.791,3.327,1.191
							c1.244,0.389,2.428,0.863,3.554,1.432c1.127,0.555,2.114,1.25,2.97,2.07c0.855,0.828,1.542,1.811,2.068,2.934
							c0.52,1.131,0.783,2.482,0.783,4.064c0,1.775-0.293,3.35-0.885,4.707c-0.6,1.354-1.434,2.496-2.501,3.424
							c-1.071,0.922-2.348,1.617-3.836,2.088c-1.48,0.463-3.115,0.707-4.893,0.707c-1.971,0-3.798-0.213-5.496-0.637
							c-1.689-0.42-3.021-0.988-4-1.693C289.71,256.164,289.265,255.508,289.265,254.795"/>
					</g>
				</g>
			</g>
		</g>
		<g>
			<g>
				<g>
					<g>
						<defs>
							<rect id="SVGID_42_" x="74.214" y="90.134" width="491.578" height="179.731"/>
						</defs>
						<clipPath id="SVGID_43_">
							<use xlink:href="#SVGID_42_"  overflow="visible"/>
						</clipPath>
						<path clip-path="url(#SVGID_43_)" d="M315.665,250.811c-0.43-1.652-0.643-3.346-0.643-5.111s0.256-3.455,0.761-5.059
							c0.505-1.602,1.254-3.006,2.253-4.193c0.994-1.201,2.23-2.152,3.718-2.869c1.489-0.711,3.229-1.068,5.24-1.068
							c2.106,0,3.891,0.357,5.357,1.068c1.466,0.719,2.657,1.674,3.579,2.869c0.922,1.197,1.603,2.572,2.026,4.139
							c0.431,1.57,0.644,3.227,0.644,4.953c0,1.729-0.213,3.418-0.644,5.047c-0.424,1.637-1.104,3.084-2.048,4.336
							c-0.943,1.275-2.164,2.279-3.664,3.033c-1.495,0.756-3.316,1.139-5.463,1.139c-2.136,0-3.953-0.361-5.434-1.08
							c-1.492-0.721-2.699-1.688-3.635-2.914C316.774,253.885,316.093,252.449,315.665,250.811 M320.175,242.334
							c-0.223,1.076-0.333,2.164-0.333,3.262c0,1.092,0.091,2.197,0.285,3.334c0.19,1.123,0.556,2.139,1.097,3.045
							c0.534,0.904,1.255,1.645,2.144,2.221c0.884,0.58,2.025,0.865,3.415,0.865c1.426,0,2.607-0.285,3.529-0.865
							c0.922-0.576,1.641-1.316,2.139-2.221c0.512-0.906,0.848-1.922,1.043-3.045c0.193-1.137,0.288-2.242,0.288-3.334
							c0-1.098-0.095-2.186-0.288-3.262c-0.195-1.072-0.531-2.043-1.043-2.902c-0.498-0.859-1.195-1.557-2.084-2.096
							c-0.889-0.533-2.048-0.801-3.479-0.801c-1.355,0-2.489,0.268-3.396,0.801c-0.902,0.533-1.624,1.236-2.164,2.096
							C320.789,240.291,320.397,241.262,320.175,242.334"/>
					</g>
				</g>
			</g>
		</g>
		<g>
			<g>
				<g>
					<g>
						<defs>
							<rect id="SVGID_44_" x="74.214" y="90.134" width="491.578" height="179.731"/>
						</defs>
						<clipPath id="SVGID_45_">
							<use xlink:href="#SVGID_44_"  overflow="visible"/>
						</clipPath>
						<path clip-path="url(#SVGID_45_)" d="M343.047,258.283v-28.066c0-3.484,0.856-6.1,2.465-7.855
							c1.605-1.742,3.953-2.619,6.985-2.619c1.104,0,2.135,0.123,3.063,0.371c0.936,0.258,1.736,0.564,2.397,0.934
							c0.666,0.373,1.182,0.768,1.537,1.195c0.365,0.426,0.541,0.822,0.541,1.195c0,0.504-0.146,1.326-0.432,1.803
							c-0.289,0.477-0.596,0.082-0.929,1.615h-0.681c-0.61-1.533-1.353-1.66-2.229-2.102c-0.863-0.436-1.866-0.814-2.977-0.814
							c-1.603,0-2.882,0.344-3.768,1.209c-0.892,0.855-1.366,2.27-1.366,4.387v3.469h9.215v3.84h-9.215v21.502h-4.498
							L343.047,258.283z"/>
					</g>
				</g>
			</g>
		</g>
		<g>
			<g>
				<g>
					<g>
						<defs>
							<rect id="SVGID_46_" x="74.214" y="90.134" width="491.578" height="179.731"/>
						</defs>
						<clipPath id="SVGID_47_">
							<use xlink:href="#SVGID_46_"  overflow="visible"/>
						</clipPath>
						<path clip-path="url(#SVGID_47_)" d="M361.483,250.666v-25.344h-0.007c0.065,0,0.161,0.02,0.285-0.008
							c0.117-0.023,0.23-0.016,0.337-0.016c0.95,0,1.604,0.256,2.326,0.75c0.724,0.494,0.892,1.402,0.892,2.697v4.258h7.686v3.84
							h-7.686v13.846c0,2.914,1.349,4.371,3.671,4.371c0.574,0,1.199-0.094,1.697-0.285c0.5-0.191,0.986-0.42,1.378-0.686
							c0.396-0.273,0.749-0.529,1.021-0.785c0.274-0.248,0.449-0.426,0.526-0.531c0.432,0.545,0.804,1.066,1.104,1.559
							c0.293,0.5,0.446,0.984,0.446,1.461c0,0.316-0.161,0.672-0.487,1.061c-0.324,0.385-0.768,0.736-1.334,1.066
							c-0.562,0.342-1.271,0.605-2.113,0.842c-0.853,0.221-1.77,0.332-2.765,0.332c-1.843,0-3.32-0.361-4.425-1.076
							c-1.101-0.721-1.887-1.699-2.352-2.957c-0.241-0.68-0.201-1.428-0.263-2.221c-0.062-0.807,0.085-1.645,0.085-2.424"/>
					</g>
				</g>
			</g>
		</g>
		<g>
			<g>
				<g>
					<g>
						<defs>
							<rect id="SVGID_48_" x="74.214" y="90.134" width="491.578" height="179.731"/>
						</defs>
						<clipPath id="SVGID_49_">
							<use xlink:href="#SVGID_48_"  overflow="visible"/>
						</clipPath>
						<path clip-path="url(#SVGID_49_)" d="M375.245,233.248c0.397-0.111,0.785-0.162,1.15-0.24
							c0.365-0.072,0.769-0.096,1.207-0.096c1.676,0,2.797,0.936,3.371,2.807l5.525,17.689l5.131-12.607l-2.721-7.535
							c0.672-0.217,1.39-0.324,2.143-0.338c1.602,0,2.709,0.861,3.324,2.594l6.436,17.945l4.391-17.008
							c0.25-0.959,0.622-1.789,1.112-2.486c0.501-0.693,1.272-1.037,2.318-1.037c0.725,0,1.452,0.068,2.198,0.365l-7.668,25.045
							h-4.553l-5.05-13.006l-5.522,13.006h-4.051L375.245,233.248z"/>
					</g>
				</g>
			</g>
		</g>
		<g>
			<g>
				<g>
					<g>
						<defs>
							<rect id="SVGID_50_" x="74.214" y="90.134" width="491.578" height="179.731"/>
						</defs>
						<clipPath id="SVGID_51_">
							<use xlink:href="#SVGID_50_"  overflow="visible"/>
						</clipPath>
						<path clip-path="url(#SVGID_51_)" d="M411.42,251.459c0-1.865,0.468-3.402,1.425-4.598c0.947-1.193,2.113-2.139,3.504-2.822
							c1.39-0.695,2.874-1.537,4.476-1.785c1.599-0.248,3.05-0.811,4.354-0.811h1.131c0.436,0,1.228,0.791,1.228,0.822v-0.812
							c0-1.596-0.431-2.812-1.194-3.656c-0.762-0.842-2.254-1.262-4.414-1.262c-1.598,0-2.959-0.018-4.059,0.4
							c-1.098,0.412-2.172,1.441-3.192,1.441h-0.546c-0.273,0-0.516-0.754-0.712-1.283c-0.2-0.535-0.304-0.848-0.304-1.162
							c0-0.482,0.287-0.885,0.863-1.305c0.577-0.42,1.323-0.771,2.223-1.109c0.906-0.336,1.92-0.58,3.027-0.756
							c1.109-0.178,2.199-0.268,3.285-0.268c1.816,0,3.33,0.207,4.552,0.598c1.226,0.396,2.204,0.998,2.958,1.795
							c0.75,0.793,1.328,1.785,1.624,2.977c0.296,1.193,0.496,2.559,0.496,4.113v10.693c0,0.805-0.014,1.426,0.062,1.869
							c0.077,0.455,0.19,0.783,0.385,1.01c0.189,0.219,0.328,0.363,0.661,0.428c0.34,0.068-0.34,0.1,1.196,0.1v2.15
							c-1.536,0.104-0.593,0.186-1.065,0.254c-0.471,0.074-0.898,0.109-1.407,0.109c-1.126,0-2.073-0.209-2.915-0.627
							c-0.844-0.424-1.318-1.174-1.458-2.244c-0.888,0.848-1.952,1.557-3.206,2.146c-1.262,0.592-2.908,0.881-4.948,0.881
							c-0.929,0-1.86-0.102-2.815-0.299c-0.947-0.209-1.807-0.594-2.571-1.154c-0.771-0.557-1.403-1.305-1.897-2.238
							C411.668,254.115,411.42,252.916,411.42,251.459 M415.964,251.164c0,1.096,0.326,2.072,0.977,2.926
							c0.644,0.857,1.84,1.285,3.584,1.285c0.926,0,1.81-0.141,2.655-0.418c0.848-0.283,1.59-0.621,2.227-1.031
							c0.636-0.404,1.167-0.842,1.547-1.324c0.373-0.48,0.584-0.928,0.584-1.361v-5.182h-1.594c-1.151,0-2.315-0.162-3.495-0.02
							c-1.174,0.143-2.241,0.305-3.203,0.707c-0.966,0.41-1.744,0.906-2.355,1.617C416.271,249.078,415.964,249.965,415.964,251.164
							"/>
					</g>
				</g>
			</g>
		</g>
		<g>
			<g>
				<g>
					<g>
						<defs>
							<rect id="SVGID_52_" x="74.214" y="90.134" width="491.578" height="179.731"/>
						</defs>
						<clipPath id="SVGID_53_">
							<use xlink:href="#SVGID_52_"  overflow="visible"/>
						</clipPath>
						<path clip-path="url(#SVGID_53_)" d="M437.521,258.283v-25.279h1.064c0.105,0,0.208-0.023,0.314-0.045
							c0.103-0.018,0.189-0.023,0.263-0.023c0.823,0,1.562,0.178,2.227,0.549c0.659,0.373,1.065,1.008,1.2,1.893
							c0.504-0.688,1.261-1.342,2.26-1.957c1.006-0.611,2.168-0.91,3.496-0.91c0.405,0,0.814,0.031,1.254,0.096
							c0.438,0.066,0.852,0.174,1.246,0.33c0.393,0.15,0.713,0.357,0.97,0.611c0.249,0.264,0.38,0.607,0.38,1.041
							c0,0.543-0.148,1.131-0.436,1.75c-0.289,0.627-0.569,1.141-0.848,1.555c-0.468-0.445-0.973-0.787-1.51-1.01
							c-0.527-0.232-1.199-0.348-2.022-0.348c-0.614,0-1.195,0.1-1.756,0.297c-0.56,0.191-1.049,0.461-1.477,0.803
							c-0.428,0.354-1.086,0.742-1.327,1.18c-0.245,0.432-0.691,0.885-0.691,1.367v18.162h-4.607V258.283L437.521,258.283z"/>
					</g>
				</g>
			</g>
		</g>
		<g>
			<g>
				<g>
					<g>
						<defs>
							<rect id="SVGID_54_" x="74.214" y="90.134" width="491.578" height="179.731"/>
						</defs>
						<clipPath id="SVGID_55_">
							<use xlink:href="#SVGID_54_"  overflow="visible"/>
						</clipPath>
						<path clip-path="url(#SVGID_55_)" d="M453.511,245.508c0-2.26,0.334-4.211,0.995-5.857c0.665-1.654,1.536-3.006,2.618-4.062
							c1.074-1.053,2.314-1.836,3.695-2.332c1.383-0.498,2.813-0.746,4.291-0.746c1.813,0,3.367,0.299,4.68,0.916
							c1.303,0.611,2.37,1.424,3.186,2.447c0.816,1.014,1.423,2.193,1.816,3.547c0.389,1.348,0.586,2.736,0.586,4.176
							c0,0.494-0.008,0.758-0.021,1.264c-0.016,0.51-0.066,1.199-0.14,1.199h-16.897c0.106,3.072,0.787,4.869,2.052,6.428
							c1.262,1.561,3.218,2.457,5.865,2.457c1.024,0,1.924-0.045,2.69-0.248c0.762-0.209,1.426-0.439,1.982-0.756
							c0.557-0.32,1.035-0.627,1.427-0.965c0.388-0.332,0.705-0.627,0.95-0.902c0.402,0.504,0.753,1.031,1.046,1.584
							c0.292,0.555,0.446,0.986,0.446,1.301c0,0.287-0.088,0.592-0.264,0.912c-0.176,0.316-0.476,0.648-0.913,0.99
							c-0.82,0.633-1.872,1.162-3.149,1.588c-1.283,0.428-2.834,0.643-4.669,0.643c-1.675,0-3.27-0.24-4.755-0.73
							c-1.49-0.488-2.797-1.266-3.912-2.326c-1.111-1.066-1.988-2.465-2.641-4.199C453.833,250.102,453.511,247.994,453.511,245.508
							 M457.489,242.984h13.34c0-1.537-0.096-1.703-0.301-2.49c-0.204-0.791-0.533-1.445-0.994-2.049
							c-0.461-0.611-1.074-1.066-1.835-1.41c-0.769-0.346-1.712-0.51-2.823-0.51c-1.843,0-3.363,0.625-4.559,1.789
							c-1.197,1.18-2.046,3.281-2.191,4.789"/>
					</g>
				</g>
			</g>
		</g>
	</g>
</g>
</svg>
