<?xml version="1.0" encoding="utf-8"?>
<!-- Generator: Adobe Illustrator 16.0.0, SVG Export Plug-In . SVG Version: 6.00 Build 0)  -->
<!DOCTYPE svg PUBLIC "-//W3C//DTD SVG 1.1//EN" "http://www.w3.org/Graphics/SVG/1.1/DTD/svg11.dtd">
<svg version="1.1" id="Layer_1" xmlns="http://www.w3.org/2000/svg" xmlns:xlink="http://www.w3.org/1999/xlink" x="0px" y="0px"
	 width="640px" height="360px" viewBox="0 0 640 360" enable-background="new 0 0 640 360" xml:space="preserve">
<g>
	<path d="M60.094,119.873C26.963,119.873,0,146.838,0,180c0,33.159,26.963,60.128,60.094,60.128
		c33.129,0,60.128-26.969,60.128-60.128C120.222,146.838,93.256,119.873,60.094,119.873z M47.595,204.228c7.732,4,17.333,4,25.065,0
		l11.898,11.902c-7.23,4.897-15.629,7.497-24.397,7.497c-8.763,0-17.197-2.6-24.397-7.497L47.595,204.228z M87.392,180
		c0-15.033-12.229-27.268-27.264-27.268c-15.032,0-27.264,12.232-27.264,27.268c0,4.367,1.064,8.664,3.064,12.528L24.029,204.43
		c-4.897-7.229-7.5-15.634-7.5-24.396c0-24.031,19.563-43.597,43.598-43.597c24.03,0,43.594,19.565,43.594,43.597
		c0,8.768-2.598,17.197-7.498,24.396l-11.901-11.901C86.327,188.664,87.392,184.367,87.392,180z"/>
	<g>
		<path d="M205.188,141.76h-56.197c-0.401,0-0.947,0.172-0.947,0.536v14.065c0,0.4,0.58,0.396,0.947,0.396h19.05v59.434
			c0,0.396,0.448,0.566,0.815,0.566h16.434c0.396,0,0.753-0.201,0.753-0.566v-59.434h19.108c0.4,0,0.892-0.028,0.892-0.396v-14.063
			C206.044,141.896,205.552,141.76,205.188,141.76z"/>
		<path d="M247.716,157.896c-3.897,0-7.384,0.866-10.218,2.529c-1.934,1.138-3.456,2.371-5.457,3.703V142.03
			c0-0.4-0.158-0.271-0.524-0.271h-16.332c-0.4,0-1.141-0.097-1.141,0.271v74.162c0,0.396,0.774,0.566,1.141,0.566h16.332
			c0.399,0,0.524-0.207,0.524-0.566v-37.664c2-1.603,3.288-2.836,4.653-3.736c1.37-0.865,3.08-1.298,4.977-1.298
			c2.136,0,3.803,0.635,4.734,1.966c0.969,1.4,1.636,4.067,1.636,7.969v32.764c0,0.396,0.042,0.566,0.408,0.566h16.331
			c0.399,0,0.264-0.201,0.264-0.566v-34.899c0-7.197-1.181-12.966-3.949-17.062C258.296,160.028,253.918,157.896,247.716,157.896z"
			/>
		<path d="M319.514,165.893L319.514,165.893c-2.037-2.499-4.569-4.466-7.601-5.864c-3.002-1.398-6.569-2.103-10.568-2.103
			c-3.399,0-6.764,0.701-9.932,2.103c-3.2,1.398-6.033,3.398-8.499,6c-2.467,2.598-4.467,5.799-5.968,9.503
			c-1.5,3.732-2.268,7.962-2.268,12.562c0,4.767,0.733,9.034,2.169,12.732c1.434,3.701,3.464,6.897,6.033,9.466
			c2.565,2.599,5.634,4.6,9.131,5.93c3.468,1.337,7.267,2.039,11.266,2.039c3.399,0,6.899-0.602,10.401-1.732
			c3.5-1.169,6.697-2.734,9.562-4.735c0.302-0.197,0.401-0.6,0.232-0.932l-5.432-10.1c-0.098-0.168-0.268-0.302-0.433-0.368
			c-0.201-0.066-0.4-0.032-0.565,0.1c-3.868,2.399-7.732,3.637-11.501,3.637c-3.531,0-6.533-0.885-8.966-2.686
			c-2.231-1.667-3.732-4.684-4.499-7.681h32.096c0.334,0,0.636-0.291,0.705-0.62c0.165-0.698,0.293-1.759,0.463-3.157
			c0.131-1.364,0.234-2.877,0.234-4.41c0-3.901-0.502-7.572-1.469-10.908C323.043,171.335,321.513,168.362,319.514,165.893z
			 M292.045,181.259c0-3.031,1.684-5.296,3.351-6.797c1.835-1.633,3.893-2.433,6.323-2.433c3.101,0,5.248,0.631,6.514,2.396
			c1.201,1.704,1.846,4.335,1.945,6.334h-18.132V181.259L292.045,181.259z"/>
		<path d="M400.707,141.76h-45.632c-0.4,0-1.031,0.172-1.031,0.536v73.895c0,0.396,0.66,0.566,1.031,0.566h16.334
			c0.397,0,0.636-0.201,0.636-0.566v-28.433h24.459c0.4,0,0.54,0.136,0.54-0.232v-14.062c0-0.401-0.173-0.706-0.54-0.706h-24.459
			v-15.996h28.662c0.399,0,0.338-0.032,0.338-0.4v-14.062C401.045,141.896,401.106,141.76,400.707,141.76z"/>
		<path d="M484.927,165.826c-2.531-2.532-5.492-4.532-8.8-5.864c-6.595-2.7-14.03-2.7-20.694,0
			c-3.332,1.365-6.297,3.332-8.833,5.864c-2.53,2.537-4.6,5.734-6.096,9.469c-1.502,3.729-2.269,8.033-2.269,12.798
			c0,4.767,0.767,9.063,2.269,12.795c1.496,3.737,3.562,6.937,6.096,9.472c2.536,2.563,5.501,4.531,8.833,5.861
			c3.331,1.37,6.833,2.034,10.364,2.034c3.567,0,7.032-0.701,10.33-2.034c3.308-1.33,6.235-3.331,8.8-5.861
			c2.537-2.566,4.606-5.734,6.107-9.472c1.496-3.728,2.265-8.028,2.265-12.795c0-4.769-0.769-9.065-2.265-12.798
			C489.496,171.56,487.464,168.362,484.927,165.826z M472.762,199.388c-1.562,2.671-3.831,3.97-6.929,3.97
			c-3.171,0-5.435-1.299-7.002-3.97c-1.6-2.727-2.4-6.56-2.4-11.295c0-4.766,0.805-8.563,2.4-11.302
			c1.53-2.663,3.831-3.962,7.002-3.962c3.098,0,5.366,1.3,6.929,3.962c1.637,2.735,2.47,6.566,2.47,11.302
			C475.198,192.859,474.362,196.659,472.762,199.388z"/>
		<path d="M546.557,165.826c-2.528-2.532-5.497-4.532-8.796-5.864c-6.601-2.7-14.034-2.7-20.699,0
			c-3.333,1.365-6.302,3.332-8.834,5.864c-2.528,2.537-4.598,5.734-6.1,9.469c-1.501,3.729-2.267,8.033-2.267,12.798
			c0,4.767,0.766,9.063,2.267,12.795c1.502,3.737,3.567,6.937,6.1,9.472c2.532,2.563,5.501,4.531,8.834,5.861
			c3.333,1.37,6.833,2.034,10.364,2.034c3.571,0,7.035-0.701,10.335-2.034c3.299-1.33,6.23-3.331,8.796-5.861
			c2.537-2.566,4.605-5.734,6.103-9.472c1.503-3.728,2.269-8.028,2.269-12.795c0-4.769-0.766-9.065-2.269-12.798
			C551.125,171.56,549.094,168.362,546.557,165.826z M534.391,199.388c-1.563,2.671-3.831,3.97-6.928,3.97
			c-3.168,0-5.435-1.299-7.002-3.97c-1.602-2.727-2.397-6.56-2.397-11.295c0-4.766,0.796-8.563,2.397-11.302
			c1.533-2.663,3.834-3.962,7.002-3.962c3.097,0,5.364,1.3,6.928,3.962c1.637,2.735,2.471,6.566,2.471,11.302
			C536.827,192.859,536.027,196.659,534.391,199.388z"/>
		<path d="M639.85,159.778c-0.129-0.165-0.33-0.022-0.566-0.022H624.19c-0.335,0-0.637-0.015-0.702,0.32l-5.231,25.939
			c-0.533,2.8-0.937,5.538-1.305,8.24c-0.161,1.228-0.333,2.466-0.526,3.834l-9.733-38.031c-0.066-0.302-0.367-0.302-0.702-0.302
			h-12.269c-0.332,0-0.598-0.015-0.696,0.286c-0.366,1.431-8.066,30.938-10.303,40.135c-0.301-1.997-0.563-3.993-0.832-5.895
			c-0.366-2.729-0.768-5.531-1.233-8.358l-5.332-25.836c-0.066-0.332-0.366-0.332-0.701-0.332h-16.195
			c-0.235,0-0.436-0.15-0.565,0.019c-0.135,0.167-0.201,0.275-0.135,0.478l13.766,56.082c0.065,0.334,0.37,0.424,0.7,0.424h20.365
			c0.334,0,0.602-0.185,0.7-0.485l6.599-25.038l5.498,20.939l0.897,4.06c0.071,0.333,0.372,0.524,0.706,0.524h19.099
			c0.334,0,0.631-0.185,0.697-0.521l13.199-56.044C640.05,160.032,639.984,159.977,639.85,159.778z"/>
		<path d="M428.239,141.76h-16.336c-0.399,0-0.858-0.099-0.858,0.271v74.16c0,0.396,0.491,0.566,0.858,0.566h16.336
			c0.396,0,0.804-0.201,0.804-0.566v-74.16C429.043,141.632,428.639,141.76,428.239,141.76z"/>
	</g>
</g>
</svg>
