<?xml version="1.0" encoding="utf-8"?>
<!-- Generator: Adobe Illustrator 16.0.0, SVG Export Plug-In . SVG Version: 6.00 Build 0)  -->
<!DOCTYPE svg PUBLIC "-//W3C//DTD SVG 1.1//EN" "http://www.w3.org/Graphics/SVG/1.1/DTD/svg11.dtd">
<svg version="1.1" id="Layer_x5F_1" xmlns="http://www.w3.org/2000/svg" xmlns:xlink="http://www.w3.org/1999/xlink" x="0px"
	 y="0px" width="204px" height="294px" viewBox="0 0 204 294" enable-background="new 0 0 204 294" xml:space="preserve">
<rect x="76" y="267" fill="#222222" width="52" height="24"/>
<g>
	<path fill="#222222" d="M15,293c-7.458,0-14-6.542-14-14V15C1,7.542,7.542,1,15,1h174c7.458,0,14,6.542,14,14v264
		c0,7.458-6.542,14-14,14H15z M102,269c-4.794,0-9,4.673-9,10c0,4.542,4.458,9,9,9c5.634,0,9-4.576,9-9
		C111,273.111,107.299,269,102,269z M14,28c-0.552,0-1,0.448-1,1v235c0,0.553,0.448,1,1,1h176c0.553,0,1-0.447,1-1V29
		c0-0.552-0.447-1-1-1H14z"/>
	<path fill="#666666" d="M189,2c6.925,0,13,6.075,13,13v264c0,6.925-6.075,13-13,13H15c-6.925,0-13-6.075-13-13V15
		C2,8.075,8.075,2,15,2H189 M14,266h176c1.104,0,2-0.896,2-2V29c0-1.104-0.896-2-2-2H14c-1.104,0-2,0.896-2,2v235
		C12,265.104,12.896,266,14,266 M102,288c5.634,0,9-4.357,9-8.571c0-5.463-3.785-9.429-9-9.429c-4.794,0-9,4.407-9,9.429
		C93,283.835,97.374,288,102,288 M189,0H15C7,0,0,7,0,15v264c0,8,7,15,15,15h174c8,0,15-7,15-15V15C204,7,197,0,189,0L189,0z
		 M14,264V29h176v235H14L14,264z M102,286.286c-3.6,0-7.2-3.429-7.2-6.857c0-4.286,3.6-7.714,7.2-7.714c4.5,0,7.2,3.429,7.2,7.714
		C109.2,282.857,106.5,286.286,102,286.286L102,286.286z"/>
</g>
</svg>
