<?xml version="1.0" encoding="utf-8"?>
<!-- Generator: Adobe Illustrator 16.0.0, SVG Export Plug-In . SVG Version: 6.00 Build 0)  -->
<!DOCTYPE svg PUBLIC "-//W3C//DTD SVG 1.1//EN" "http://www.w3.org/Graphics/SVG/1.1/DTD/svg11.dtd">
<svg version="1.1" id="Layer_x5F_1" xmlns="http://www.w3.org/2000/svg" xmlns:xlink="http://www.w3.org/1999/xlink" x="0px"
	 y="0px" width="640px" height="494px" viewBox="0 0 640 494" enable-background="new 0 0 640 494" xml:space="preserve">
<g>
	<path fill="#000000" d="M237.236,493l-5.644-2.822L229,487.586v-3.102l18.62-14.699c0.213-0.168,0.349-0.416,0.375-0.686l8-80
		c0.028-0.281-0.064-0.562-0.254-0.771c-0.189-0.21-0.458-0.329-0.741-0.329H25c-13.458,0-24-10.542-24-24V25
		C1,11.542,11.542,1,25,1h590c13.458,0,24,10.542,24,24v339c0,13.458-10.542,24-24,24H389c-0.28,0-0.548,0.117-0.737,0.324
		s-0.283,0.483-0.259,0.763l7,80c0.024,0.274,0.16,0.527,0.376,0.698L414,484.484v3.102l-2.62,2.62L406.723,493H237.236z M27,26
		c-0.552,0-1,0.448-1,1v330c0,0.553,0.448,1,1,1h586c0.553,0,1-0.447,1-1V27c0-0.552-0.447-1-1-1H27z"/>
	<path fill="#000000" d="M615,2c12.897,0,23,10.103,23,23v24v290v25c0,12.897-10.103,23-23,23H389c-0.561,0-1.096,0.235-1.475,0.648
		c-0.379,0.414-0.566,0.968-0.518,1.526l7,80c0.048,0.549,0.32,1.054,0.753,1.395L413,484.969v2.203l-2.24,2.24L406.446,492H388h-66
		h-66h-18.528l-5.287-2.644L230,487.172v-2.203l18.239-14.399c0.426-0.336,0.697-0.83,0.751-1.37l8-80
		c0.056-0.562-0.128-1.122-0.507-1.541S255.565,387,255,387H25c-12.897,0-23-10.103-23-23v-25V49V25C2,12.103,12.103,2,25,2H615
		 M27,359h586c1.104,0,2-0.896,2-2V27c0-1.104-0.896-2-2-2H27c-1.104,0-2,0.896-2,2v330C25,358.104,25.896,359,27,359 M615,0H25
		C11,0,0,11,0,25v24v290v25c0,14,11,25,25,25h230l-8,80l-19,15v4l3,3l6,3h19h66h66h19l5-3l3-3v-4l-19-15l-7-80h226c14,0,25-11,25-25
		v-25V49V25C640,11,629,0,615,0L615,0z M27,357V27h586v330H27L27,357z"/>
</g>
</svg>
