<?xml version="1.0" encoding="utf-8"?>
<!-- Generator: Adobe Illustrator 16.0.0, SVG Export Plug-In . SVG Version: 6.00 Build 0)  -->
<!DOCTYPE svg PUBLIC "-//W3C//DTD SVG 1.1//EN" "http://www.w3.org/Graphics/SVG/1.1/DTD/svg11.dtd">
<svg version="1.1" id="Layer_1"
	xmlns="http://www.w3.org/2000/svg"
	xmlns:xlink="http://www.w3.org/1999/xlink" x="0px" y="0px" width="240px" height="72px" viewBox="0 0 240 72" enable-background="new 0 0 240 72" xml:space="preserve" shape-rendering="optimizeQuality">
	<g>
		<path fill="#3399FF" d="M73.7,55.816v15.281H42.25v-3.256C37.583,70.615,32.183,72,26.05,72c-6.833,0-12.883-2.086-18.149-6.263
		C2.633,61.562,0,55.584,0,47.8c0-8.384,2.433-14.864,7.3-19.441c4.866-4.509,11.383-6.764,19.551-6.764
		c5.999,0,11.132,1.336,15.399,4.008v-8.919h-6.2V1.403h31.35v54.414H73.7z M42.399,46.597c0-3.038-0.699-5.578-2.1-7.615
		c-1.4-2.004-3.483-3.006-6.25-3.006c-5.7,0-8.55,3.691-8.55,11.073c0,3.04,0.7,5.545,2.1,7.516c1.367,2.004,3.45,3.007,6.25,3.007
		c2.533,0,4.601-0.884,6.2-2.656C41.616,53.145,42.399,50.373,42.399,46.597z"/>
		<path fill="#3399FF" d="M119.699,71.098H80.6V55.816h6.6V37.779h-6.6V22.497H110.7v12.175c1.132-3.039,2.882-5.662,5.249-7.867
		c2.268-2.171,4.567-3.59,6.9-4.259c2.234-0.634,5.518-0.952,9.852-0.952V42.99c-0.568-0.033-1.268-0.051-2.102-0.051
		c-5.133,0-8.951,0.519-11.449,1.553c-2.601,1.07-4.368,2.473-5.301,4.209c-0.968,1.804-1.467,4.177-1.5,7.115h7.35V71.098z"/>
		<path fill="#3399FF" d="M173.299,71.098h-34.35V55.816h5.002V37.779h-5.002V22.497h30.15v33.319h4.199V71.098z M141.85,8.768
		c0-2.638,1.35-4.76,4.051-6.363c2.666-1.603,5.967-2.405,9.9-2.405c4.033,0,7.281,0.835,9.75,2.505
		c2.434,1.704,3.65,3.775,3.65,6.213c0,2.639-1.268,4.727-3.801,6.263c-2.568,1.57-5.801,2.354-9.701,2.354
		c-3.967,0-7.266-0.718-9.898-2.154C143.166,13.779,141.85,11.642,141.85,8.768z"/>
		<path fill="#3399FF" d="M240,71.098h-59V58.271l27.25-24.351h-16.549v5.661H181.4V22.497H240v11.975l-27.699,24.902h16.75v-5.763
		H240V71.098z"/>
	</g>
</svg>
